<mxfile host="app.diagrams.net" modified="2024-03-13T08:22:29.588Z" agent="Mozilla/5.0 (X11; Linux x86_64) AppleWebKit/537.36 (KHTML, like Gecko) Chrome/121.0.0.0 Safari/537.36" etag="qp1bJycLPfjPlUu3-kBV" version="24.0.5" type="google" pages="3">
  <diagram name="Admin Side" id="mGEmbOmcz0ZtvUAAZIOy">
    <mxGraphModel grid="1" page="1" gridSize="10" guides="1" tooltips="1" connect="1" arrows="1" fold="1" pageScale="1" pageWidth="827" pageHeight="1169" math="0" shadow="0">
      <root>
        <mxCell id="0" />
        <mxCell id="1" parent="0" />
        <mxCell id="pTQUG1Ghc76PBxwxFb4u-93" value="" style="edgeStyle=orthogonalEdgeStyle;rounded=0;orthogonalLoop=1;jettySize=auto;html=1;" edge="1" parent="1" source="pTQUG1Ghc76PBxwxFb4u-1" target="pTQUG1Ghc76PBxwxFb4u-3">
          <mxGeometry relative="1" as="geometry" />
        </mxCell>
        <mxCell id="pTQUG1Ghc76PBxwxFb4u-1" value="Display Main Menu" style="rounded=0;whiteSpace=wrap;html=1;" vertex="1" parent="1">
          <mxGeometry x="200" y="-1100" width="120" height="60" as="geometry" />
        </mxCell>
        <mxCell id="pTQUG1Ghc76PBxwxFb4u-92" value="" style="edgeStyle=orthogonalEdgeStyle;rounded=0;orthogonalLoop=1;jettySize=auto;html=1;" edge="1" parent="1" source="pTQUG1Ghc76PBxwxFb4u-2" target="pTQUG1Ghc76PBxwxFb4u-1">
          <mxGeometry relative="1" as="geometry" />
        </mxCell>
        <mxCell id="pTQUG1Ghc76PBxwxFb4u-2" value="Admin Input" style="html=1;strokeWidth=2;shape=manualInput;whiteSpace=wrap;rounded=1;size=26;arcSize=11;" vertex="1" parent="1">
          <mxGeometry x="40" y="-1100" width="100" height="60" as="geometry" />
        </mxCell>
        <mxCell id="pTQUG1Ghc76PBxwxFb4u-94" value="" style="edgeStyle=orthogonalEdgeStyle;rounded=0;orthogonalLoop=1;jettySize=auto;html=1;" edge="1" parent="1" source="pTQUG1Ghc76PBxwxFb4u-3" target="pTQUG1Ghc76PBxwxFb4u-4">
          <mxGeometry relative="1" as="geometry" />
        </mxCell>
        <mxCell id="pTQUG1Ghc76PBxwxFb4u-95" value="Yes" style="edgeLabel;html=1;align=center;verticalAlign=middle;resizable=0;points=[];" connectable="0" vertex="1" parent="pTQUG1Ghc76PBxwxFb4u-94">
          <mxGeometry x="-0.2" y="1" relative="1" as="geometry">
            <mxPoint as="offset" />
          </mxGeometry>
        </mxCell>
        <mxCell id="pTQUG1Ghc76PBxwxFb4u-107" value="" style="edgeStyle=orthogonalEdgeStyle;rounded=0;orthogonalLoop=1;jettySize=auto;html=1;entryX=0.5;entryY=0;entryDx=0;entryDy=0;" edge="1" parent="1" source="pTQUG1Ghc76PBxwxFb4u-3" target="pTQUG1Ghc76PBxwxFb4u-8">
          <mxGeometry relative="1" as="geometry">
            <mxPoint x="260" y="-820" as="targetPoint" />
          </mxGeometry>
        </mxCell>
        <mxCell id="pTQUG1Ghc76PBxwxFb4u-110" value="No" style="edgeLabel;html=1;align=center;verticalAlign=middle;resizable=0;points=[];" connectable="0" vertex="1" parent="pTQUG1Ghc76PBxwxFb4u-107">
          <mxGeometry x="-0.1467" y="1" relative="1" as="geometry">
            <mxPoint as="offset" />
          </mxGeometry>
        </mxCell>
        <mxCell id="pTQUG1Ghc76PBxwxFb4u-3" value="Add Mobile" style="rhombus;whiteSpace=wrap;html=1;" vertex="1" parent="1">
          <mxGeometry x="220" y="-990" width="80" height="80" as="geometry" />
        </mxCell>
        <mxCell id="pTQUG1Ghc76PBxwxFb4u-97" value="" style="edgeStyle=orthogonalEdgeStyle;rounded=0;orthogonalLoop=1;jettySize=auto;html=1;" edge="1" parent="1" source="pTQUG1Ghc76PBxwxFb4u-4" target="pTQUG1Ghc76PBxwxFb4u-6">
          <mxGeometry relative="1" as="geometry" />
        </mxCell>
        <mxCell id="pTQUG1Ghc76PBxwxFb4u-4" value="Ask Admin to add details of Phone" style="rounded=0;whiteSpace=wrap;html=1;" vertex="1" parent="1">
          <mxGeometry x="340" y="-980" width="120" height="60" as="geometry" />
        </mxCell>
        <mxCell id="pTQUG1Ghc76PBxwxFb4u-96" value="" style="edgeStyle=orthogonalEdgeStyle;rounded=0;orthogonalLoop=1;jettySize=auto;html=1;" edge="1" parent="1" source="pTQUG1Ghc76PBxwxFb4u-5">
          <mxGeometry relative="1" as="geometry">
            <mxPoint x="349.9999999999998" y="-920" as="targetPoint" />
          </mxGeometry>
        </mxCell>
        <mxCell id="pTQUG1Ghc76PBxwxFb4u-5" value="Admin Input" style="html=1;strokeWidth=2;shape=manualInput;whiteSpace=wrap;rounded=1;size=26;arcSize=11;rotation=-90;" vertex="1" parent="1">
          <mxGeometry x="300" y="-870" width="100" height="60" as="geometry" />
        </mxCell>
        <mxCell id="pTQUG1Ghc76PBxwxFb4u-98" value="" style="edgeStyle=orthogonalEdgeStyle;rounded=0;orthogonalLoop=1;jettySize=auto;html=1;" edge="1" parent="1" source="pTQUG1Ghc76PBxwxFb4u-6" target="pTQUG1Ghc76PBxwxFb4u-7">
          <mxGeometry relative="1" as="geometry" />
        </mxCell>
        <mxCell id="pTQUG1Ghc76PBxwxFb4u-99" value="Yes" style="edgeLabel;html=1;align=center;verticalAlign=middle;resizable=0;points=[];" connectable="0" vertex="1" parent="pTQUG1Ghc76PBxwxFb4u-98">
          <mxGeometry x="0.24" y="1" relative="1" as="geometry">
            <mxPoint as="offset" />
          </mxGeometry>
        </mxCell>
        <mxCell id="pTQUG1Ghc76PBxwxFb4u-162" value="" style="edgeStyle=orthogonalEdgeStyle;rounded=0;orthogonalLoop=1;jettySize=auto;html=1;" edge="1" parent="1" source="pTQUG1Ghc76PBxwxFb4u-6" target="pTQUG1Ghc76PBxwxFb4u-161">
          <mxGeometry relative="1" as="geometry" />
        </mxCell>
        <mxCell id="pTQUG1Ghc76PBxwxFb4u-166" value="No" style="edgeLabel;html=1;align=center;verticalAlign=middle;resizable=0;points=[];" connectable="0" vertex="1" parent="pTQUG1Ghc76PBxwxFb4u-162">
          <mxGeometry x="0.28" relative="1" as="geometry">
            <mxPoint as="offset" />
          </mxGeometry>
        </mxCell>
        <mxCell id="pTQUG1Ghc76PBxwxFb4u-6" value="Confirm?" style="rhombus;whiteSpace=wrap;html=1;" vertex="1" parent="1">
          <mxGeometry x="596" y="-990" width="80" height="80" as="geometry" />
        </mxCell>
        <mxCell id="pTQUG1Ghc76PBxwxFb4u-103" value="" style="edgeStyle=orthogonalEdgeStyle;rounded=0;orthogonalLoop=1;jettySize=auto;html=1;" edge="1" parent="1" source="pTQUG1Ghc76PBxwxFb4u-7">
          <mxGeometry relative="1" as="geometry">
            <mxPoint x="856" y="-950" as="targetPoint" />
          </mxGeometry>
        </mxCell>
        <mxCell id="pTQUG1Ghc76PBxwxFb4u-7" value="Save Mobile to Database" style="rounded=0;whiteSpace=wrap;html=1;" vertex="1" parent="1">
          <mxGeometry x="706" y="-980" width="120" height="60" as="geometry" />
        </mxCell>
        <mxCell id="pTQUG1Ghc76PBxwxFb4u-177" style="edgeStyle=orthogonalEdgeStyle;rounded=0;orthogonalLoop=1;jettySize=auto;html=1;exitX=0.5;exitY=1;exitDx=0;exitDy=0;entryX=0.5;entryY=0;entryDx=0;entryDy=0;" edge="1" parent="1" source="pTQUG1Ghc76PBxwxFb4u-8" target="pTQUG1Ghc76PBxwxFb4u-14">
          <mxGeometry relative="1" as="geometry" />
        </mxCell>
        <mxCell id="pTQUG1Ghc76PBxwxFb4u-178" value="No" style="edgeLabel;html=1;align=center;verticalAlign=middle;resizable=0;points=[];" connectable="0" vertex="1" parent="pTQUG1Ghc76PBxwxFb4u-177">
          <mxGeometry x="-0.0941" relative="1" as="geometry">
            <mxPoint as="offset" />
          </mxGeometry>
        </mxCell>
        <mxCell id="ZNuayRjtFrARlQCd9C93-4" value="" style="edgeStyle=orthogonalEdgeStyle;rounded=0;orthogonalLoop=1;jettySize=auto;html=1;" edge="1" parent="1" source="pTQUG1Ghc76PBxwxFb4u-8" target="ZNuayRjtFrARlQCd9C93-3">
          <mxGeometry relative="1" as="geometry" />
        </mxCell>
        <mxCell id="ZNuayRjtFrARlQCd9C93-5" value="Yes" style="edgeLabel;html=1;align=center;verticalAlign=middle;resizable=0;points=[];" connectable="0" vertex="1" parent="ZNuayRjtFrARlQCd9C93-4">
          <mxGeometry x="-0.1214" y="-2" relative="1" as="geometry">
            <mxPoint as="offset" />
          </mxGeometry>
        </mxCell>
        <mxCell id="pTQUG1Ghc76PBxwxFb4u-8" value="Delete Mobile" style="rhombus;whiteSpace=wrap;html=1;" vertex="1" parent="1">
          <mxGeometry x="220" y="-780" width="80" height="80" as="geometry" />
        </mxCell>
        <mxCell id="pTQUG1Ghc76PBxwxFb4u-138" value="" style="edgeStyle=orthogonalEdgeStyle;rounded=0;orthogonalLoop=1;jettySize=auto;html=1;" edge="1" parent="1" source="pTQUG1Ghc76PBxwxFb4u-9" target="pTQUG1Ghc76PBxwxFb4u-11">
          <mxGeometry relative="1" as="geometry" />
        </mxCell>
        <mxCell id="pTQUG1Ghc76PBxwxFb4u-9" value="Ask MobileID&amp;nbsp;" style="rounded=0;whiteSpace=wrap;html=1;" vertex="1" parent="1">
          <mxGeometry x="503" y="-770" width="120" height="60" as="geometry" />
        </mxCell>
        <mxCell id="ZNuayRjtFrARlQCd9C93-2" value="" style="edgeStyle=orthogonalEdgeStyle;rounded=0;orthogonalLoop=1;jettySize=auto;html=1;" edge="1" parent="1" source="pTQUG1Ghc76PBxwxFb4u-10" target="pTQUG1Ghc76PBxwxFb4u-9">
          <mxGeometry relative="1" as="geometry" />
        </mxCell>
        <mxCell id="pTQUG1Ghc76PBxwxFb4u-10" value="Admin Input" style="html=1;strokeWidth=2;shape=manualInput;whiteSpace=wrap;rounded=1;size=26;arcSize=11;rotation=-90;" vertex="1" parent="1">
          <mxGeometry x="513" y="-660" width="100" height="60" as="geometry" />
        </mxCell>
        <mxCell id="pTQUG1Ghc76PBxwxFb4u-169" value="" style="edgeStyle=orthogonalEdgeStyle;rounded=0;orthogonalLoop=1;jettySize=auto;html=1;" edge="1" parent="1" source="pTQUG1Ghc76PBxwxFb4u-11" target="pTQUG1Ghc76PBxwxFb4u-168">
          <mxGeometry relative="1" as="geometry" />
        </mxCell>
        <mxCell id="pTQUG1Ghc76PBxwxFb4u-173" value="No" style="edgeLabel;html=1;align=center;verticalAlign=middle;resizable=0;points=[];" connectable="0" vertex="1" parent="pTQUG1Ghc76PBxwxFb4u-169">
          <mxGeometry x="0.2593" relative="1" as="geometry">
            <mxPoint as="offset" />
          </mxGeometry>
        </mxCell>
        <mxCell id="BgerLeH3yWuYo9dpGIqB-7" value="" style="edgeStyle=orthogonalEdgeStyle;rounded=0;orthogonalLoop=1;jettySize=auto;html=1;" edge="1" parent="1" source="pTQUG1Ghc76PBxwxFb4u-11" target="pTQUG1Ghc76PBxwxFb4u-13">
          <mxGeometry relative="1" as="geometry" />
        </mxCell>
        <mxCell id="BgerLeH3yWuYo9dpGIqB-8" value="Yes" style="edgeLabel;html=1;align=center;verticalAlign=middle;resizable=0;points=[];" connectable="0" vertex="1" parent="BgerLeH3yWuYo9dpGIqB-7">
          <mxGeometry x="0.1445" y="2" relative="1" as="geometry">
            <mxPoint as="offset" />
          </mxGeometry>
        </mxCell>
        <mxCell id="6w2UU5s4e9gFLkW_FtQj-33" value="Yes" style="edgeLabel;html=1;align=center;verticalAlign=middle;resizable=0;points=[];" connectable="0" vertex="1" parent="BgerLeH3yWuYo9dpGIqB-7">
          <mxGeometry x="-0.7005" relative="1" as="geometry">
            <mxPoint as="offset" />
          </mxGeometry>
        </mxCell>
        <mxCell id="6w2UU5s4e9gFLkW_FtQj-34" value="Yes" style="edgeLabel;html=1;align=center;verticalAlign=middle;resizable=0;points=[];" connectable="0" vertex="1" parent="BgerLeH3yWuYo9dpGIqB-7">
          <mxGeometry x="0.6684" relative="1" as="geometry">
            <mxPoint as="offset" />
          </mxGeometry>
        </mxCell>
        <mxCell id="pTQUG1Ghc76PBxwxFb4u-11" value="ID Found?" style="rhombus;whiteSpace=wrap;html=1;" vertex="1" parent="1">
          <mxGeometry x="673" y="-780" width="80" height="80" as="geometry" />
        </mxCell>
        <mxCell id="6w2UU5s4e9gFLkW_FtQj-38" style="edgeStyle=orthogonalEdgeStyle;rounded=0;orthogonalLoop=1;jettySize=auto;html=1;exitX=1;exitY=0.5;exitDx=0;exitDy=0;entryX=0;entryY=0.5;entryDx=0;entryDy=0;" edge="1" parent="1" source="pTQUG1Ghc76PBxwxFb4u-13" target="VGX6oSrI3HgT6T0f6mAT-24">
          <mxGeometry relative="1" as="geometry" />
        </mxCell>
        <mxCell id="pTQUG1Ghc76PBxwxFb4u-13" value="Delete Operation" style="rounded=0;whiteSpace=wrap;html=1;" vertex="1" parent="1">
          <mxGeometry x="940" y="-770" width="120" height="60" as="geometry" />
        </mxCell>
        <mxCell id="pTQUG1Ghc76PBxwxFb4u-185" style="edgeStyle=orthogonalEdgeStyle;rounded=0;orthogonalLoop=1;jettySize=auto;html=1;exitX=0.5;exitY=1;exitDx=0;exitDy=0;entryX=0.5;entryY=0;entryDx=0;entryDy=0;" edge="1" parent="1" source="pTQUG1Ghc76PBxwxFb4u-14" target="pTQUG1Ghc76PBxwxFb4u-20">
          <mxGeometry relative="1" as="geometry" />
        </mxCell>
        <mxCell id="pTQUG1Ghc76PBxwxFb4u-186" value="No" style="edgeLabel;html=1;align=center;verticalAlign=middle;resizable=0;points=[];" connectable="0" vertex="1" parent="pTQUG1Ghc76PBxwxFb4u-185">
          <mxGeometry x="-0.0118" y="-1" relative="1" as="geometry">
            <mxPoint as="offset" />
          </mxGeometry>
        </mxCell>
        <mxCell id="ZNuayRjtFrARlQCd9C93-14" value="" style="edgeStyle=orthogonalEdgeStyle;rounded=0;orthogonalLoop=1;jettySize=auto;html=1;" edge="1" parent="1" source="pTQUG1Ghc76PBxwxFb4u-14" target="ZNuayRjtFrARlQCd9C93-11">
          <mxGeometry relative="1" as="geometry" />
        </mxCell>
        <mxCell id="ZNuayRjtFrARlQCd9C93-15" value="Yes" style="edgeLabel;html=1;align=center;verticalAlign=middle;resizable=0;points=[];" connectable="0" vertex="1" parent="ZNuayRjtFrARlQCd9C93-14">
          <mxGeometry x="-0.2122" y="1" relative="1" as="geometry">
            <mxPoint as="offset" />
          </mxGeometry>
        </mxCell>
        <mxCell id="pTQUG1Ghc76PBxwxFb4u-14" value="Edit Mobile" style="rhombus;whiteSpace=wrap;html=1;" vertex="1" parent="1">
          <mxGeometry x="220" y="-530" width="80" height="80" as="geometry" />
        </mxCell>
        <mxCell id="pTQUG1Ghc76PBxwxFb4u-184" value="" style="edgeStyle=orthogonalEdgeStyle;rounded=0;orthogonalLoop=1;jettySize=auto;html=1;" edge="1" parent="1" source="pTQUG1Ghc76PBxwxFb4u-20" target="pTQUG1Ghc76PBxwxFb4u-21">
          <mxGeometry relative="1" as="geometry" />
        </mxCell>
        <mxCell id="pTQUG1Ghc76PBxwxFb4u-187" value="Yes" style="edgeLabel;html=1;align=center;verticalAlign=middle;resizable=0;points=[];" connectable="0" vertex="1" parent="pTQUG1Ghc76PBxwxFb4u-184">
          <mxGeometry x="-0.05" y="-3" relative="1" as="geometry">
            <mxPoint x="-3" y="-3" as="offset" />
          </mxGeometry>
        </mxCell>
        <mxCell id="pTQUG1Ghc76PBxwxFb4u-240" style="edgeStyle=orthogonalEdgeStyle;rounded=0;orthogonalLoop=1;jettySize=auto;html=1;exitX=0.5;exitY=1;exitDx=0;exitDy=0;" edge="1" parent="1" source="pTQUG1Ghc76PBxwxFb4u-20" target="pTQUG1Ghc76PBxwxFb4u-43">
          <mxGeometry relative="1" as="geometry" />
        </mxCell>
        <mxCell id="pTQUG1Ghc76PBxwxFb4u-241" value="No" style="edgeLabel;html=1;align=center;verticalAlign=middle;resizable=0;points=[];" connectable="0" vertex="1" parent="pTQUG1Ghc76PBxwxFb4u-240">
          <mxGeometry y="-1" relative="1" as="geometry">
            <mxPoint as="offset" />
          </mxGeometry>
        </mxCell>
        <mxCell id="pTQUG1Ghc76PBxwxFb4u-20" value="Search Mobile" style="rhombus;whiteSpace=wrap;html=1;" vertex="1" parent="1">
          <mxGeometry x="220" y="-280" width="80" height="80" as="geometry" />
        </mxCell>
        <mxCell id="6w2UU5s4e9gFLkW_FtQj-42" value="" style="edgeStyle=orthogonalEdgeStyle;rounded=0;orthogonalLoop=1;jettySize=auto;html=1;" edge="1" parent="1" source="pTQUG1Ghc76PBxwxFb4u-21" target="pTQUG1Ghc76PBxwxFb4u-31">
          <mxGeometry relative="1" as="geometry" />
        </mxCell>
        <mxCell id="pTQUG1Ghc76PBxwxFb4u-21" value="Display Search Menu" style="rounded=0;whiteSpace=wrap;html=1;" vertex="1" parent="1">
          <mxGeometry x="340" y="-270" width="120" height="60" as="geometry" />
        </mxCell>
        <mxCell id="pTQUG1Ghc76PBxwxFb4u-201" value="" style="edgeStyle=orthogonalEdgeStyle;rounded=0;orthogonalLoop=1;jettySize=auto;html=1;" edge="1" parent="1" source="pTQUG1Ghc76PBxwxFb4u-31" target="pTQUG1Ghc76PBxwxFb4u-32">
          <mxGeometry relative="1" as="geometry" />
        </mxCell>
        <mxCell id="pTQUG1Ghc76PBxwxFb4u-202" value="Yes" style="edgeLabel;html=1;align=center;verticalAlign=middle;resizable=0;points=[];" connectable="0" vertex="1" parent="pTQUG1Ghc76PBxwxFb4u-201">
          <mxGeometry x="-0.2" relative="1" as="geometry">
            <mxPoint as="offset" />
          </mxGeometry>
        </mxCell>
        <mxCell id="pTQUG1Ghc76PBxwxFb4u-226" style="edgeStyle=orthogonalEdgeStyle;rounded=0;orthogonalLoop=1;jettySize=auto;html=1;exitX=0.5;exitY=1;exitDx=0;exitDy=0;" edge="1" parent="1" source="pTQUG1Ghc76PBxwxFb4u-31">
          <mxGeometry relative="1" as="geometry">
            <mxPoint x="400" y="58" as="targetPoint" />
          </mxGeometry>
        </mxCell>
        <mxCell id="pTQUG1Ghc76PBxwxFb4u-227" value="No" style="edgeLabel;html=1;align=center;verticalAlign=middle;resizable=0;points=[];" connectable="0" vertex="1" parent="pTQUG1Ghc76PBxwxFb4u-226">
          <mxGeometry x="0.0099" y="2" relative="1" as="geometry">
            <mxPoint as="offset" />
          </mxGeometry>
        </mxCell>
        <mxCell id="pTQUG1Ghc76PBxwxFb4u-31" value="SearchBy&lt;br&gt;MobileName" style="rhombus;whiteSpace=wrap;html=1;" vertex="1" parent="1">
          <mxGeometry x="360" y="-171" width="80" height="80" as="geometry" />
        </mxCell>
        <mxCell id="pTQUG1Ghc76PBxwxFb4u-204" value="" style="edgeStyle=orthogonalEdgeStyle;rounded=0;orthogonalLoop=1;jettySize=auto;html=1;" edge="1" parent="1" source="pTQUG1Ghc76PBxwxFb4u-32" target="pTQUG1Ghc76PBxwxFb4u-33">
          <mxGeometry relative="1" as="geometry" />
        </mxCell>
        <mxCell id="pTQUG1Ghc76PBxwxFb4u-32" value="Ask Mobile Name" style="rounded=0;whiteSpace=wrap;html=1;" vertex="1" parent="1">
          <mxGeometry x="480" y="-161" width="120" height="60" as="geometry" />
        </mxCell>
        <mxCell id="pTQUG1Ghc76PBxwxFb4u-205" value="" style="edgeStyle=orthogonalEdgeStyle;rounded=0;orthogonalLoop=1;jettySize=auto;html=1;" edge="1" parent="1" source="pTQUG1Ghc76PBxwxFb4u-33" target="pTQUG1Ghc76PBxwxFb4u-34">
          <mxGeometry relative="1" as="geometry" />
        </mxCell>
        <mxCell id="pTQUG1Ghc76PBxwxFb4u-206" value="Yes" style="edgeLabel;html=1;align=center;verticalAlign=middle;resizable=0;points=[];" connectable="0" vertex="1" parent="pTQUG1Ghc76PBxwxFb4u-205">
          <mxGeometry x="0.28" relative="1" as="geometry">
            <mxPoint as="offset" />
          </mxGeometry>
        </mxCell>
        <mxCell id="pTQUG1Ghc76PBxwxFb4u-224" value="" style="edgeStyle=orthogonalEdgeStyle;rounded=0;orthogonalLoop=1;jettySize=auto;html=1;" edge="1" parent="1" source="pTQUG1Ghc76PBxwxFb4u-33" target="pTQUG1Ghc76PBxwxFb4u-222">
          <mxGeometry relative="1" as="geometry" />
        </mxCell>
        <mxCell id="pTQUG1Ghc76PBxwxFb4u-225" value="No" style="edgeLabel;html=1;align=center;verticalAlign=middle;resizable=0;points=[];" connectable="0" vertex="1" parent="pTQUG1Ghc76PBxwxFb4u-224">
          <mxGeometry x="-0.3" y="1" relative="1" as="geometry">
            <mxPoint as="offset" />
          </mxGeometry>
        </mxCell>
        <mxCell id="pTQUG1Ghc76PBxwxFb4u-33" value="Mobile Found?" style="rhombus;whiteSpace=wrap;html=1;" vertex="1" parent="1">
          <mxGeometry x="630" y="-171" width="80" height="80" as="geometry" />
        </mxCell>
        <mxCell id="pTQUG1Ghc76PBxwxFb4u-219" value="" style="edgeStyle=orthogonalEdgeStyle;rounded=0;orthogonalLoop=1;jettySize=auto;html=1;" edge="1" parent="1" source="pTQUG1Ghc76PBxwxFb4u-34" target="pTQUG1Ghc76PBxwxFb4u-213">
          <mxGeometry relative="1" as="geometry" />
        </mxCell>
        <mxCell id="pTQUG1Ghc76PBxwxFb4u-34" value="Display Search Results" style="rounded=0;whiteSpace=wrap;html=1;" vertex="1" parent="1">
          <mxGeometry x="740" y="-161" width="120" height="60" as="geometry" />
        </mxCell>
        <mxCell id="pTQUG1Ghc76PBxwxFb4u-228" value="" style="edgeStyle=orthogonalEdgeStyle;rounded=0;orthogonalLoop=1;jettySize=auto;html=1;" edge="1" parent="1" source="pTQUG1Ghc76PBxwxFb4u-39" target="pTQUG1Ghc76PBxwxFb4u-40">
          <mxGeometry relative="1" as="geometry" />
        </mxCell>
        <mxCell id="pTQUG1Ghc76PBxwxFb4u-229" value="Yes" style="edgeLabel;html=1;align=center;verticalAlign=middle;resizable=0;points=[];" connectable="0" vertex="1" parent="pTQUG1Ghc76PBxwxFb4u-228">
          <mxGeometry x="0.24" y="1" relative="1" as="geometry">
            <mxPoint as="offset" />
          </mxGeometry>
        </mxCell>
        <mxCell id="pTQUG1Ghc76PBxwxFb4u-243" style="edgeStyle=orthogonalEdgeStyle;rounded=0;orthogonalLoop=1;jettySize=auto;html=1;exitX=0.5;exitY=1;exitDx=0;exitDy=0;entryX=0.5;entryY=0;entryDx=0;entryDy=0;" edge="1" parent="1" source="pTQUG1Ghc76PBxwxFb4u-39" target="pTQUG1Ghc76PBxwxFb4u-242">
          <mxGeometry relative="1" as="geometry" />
        </mxCell>
        <mxCell id="pTQUG1Ghc76PBxwxFb4u-244" value="No" style="edgeLabel;html=1;align=center;verticalAlign=middle;resizable=0;points=[];" connectable="0" vertex="1" parent="pTQUG1Ghc76PBxwxFb4u-243">
          <mxGeometry x="0.0063" relative="1" as="geometry">
            <mxPoint as="offset" />
          </mxGeometry>
        </mxCell>
        <mxCell id="pTQUG1Ghc76PBxwxFb4u-39" value="SearchBy&lt;br&gt;Brand Name" style="rhombus;whiteSpace=wrap;html=1;" vertex="1" parent="1">
          <mxGeometry x="360" y="59" width="80" height="80" as="geometry" />
        </mxCell>
        <mxCell id="pTQUG1Ghc76PBxwxFb4u-231" value="" style="edgeStyle=orthogonalEdgeStyle;rounded=0;orthogonalLoop=1;jettySize=auto;html=1;" edge="1" parent="1" source="pTQUG1Ghc76PBxwxFb4u-40" target="pTQUG1Ghc76PBxwxFb4u-41">
          <mxGeometry relative="1" as="geometry" />
        </mxCell>
        <mxCell id="pTQUG1Ghc76PBxwxFb4u-40" value="Ask Brand Name" style="rounded=0;whiteSpace=wrap;html=1;" vertex="1" parent="1">
          <mxGeometry x="470" y="69" width="120" height="60" as="geometry" />
        </mxCell>
        <mxCell id="pTQUG1Ghc76PBxwxFb4u-232" value="" style="edgeStyle=orthogonalEdgeStyle;rounded=0;orthogonalLoop=1;jettySize=auto;html=1;" edge="1" parent="1" source="pTQUG1Ghc76PBxwxFb4u-41" target="pTQUG1Ghc76PBxwxFb4u-42">
          <mxGeometry relative="1" as="geometry" />
        </mxCell>
        <mxCell id="pTQUG1Ghc76PBxwxFb4u-233" value="Yes" style="edgeLabel;html=1;align=center;verticalAlign=middle;resizable=0;points=[];" connectable="0" vertex="1" parent="pTQUG1Ghc76PBxwxFb4u-232">
          <mxGeometry x="0.24" y="1" relative="1" as="geometry">
            <mxPoint as="offset" />
          </mxGeometry>
        </mxCell>
        <mxCell id="pTQUG1Ghc76PBxwxFb4u-235" value="" style="edgeStyle=orthogonalEdgeStyle;rounded=0;orthogonalLoop=1;jettySize=auto;html=1;" edge="1" parent="1" source="pTQUG1Ghc76PBxwxFb4u-41" target="pTQUG1Ghc76PBxwxFb4u-234">
          <mxGeometry relative="1" as="geometry" />
        </mxCell>
        <mxCell id="pTQUG1Ghc76PBxwxFb4u-236" value="No" style="edgeLabel;html=1;align=center;verticalAlign=middle;resizable=0;points=[];" connectable="0" vertex="1" parent="pTQUG1Ghc76PBxwxFb4u-235">
          <mxGeometry x="-0.35" relative="1" as="geometry">
            <mxPoint as="offset" />
          </mxGeometry>
        </mxCell>
        <mxCell id="pTQUG1Ghc76PBxwxFb4u-41" value="Mobile Found?" style="rhombus;whiteSpace=wrap;html=1;" vertex="1" parent="1">
          <mxGeometry x="620" y="59" width="80" height="80" as="geometry" />
        </mxCell>
        <mxCell id="pTQUG1Ghc76PBxwxFb4u-237" value="" style="edgeStyle=orthogonalEdgeStyle;rounded=0;orthogonalLoop=1;jettySize=auto;html=1;" edge="1" parent="1" source="pTQUG1Ghc76PBxwxFb4u-42" target="pTQUG1Ghc76PBxwxFb4u-216">
          <mxGeometry relative="1" as="geometry" />
        </mxCell>
        <mxCell id="pTQUG1Ghc76PBxwxFb4u-42" value="Display Search Results" style="rounded=0;whiteSpace=wrap;html=1;" vertex="1" parent="1">
          <mxGeometry x="730" y="69" width="120" height="60" as="geometry" />
        </mxCell>
        <mxCell id="pTQUG1Ghc76PBxwxFb4u-263" value="" style="edgeStyle=orthogonalEdgeStyle;rounded=0;orthogonalLoop=1;jettySize=auto;html=1;" edge="1" parent="1" source="pTQUG1Ghc76PBxwxFb4u-43">
          <mxGeometry relative="1" as="geometry">
            <mxPoint x="340" y="452" as="targetPoint" />
          </mxGeometry>
        </mxCell>
        <mxCell id="pTQUG1Ghc76PBxwxFb4u-407" style="edgeStyle=orthogonalEdgeStyle;rounded=0;orthogonalLoop=1;jettySize=auto;html=1;exitX=0.5;exitY=1;exitDx=0;exitDy=0;entryX=0.5;entryY=0;entryDx=0;entryDy=0;" edge="1" parent="1" source="pTQUG1Ghc76PBxwxFb4u-43" target="pTQUG1Ghc76PBxwxFb4u-401">
          <mxGeometry relative="1" as="geometry" />
        </mxCell>
        <mxCell id="pTQUG1Ghc76PBxwxFb4u-408" value="No" style="edgeLabel;html=1;align=center;verticalAlign=middle;resizable=0;points=[];" connectable="0" vertex="1" parent="pTQUG1Ghc76PBxwxFb4u-407">
          <mxGeometry x="-0.0007" relative="1" as="geometry">
            <mxPoint as="offset" />
          </mxGeometry>
        </mxCell>
        <mxCell id="pTQUG1Ghc76PBxwxFb4u-43" value="View Topsellers" style="rhombus;whiteSpace=wrap;html=1;" vertex="1" parent="1">
          <mxGeometry x="220" y="412" width="80" height="80" as="geometry" />
        </mxCell>
        <mxCell id="pTQUG1Ghc76PBxwxFb4u-230" value="" style="edgeStyle=orthogonalEdgeStyle;rounded=0;orthogonalLoop=1;jettySize=auto;html=1;" edge="1" parent="1" source="pTQUG1Ghc76PBxwxFb4u-50" target="pTQUG1Ghc76PBxwxFb4u-40">
          <mxGeometry relative="1" as="geometry" />
        </mxCell>
        <mxCell id="pTQUG1Ghc76PBxwxFb4u-50" value="Admin Input" style="html=1;strokeWidth=2;shape=manualInput;whiteSpace=wrap;rounded=1;size=26;arcSize=11;rotation=-90;" vertex="1" parent="1">
          <mxGeometry x="480" y="179" width="100" height="60" as="geometry" />
        </mxCell>
        <mxCell id="pTQUG1Ghc76PBxwxFb4u-203" value="" style="edgeStyle=orthogonalEdgeStyle;rounded=0;orthogonalLoop=1;jettySize=auto;html=1;" edge="1" parent="1" source="pTQUG1Ghc76PBxwxFb4u-51" target="pTQUG1Ghc76PBxwxFb4u-32">
          <mxGeometry relative="1" as="geometry" />
        </mxCell>
        <mxCell id="pTQUG1Ghc76PBxwxFb4u-51" value="Admin Input" style="html=1;strokeWidth=2;shape=manualInput;whiteSpace=wrap;rounded=1;size=26;arcSize=11;rotation=-90;" vertex="1" parent="1">
          <mxGeometry x="490" y="-51" width="100" height="60" as="geometry" />
        </mxCell>
        <mxCell id="pTQUG1Ghc76PBxwxFb4u-161" value="" style="ellipse;whiteSpace=wrap;html=1;aspect=fixed;fillColor=#f8cecc;strokeColor=#b85450;" vertex="1" parent="1">
          <mxGeometry x="606" y="-880" width="60" height="60" as="geometry" />
        </mxCell>
        <mxCell id="pTQUG1Ghc76PBxwxFb4u-168" value="" style="ellipse;whiteSpace=wrap;html=1;aspect=fixed;fillColor=#f8cecc;strokeColor=#b85450;" vertex="1" parent="1">
          <mxGeometry x="683" y="-660" width="60" height="60" as="geometry" />
        </mxCell>
        <mxCell id="pTQUG1Ghc76PBxwxFb4u-196" value="" style="edgeStyle=orthogonalEdgeStyle;rounded=0;orthogonalLoop=1;jettySize=auto;html=1;" edge="1" parent="1" source="pTQUG1Ghc76PBxwxFb4u-195" target="pTQUG1Ghc76PBxwxFb4u-21">
          <mxGeometry relative="1" as="geometry" />
        </mxCell>
        <mxCell id="pTQUG1Ghc76PBxwxFb4u-195" value="" style="ellipse;whiteSpace=wrap;html=1;aspect=fixed;fillColor=#d5e8d4;strokeColor=#82b366;" vertex="1" parent="1">
          <mxGeometry x="500" y="-270" width="60" height="60" as="geometry" />
        </mxCell>
        <mxCell id="pTQUG1Ghc76PBxwxFb4u-220" value="" style="edgeStyle=orthogonalEdgeStyle;rounded=0;orthogonalLoop=1;jettySize=auto;html=1;" edge="1" parent="1" source="pTQUG1Ghc76PBxwxFb4u-213" target="pTQUG1Ghc76PBxwxFb4u-215">
          <mxGeometry relative="1" as="geometry" />
        </mxCell>
        <mxCell id="pTQUG1Ghc76PBxwxFb4u-213" value="Enter Escape Character &amp;#39;x&amp;#39;" style="rounded=0;whiteSpace=wrap;html=1;" vertex="1" parent="1">
          <mxGeometry x="890" y="-161" width="120" height="60" as="geometry" />
        </mxCell>
        <mxCell id="pTQUG1Ghc76PBxwxFb4u-221" value="" style="edgeStyle=orthogonalEdgeStyle;rounded=0;orthogonalLoop=1;jettySize=auto;html=1;" edge="1" parent="1" source="pTQUG1Ghc76PBxwxFb4u-214" target="pTQUG1Ghc76PBxwxFb4u-213">
          <mxGeometry relative="1" as="geometry" />
        </mxCell>
        <mxCell id="pTQUG1Ghc76PBxwxFb4u-214" value="Admin Input" style="html=1;strokeWidth=2;shape=manualInput;whiteSpace=wrap;rounded=1;size=26;arcSize=11;rotation=-90;" vertex="1" parent="1">
          <mxGeometry x="900" y="-51" width="100" height="60" as="geometry" />
        </mxCell>
        <mxCell id="pTQUG1Ghc76PBxwxFb4u-215" value="" style="ellipse;whiteSpace=wrap;html=1;aspect=fixed;fillColor=#f8cecc;strokeColor=#b85450;" vertex="1" parent="1">
          <mxGeometry x="1040" y="-161" width="60" height="60" as="geometry" />
        </mxCell>
        <mxCell id="pTQUG1Ghc76PBxwxFb4u-239" value="" style="edgeStyle=orthogonalEdgeStyle;rounded=0;orthogonalLoop=1;jettySize=auto;html=1;" edge="1" parent="1" source="pTQUG1Ghc76PBxwxFb4u-216" target="pTQUG1Ghc76PBxwxFb4u-218">
          <mxGeometry relative="1" as="geometry" />
        </mxCell>
        <mxCell id="pTQUG1Ghc76PBxwxFb4u-216" value="Enter Escape Character &amp;#39;x&amp;#39;" style="rounded=0;whiteSpace=wrap;html=1;" vertex="1" parent="1">
          <mxGeometry x="880" y="69" width="120" height="60" as="geometry" />
        </mxCell>
        <mxCell id="pTQUG1Ghc76PBxwxFb4u-238" value="" style="edgeStyle=orthogonalEdgeStyle;rounded=0;orthogonalLoop=1;jettySize=auto;html=1;" edge="1" parent="1" source="pTQUG1Ghc76PBxwxFb4u-217" target="pTQUG1Ghc76PBxwxFb4u-216">
          <mxGeometry relative="1" as="geometry" />
        </mxCell>
        <mxCell id="pTQUG1Ghc76PBxwxFb4u-217" value="Admin Input" style="html=1;strokeWidth=2;shape=manualInput;whiteSpace=wrap;rounded=1;size=26;arcSize=11;rotation=-90;" vertex="1" parent="1">
          <mxGeometry x="890" y="179" width="100" height="60" as="geometry" />
        </mxCell>
        <mxCell id="pTQUG1Ghc76PBxwxFb4u-218" value="" style="ellipse;whiteSpace=wrap;html=1;aspect=fixed;fillColor=#f8cecc;strokeColor=#b85450;" vertex="1" parent="1">
          <mxGeometry x="1030" y="69" width="60" height="60" as="geometry" />
        </mxCell>
        <mxCell id="pTQUG1Ghc76PBxwxFb4u-222" value="" style="ellipse;whiteSpace=wrap;html=1;aspect=fixed;fillColor=#d5e8d4;strokeColor=#82b366;" vertex="1" parent="1">
          <mxGeometry x="640" y="-51" width="60" height="60" as="geometry" />
        </mxCell>
        <mxCell id="pTQUG1Ghc76PBxwxFb4u-234" value="" style="ellipse;whiteSpace=wrap;html=1;aspect=fixed;fillColor=#d5e8d4;strokeColor=#82b366;" vertex="1" parent="1">
          <mxGeometry x="630" y="179" width="60" height="60" as="geometry" />
        </mxCell>
        <mxCell id="pTQUG1Ghc76PBxwxFb4u-246" value="" style="edgeStyle=orthogonalEdgeStyle;rounded=0;orthogonalLoop=1;jettySize=auto;html=1;" edge="1" parent="1" source="pTQUG1Ghc76PBxwxFb4u-242">
          <mxGeometry relative="1" as="geometry">
            <mxPoint x="510" y="338" as="targetPoint" />
          </mxGeometry>
        </mxCell>
        <mxCell id="pTQUG1Ghc76PBxwxFb4u-247" value="Yes" style="edgeLabel;html=1;align=center;verticalAlign=middle;resizable=0;points=[];" connectable="0" vertex="1" parent="pTQUG1Ghc76PBxwxFb4u-246">
          <mxGeometry x="-0.1143" y="-2" relative="1" as="geometry">
            <mxPoint as="offset" />
          </mxGeometry>
        </mxCell>
        <mxCell id="pTQUG1Ghc76PBxwxFb4u-242" value="Exit" style="rhombus;whiteSpace=wrap;html=1;" vertex="1" parent="1">
          <mxGeometry x="360" y="298" width="80" height="80" as="geometry" />
        </mxCell>
        <mxCell id="pTQUG1Ghc76PBxwxFb4u-267" value="" style="ellipse;whiteSpace=wrap;html=1;aspect=fixed;fillColor=#f8cecc;strokeColor=#b85450;" vertex="1" parent="1">
          <mxGeometry x="510" y="308" width="60" height="60" as="geometry" />
        </mxCell>
        <mxCell id="pTQUG1Ghc76PBxwxFb4u-272" value="" style="edgeStyle=orthogonalEdgeStyle;rounded=0;orthogonalLoop=1;jettySize=auto;html=1;" edge="1" parent="1">
          <mxGeometry relative="1" as="geometry">
            <mxPoint x="500" y="420" as="sourcePoint" />
          </mxGeometry>
        </mxCell>
        <mxCell id="pTQUG1Ghc76PBxwxFb4u-404" value="" style="edgeStyle=orthogonalEdgeStyle;rounded=0;orthogonalLoop=1;jettySize=auto;html=1;" edge="1" parent="1" source="pTQUG1Ghc76PBxwxFb4u-401">
          <mxGeometry relative="1" as="geometry">
            <mxPoint x="380" y="706" as="targetPoint" />
          </mxGeometry>
        </mxCell>
        <mxCell id="pTQUG1Ghc76PBxwxFb4u-405" value="Yes" style="edgeLabel;html=1;align=center;verticalAlign=middle;resizable=0;points=[];" connectable="0" vertex="1" parent="pTQUG1Ghc76PBxwxFb4u-404">
          <mxGeometry x="0.0022" relative="1" as="geometry">
            <mxPoint as="offset" />
          </mxGeometry>
        </mxCell>
        <mxCell id="pTQUG1Ghc76PBxwxFb4u-401" value="Exit" style="rhombus;whiteSpace=wrap;html=1;" vertex="1" parent="1">
          <mxGeometry x="220" y="666" width="80" height="80" as="geometry" />
        </mxCell>
        <mxCell id="UEVvyanDMkskNJ13igXU-1" value="" style="ellipse;whiteSpace=wrap;html=1;aspect=fixed;fillColor=#f8cecc;strokeColor=#b85450;" vertex="1" parent="1">
          <mxGeometry x="856" y="-980" width="60" height="60" as="geometry" />
        </mxCell>
        <mxCell id="UEVvyanDMkskNJ13igXU-2" value="Main Page" style="text;html=1;align=center;verticalAlign=middle;resizable=0;points=[];autosize=1;strokeColor=none;fillColor=none;" vertex="1" parent="1">
          <mxGeometry x="846" y="-920" width="80" height="30" as="geometry" />
        </mxCell>
        <mxCell id="UEVvyanDMkskNJ13igXU-4" value="Main Page" style="text;html=1;align=center;verticalAlign=middle;resizable=0;points=[];autosize=1;strokeColor=none;fillColor=none;" vertex="1" parent="1">
          <mxGeometry x="1020" y="129" width="80" height="30" as="geometry" />
        </mxCell>
        <mxCell id="UEVvyanDMkskNJ13igXU-6" value="Main Page" style="text;html=1;align=center;verticalAlign=middle;resizable=0;points=[];autosize=1;strokeColor=none;fillColor=none;" vertex="1" parent="1">
          <mxGeometry x="1030" y="-101" width="80" height="30" as="geometry" />
        </mxCell>
        <mxCell id="UEVvyanDMkskNJ13igXU-8" value="Main Page" style="text;html=1;align=center;verticalAlign=middle;resizable=0;points=[];autosize=1;strokeColor=none;fillColor=none;" vertex="1" parent="1">
          <mxGeometry x="500" y="368" width="80" height="30" as="geometry" />
        </mxCell>
        <mxCell id="UEVvyanDMkskNJ13igXU-16" value="Main Page" style="text;html=1;align=center;verticalAlign=middle;resizable=0;points=[];autosize=1;strokeColor=none;fillColor=none;" vertex="1" parent="1">
          <mxGeometry x="596" y="-820" width="80" height="30" as="geometry" />
        </mxCell>
        <mxCell id="UEVvyanDMkskNJ13igXU-18" value="Main Page" style="text;html=1;align=center;verticalAlign=middle;resizable=0;points=[];autosize=1;strokeColor=none;fillColor=none;" vertex="1" parent="1">
          <mxGeometry x="673" y="-600" width="80" height="30" as="geometry" />
        </mxCell>
        <mxCell id="c0E75QWJThMKzJKBjqS4-2" value="Search Menu" style="text;html=1;align=center;verticalAlign=middle;resizable=0;points=[];autosize=1;strokeColor=none;fillColor=none;" vertex="1" parent="1">
          <mxGeometry x="485" y="-211" width="90" height="30" as="geometry" />
        </mxCell>
        <mxCell id="c0E75QWJThMKzJKBjqS4-6" value="Search Menu" style="text;html=1;align=center;verticalAlign=middle;resizable=0;points=[];autosize=1;strokeColor=none;fillColor=none;" vertex="1" parent="1">
          <mxGeometry x="625" y="8" width="90" height="30" as="geometry" />
        </mxCell>
        <mxCell id="c0E75QWJThMKzJKBjqS4-8" value="Search Menu" style="text;html=1;align=center;verticalAlign=middle;resizable=0;points=[];autosize=1;strokeColor=none;fillColor=none;" vertex="1" parent="1">
          <mxGeometry x="615" y="238" width="90" height="30" as="geometry" />
        </mxCell>
        <mxCell id="VGX6oSrI3HgT6T0f6mAT-1" value="" style="edgeStyle=orthogonalEdgeStyle;rounded=0;orthogonalLoop=1;jettySize=auto;html=1;" edge="1" parent="1" source="VGX6oSrI3HgT6T0f6mAT-2" target="VGX6oSrI3HgT6T0f6mAT-5">
          <mxGeometry relative="1" as="geometry" />
        </mxCell>
        <mxCell id="VGX6oSrI3HgT6T0f6mAT-2" value="Start" style="html=1;dashed=0;whiteSpace=wrap;shape=mxgraph.dfd.start" vertex="1" parent="1">
          <mxGeometry x="220" y="-1620" width="80" height="42" as="geometry" />
        </mxCell>
        <mxCell id="VGX6oSrI3HgT6T0f6mAT-16" value="" style="edgeStyle=orthogonalEdgeStyle;rounded=0;orthogonalLoop=1;jettySize=auto;html=1;" edge="1" parent="1" source="VGX6oSrI3HgT6T0f6mAT-3" target="pTQUG1Ghc76PBxwxFb4u-1">
          <mxGeometry relative="1" as="geometry" />
        </mxCell>
        <mxCell id="VGX6oSrI3HgT6T0f6mAT-3" value="Display Topsellers" style="rounded=0;whiteSpace=wrap;html=1;" vertex="1" parent="1">
          <mxGeometry x="200" y="-1189" width="120" height="60" as="geometry" />
        </mxCell>
        <mxCell id="VGX6oSrI3HgT6T0f6mAT-4" style="edgeStyle=orthogonalEdgeStyle;rounded=0;orthogonalLoop=1;jettySize=auto;html=1;exitX=0.5;exitY=1;exitDx=0;exitDy=0;entryX=0.5;entryY=0;entryDx=0;entryDy=0;" edge="1" parent="1" source="VGX6oSrI3HgT6T0f6mAT-5" target="VGX6oSrI3HgT6T0f6mAT-10">
          <mxGeometry relative="1" as="geometry" />
        </mxCell>
        <mxCell id="VGX6oSrI3HgT6T0f6mAT-5" value="Enter Admin Credential" style="rounded=0;whiteSpace=wrap;html=1;" vertex="1" parent="1">
          <mxGeometry x="200" y="-1530" width="120" height="72" as="geometry" />
        </mxCell>
        <mxCell id="VGX6oSrI3HgT6T0f6mAT-6" style="edgeStyle=orthogonalEdgeStyle;rounded=0;orthogonalLoop=1;jettySize=auto;html=1;exitX=0.5;exitY=1;exitDx=0;exitDy=0;entryX=0.5;entryY=0;entryDx=0;entryDy=0;" edge="1" parent="1" source="VGX6oSrI3HgT6T0f6mAT-10" target="VGX6oSrI3HgT6T0f6mAT-12">
          <mxGeometry relative="1" as="geometry" />
        </mxCell>
        <mxCell id="VGX6oSrI3HgT6T0f6mAT-7" value="Yes" style="edgeLabel;html=1;align=center;verticalAlign=middle;resizable=0;points=[];" connectable="0" vertex="1" parent="VGX6oSrI3HgT6T0f6mAT-6">
          <mxGeometry x="-0.2709" y="-1" relative="1" as="geometry">
            <mxPoint as="offset" />
          </mxGeometry>
        </mxCell>
        <mxCell id="VGX6oSrI3HgT6T0f6mAT-8" style="edgeStyle=orthogonalEdgeStyle;rounded=0;orthogonalLoop=1;jettySize=auto;html=1;exitX=1;exitY=0.5;exitDx=0;exitDy=0;entryX=1;entryY=0.5;entryDx=0;entryDy=0;" edge="1" parent="1" source="VGX6oSrI3HgT6T0f6mAT-10" target="VGX6oSrI3HgT6T0f6mAT-5">
          <mxGeometry relative="1" as="geometry">
            <Array as="points">
              <mxPoint x="410" y="-1384" />
              <mxPoint x="410" y="-1494" />
            </Array>
          </mxGeometry>
        </mxCell>
        <mxCell id="VGX6oSrI3HgT6T0f6mAT-9" value="No" style="edgeLabel;html=1;align=center;verticalAlign=middle;resizable=0;points=[];" connectable="0" vertex="1" parent="VGX6oSrI3HgT6T0f6mAT-8">
          <mxGeometry x="0.0852" y="-6" relative="1" as="geometry">
            <mxPoint y="1" as="offset" />
          </mxGeometry>
        </mxCell>
        <mxCell id="VGX6oSrI3HgT6T0f6mAT-10" value="Valdid&amp;nbsp;&lt;br&gt;Credentials?" style="rhombus;whiteSpace=wrap;html=1;" vertex="1" parent="1">
          <mxGeometry x="221" y="-1430" width="80" height="92" as="geometry" />
        </mxCell>
        <mxCell id="VGX6oSrI3HgT6T0f6mAT-11" value="" style="edgeStyle=orthogonalEdgeStyle;rounded=0;orthogonalLoop=1;jettySize=auto;html=1;" edge="1" parent="1" source="VGX6oSrI3HgT6T0f6mAT-12" target="VGX6oSrI3HgT6T0f6mAT-3">
          <mxGeometry relative="1" as="geometry" />
        </mxCell>
        <mxCell id="VGX6oSrI3HgT6T0f6mAT-12" value="Display Welcome Page" style="rounded=0;whiteSpace=wrap;html=1;" vertex="1" parent="1">
          <mxGeometry x="200" y="-1305" width="120" height="72" as="geometry" />
        </mxCell>
        <mxCell id="VGX6oSrI3HgT6T0f6mAT-24" value="" style="ellipse;whiteSpace=wrap;html=1;aspect=fixed;fillColor=#f8cecc;strokeColor=#b85450;" vertex="1" parent="1">
          <mxGeometry x="1110" y="-770" width="60" height="60" as="geometry" />
        </mxCell>
        <mxCell id="BgerLeH3yWuYo9dpGIqB-15" value="" style="edgeStyle=orthogonalEdgeStyle;rounded=0;orthogonalLoop=1;jettySize=auto;html=1;" edge="1" parent="1" source="BgerLeH3yWuYo9dpGIqB-16" target="BgerLeH3yWuYo9dpGIqB-23">
          <mxGeometry relative="1" as="geometry" />
        </mxCell>
        <mxCell id="BgerLeH3yWuYo9dpGIqB-16" value="Ask MobileID&amp;nbsp;" style="rounded=0;whiteSpace=wrap;html=1;" vertex="1" parent="1">
          <mxGeometry x="1007" y="-520" width="120" height="60" as="geometry" />
        </mxCell>
        <mxCell id="BgerLeH3yWuYo9dpGIqB-17" value="" style="edgeStyle=orthogonalEdgeStyle;rounded=0;orthogonalLoop=1;jettySize=auto;html=1;" edge="1" parent="1" source="BgerLeH3yWuYo9dpGIqB-18" target="BgerLeH3yWuYo9dpGIqB-16">
          <mxGeometry relative="1" as="geometry" />
        </mxCell>
        <mxCell id="BgerLeH3yWuYo9dpGIqB-18" value="Admin Input" style="html=1;strokeWidth=2;shape=manualInput;whiteSpace=wrap;rounded=1;size=26;arcSize=11;rotation=-90;" vertex="1" parent="1">
          <mxGeometry x="1017" y="-410" width="100" height="60" as="geometry" />
        </mxCell>
        <mxCell id="BgerLeH3yWuYo9dpGIqB-19" value="" style="edgeStyle=orthogonalEdgeStyle;rounded=0;orthogonalLoop=1;jettySize=auto;html=1;" edge="1" parent="1" source="BgerLeH3yWuYo9dpGIqB-23" target="BgerLeH3yWuYo9dpGIqB-27">
          <mxGeometry relative="1" as="geometry" />
        </mxCell>
        <mxCell id="BgerLeH3yWuYo9dpGIqB-20" value="No" style="edgeLabel;html=1;align=center;verticalAlign=middle;resizable=0;points=[];" connectable="0" vertex="1" parent="BgerLeH3yWuYo9dpGIqB-19">
          <mxGeometry x="0.2593" relative="1" as="geometry">
            <mxPoint as="offset" />
          </mxGeometry>
        </mxCell>
        <mxCell id="BgerLeH3yWuYo9dpGIqB-21" value="" style="edgeStyle=orthogonalEdgeStyle;rounded=0;orthogonalLoop=1;jettySize=auto;html=1;" edge="1" parent="1" source="BgerLeH3yWuYo9dpGIqB-23" target="BgerLeH3yWuYo9dpGIqB-26">
          <mxGeometry relative="1" as="geometry" />
        </mxCell>
        <mxCell id="BgerLeH3yWuYo9dpGIqB-22" value="Yes" style="edgeLabel;html=1;align=center;verticalAlign=middle;resizable=0;points=[];" connectable="0" vertex="1" parent="BgerLeH3yWuYo9dpGIqB-21">
          <mxGeometry x="0.1445" y="2" relative="1" as="geometry">
            <mxPoint as="offset" />
          </mxGeometry>
        </mxCell>
        <mxCell id="BgerLeH3yWuYo9dpGIqB-23" value="ID Found?" style="rhombus;whiteSpace=wrap;html=1;" vertex="1" parent="1">
          <mxGeometry x="1177" y="-530" width="80" height="80" as="geometry" />
        </mxCell>
        <mxCell id="BgerLeH3yWuYo9dpGIqB-24" value="" style="edgeStyle=orthogonalEdgeStyle;rounded=0;orthogonalLoop=1;jettySize=auto;html=1;" edge="1" parent="1" source="BgerLeH3yWuYo9dpGIqB-26" target="BgerLeH3yWuYo9dpGIqB-29">
          <mxGeometry relative="1" as="geometry" />
        </mxCell>
        <mxCell id="BgerLeH3yWuYo9dpGIqB-25" value="Yes" style="edgeLabel;html=1;align=center;verticalAlign=middle;resizable=0;points=[];" connectable="0" vertex="1" parent="BgerLeH3yWuYo9dpGIqB-24">
          <mxGeometry x="0.6659" y="-1" relative="1" as="geometry">
            <mxPoint as="offset" />
          </mxGeometry>
        </mxCell>
        <mxCell id="XCf4woBne53msBydUeh0-6" value="Yes" style="edgeLabel;html=1;align=center;verticalAlign=middle;resizable=0;points=[];" connectable="0" vertex="1" parent="BgerLeH3yWuYo9dpGIqB-24">
          <mxGeometry x="0.8431" y="-3" relative="1" as="geometry">
            <mxPoint x="-1" as="offset" />
          </mxGeometry>
        </mxCell>
        <mxCell id="BgerLeH3yWuYo9dpGIqB-26" value="Update Operation" style="rounded=0;whiteSpace=wrap;html=1;" vertex="1" parent="1">
          <mxGeometry x="1287" y="-520" width="120" height="60" as="geometry" />
        </mxCell>
        <mxCell id="BgerLeH3yWuYo9dpGIqB-27" value="" style="ellipse;whiteSpace=wrap;html=1;aspect=fixed;fillColor=#f8cecc;strokeColor=#b85450;" vertex="1" parent="1">
          <mxGeometry x="1187" y="-410" width="60" height="60" as="geometry" />
        </mxCell>
        <mxCell id="BgerLeH3yWuYo9dpGIqB-28" value="Main Page" style="text;html=1;align=center;verticalAlign=middle;resizable=0;points=[];autosize=1;strokeColor=none;fillColor=none;" vertex="1" parent="1">
          <mxGeometry x="1178" y="-350" width="80" height="30" as="geometry" />
        </mxCell>
        <mxCell id="BgerLeH3yWuYo9dpGIqB-29" value="" style="ellipse;whiteSpace=wrap;html=1;aspect=fixed;fillColor=#f8cecc;strokeColor=#b85450;" vertex="1" parent="1">
          <mxGeometry x="1705" y="-520" width="60" height="60" as="geometry" />
        </mxCell>
        <mxCell id="BgerLeH3yWuYo9dpGIqB-30" value="Main Page" style="text;html=1;align=center;verticalAlign=middle;resizable=0;points=[];autosize=1;strokeColor=none;fillColor=none;" vertex="1" parent="1">
          <mxGeometry x="1695" y="-460" width="80" height="30" as="geometry" />
        </mxCell>
        <mxCell id="BgerLeH3yWuYo9dpGIqB-34" value="" style="edgeStyle=orthogonalEdgeStyle;rounded=0;orthogonalLoop=1;jettySize=auto;html=1;" edge="1" parent="1" source="BgerLeH3yWuYo9dpGIqB-36" target="BgerLeH3yWuYo9dpGIqB-37">
          <mxGeometry relative="1" as="geometry" />
        </mxCell>
        <mxCell id="BgerLeH3yWuYo9dpGIqB-35" value="No" style="edgeLabel;html=1;align=center;verticalAlign=middle;resizable=0;points=[];" connectable="0" vertex="1" parent="BgerLeH3yWuYo9dpGIqB-34">
          <mxGeometry x="0.4444" y="2" relative="1" as="geometry">
            <mxPoint as="offset" />
          </mxGeometry>
        </mxCell>
        <mxCell id="BgerLeH3yWuYo9dpGIqB-36" value="Confirm?" style="rhombus;whiteSpace=wrap;html=1;" vertex="1" parent="1">
          <mxGeometry x="1585" y="-530" width="80" height="80" as="geometry" />
        </mxCell>
        <mxCell id="BgerLeH3yWuYo9dpGIqB-37" value="" style="ellipse;whiteSpace=wrap;html=1;aspect=fixed;fillColor=#f8cecc;strokeColor=#b85450;" vertex="1" parent="1">
          <mxGeometry x="1595" y="-410" width="60" height="60" as="geometry" />
        </mxCell>
        <mxCell id="BgerLeH3yWuYo9dpGIqB-38" value="Main Page" style="text;html=1;align=center;verticalAlign=middle;resizable=0;points=[];autosize=1;strokeColor=none;fillColor=none;" vertex="1" parent="1">
          <mxGeometry x="1585" y="-350" width="80" height="30" as="geometry" />
        </mxCell>
        <mxCell id="BgerLeH3yWuYo9dpGIqB-45" value="" style="edgeStyle=orthogonalEdgeStyle;rounded=0;orthogonalLoop=1;jettySize=auto;html=1;" edge="1" parent="1" source="BgerLeH3yWuYo9dpGIqB-41" target="BgerLeH3yWuYo9dpGIqB-43">
          <mxGeometry relative="1" as="geometry" />
        </mxCell>
        <mxCell id="BgerLeH3yWuYo9dpGIqB-46" value="Yes" style="edgeLabel;html=1;align=center;verticalAlign=middle;resizable=0;points=[];" connectable="0" vertex="1" parent="BgerLeH3yWuYo9dpGIqB-45">
          <mxGeometry x="0.0521" relative="1" as="geometry">
            <mxPoint as="offset" />
          </mxGeometry>
        </mxCell>
        <mxCell id="BgerLeH3yWuYo9dpGIqB-52" value="" style="edgeStyle=orthogonalEdgeStyle;rounded=0;orthogonalLoop=1;jettySize=auto;html=1;" edge="1" parent="1" source="BgerLeH3yWuYo9dpGIqB-41" target="BgerLeH3yWuYo9dpGIqB-47">
          <mxGeometry relative="1" as="geometry" />
        </mxCell>
        <mxCell id="BgerLeH3yWuYo9dpGIqB-54" value="No" style="edgeLabel;html=1;align=center;verticalAlign=middle;resizable=0;points=[];" connectable="0" vertex="1" parent="BgerLeH3yWuYo9dpGIqB-52">
          <mxGeometry x="-0.0682" relative="1" as="geometry">
            <mxPoint as="offset" />
          </mxGeometry>
        </mxCell>
        <mxCell id="BgerLeH3yWuYo9dpGIqB-41" value="Confirm?" style="rhombus;whiteSpace=wrap;html=1;" vertex="1" parent="1">
          <mxGeometry x="385" y="666" width="80" height="80" as="geometry" />
        </mxCell>
        <mxCell id="BgerLeH3yWuYo9dpGIqB-42" value="" style="edgeStyle=orthogonalEdgeStyle;rounded=0;orthogonalLoop=1;jettySize=auto;html=1;" edge="1" parent="1" source="BgerLeH3yWuYo9dpGIqB-43" target="BgerLeH3yWuYo9dpGIqB-44">
          <mxGeometry relative="1" as="geometry" />
        </mxCell>
        <mxCell id="BgerLeH3yWuYo9dpGIqB-43" value="Exit From Program" style="rounded=0;whiteSpace=wrap;html=1;" vertex="1" parent="1">
          <mxGeometry x="500" y="676" width="120" height="60" as="geometry" />
        </mxCell>
        <mxCell id="BgerLeH3yWuYo9dpGIqB-44" value="End" style="html=1;dashed=0;whiteSpace=wrap;shape=mxgraph.dfd.start" vertex="1" parent="1">
          <mxGeometry x="520" y="790" width="80" height="30" as="geometry" />
        </mxCell>
        <mxCell id="BgerLeH3yWuYo9dpGIqB-47" value="" style="ellipse;whiteSpace=wrap;html=1;aspect=fixed;fillColor=#f8cecc;strokeColor=#b85450;" vertex="1" parent="1">
          <mxGeometry x="395" y="790" width="60" height="60" as="geometry" />
        </mxCell>
        <mxCell id="BgerLeH3yWuYo9dpGIqB-48" value="Main Page" style="text;html=1;align=center;verticalAlign=middle;resizable=0;points=[];autosize=1;strokeColor=none;fillColor=none;" vertex="1" parent="1">
          <mxGeometry x="385" y="850" width="80" height="30" as="geometry" />
        </mxCell>
        <mxCell id="BgerLeH3yWuYo9dpGIqB-56" value="" style="edgeStyle=orthogonalEdgeStyle;rounded=0;orthogonalLoop=1;jettySize=auto;html=1;" edge="1" parent="1" source="BgerLeH3yWuYo9dpGIqB-55" target="VGX6oSrI3HgT6T0f6mAT-5">
          <mxGeometry relative="1" as="geometry" />
        </mxCell>
        <mxCell id="BgerLeH3yWuYo9dpGIqB-55" value="Admin Input" style="html=1;strokeWidth=2;shape=manualInput;whiteSpace=wrap;rounded=1;size=26;arcSize=11;" vertex="1" parent="1">
          <mxGeometry x="30" y="-1524" width="100" height="60" as="geometry" />
        </mxCell>
        <mxCell id="6w2UU5s4e9gFLkW_FtQj-4" value="" style="edgeStyle=orthogonalEdgeStyle;rounded=0;orthogonalLoop=1;jettySize=auto;html=1;" edge="1" parent="1" source="ZNuayRjtFrARlQCd9C93-3" target="pTQUG1Ghc76PBxwxFb4u-9">
          <mxGeometry relative="1" as="geometry" />
        </mxCell>
        <mxCell id="ZNuayRjtFrARlQCd9C93-3" value="Display Outdated Mobiles" style="rounded=0;whiteSpace=wrap;html=1;" vertex="1" parent="1">
          <mxGeometry x="340" y="-770" width="120" height="60" as="geometry" />
        </mxCell>
        <mxCell id="6w2UU5s4e9gFLkW_FtQj-14" value="" style="edgeStyle=orthogonalEdgeStyle;rounded=0;orthogonalLoop=1;jettySize=auto;html=1;" edge="1" parent="1" source="ZNuayRjtFrARlQCd9C93-11" target="6w2UU5s4e9gFLkW_FtQj-5">
          <mxGeometry relative="1" as="geometry" />
        </mxCell>
        <mxCell id="ZNuayRjtFrARlQCd9C93-11" value="Enter Mobile or Brand Name" style="rounded=0;whiteSpace=wrap;html=1;" vertex="1" parent="1">
          <mxGeometry x="370" y="-520" width="120" height="60" as="geometry" />
        </mxCell>
        <mxCell id="ZNuayRjtFrARlQCd9C93-12" value="" style="edgeStyle=orthogonalEdgeStyle;rounded=0;orthogonalLoop=1;jettySize=auto;html=1;" edge="1" parent="1" source="ZNuayRjtFrARlQCd9C93-13" target="ZNuayRjtFrARlQCd9C93-11">
          <mxGeometry relative="1" as="geometry" />
        </mxCell>
        <mxCell id="ZNuayRjtFrARlQCd9C93-13" value="Admin Input" style="html=1;strokeWidth=2;shape=manualInput;whiteSpace=wrap;rounded=1;size=26;arcSize=11;rotation=-90;" vertex="1" parent="1">
          <mxGeometry x="380" y="-410" width="100" height="60" as="geometry" />
        </mxCell>
        <mxCell id="6w2UU5s4e9gFLkW_FtQj-1" value="Username&lt;br&gt;Password" style="text;html=1;align=center;verticalAlign=middle;resizable=0;points=[];autosize=1;strokeColor=#666666;fillColor=#f5f5f5;fontColor=#333333;" vertex="1" parent="1">
          <mxGeometry x="40" y="-1560" width="80" height="40" as="geometry" />
        </mxCell>
        <mxCell id="6w2UU5s4e9gFLkW_FtQj-2" value="Mobile Name&lt;br&gt;Brand Name&lt;br&gt;Configurations(RAM,Storage,&lt;br&gt;Chipset,Camera)&lt;br&gt;Price&lt;br&gt;Discounts&lt;br&gt;Display_flag&lt;br&gt;Quantity" style="text;html=1;align=center;verticalAlign=middle;resizable=0;points=[];autosize=1;strokeColor=#666666;fillColor=#f5f5f5;fontColor=#333333;" vertex="1" parent="1">
          <mxGeometry x="380" y="-920" width="180" height="130" as="geometry" />
        </mxCell>
        <mxCell id="6w2UU5s4e9gFLkW_FtQj-23" value="" style="edgeStyle=orthogonalEdgeStyle;rounded=0;orthogonalLoop=1;jettySize=auto;html=1;" edge="1" parent="1" source="6w2UU5s4e9gFLkW_FtQj-5" target="6w2UU5s4e9gFLkW_FtQj-19">
          <mxGeometry relative="1" as="geometry" />
        </mxCell>
        <mxCell id="6w2UU5s4e9gFLkW_FtQj-5" value="Search Operation" style="rounded=0;whiteSpace=wrap;html=1;" vertex="1" parent="1">
          <mxGeometry x="553" y="-520" width="120" height="60" as="geometry" />
        </mxCell>
        <mxCell id="6w2UU5s4e9gFLkW_FtQj-15" value="" style="edgeStyle=orthogonalEdgeStyle;rounded=0;orthogonalLoop=1;jettySize=auto;html=1;" edge="1" parent="1" source="6w2UU5s4e9gFLkW_FtQj-19" target="6w2UU5s4e9gFLkW_FtQj-20">
          <mxGeometry relative="1" as="geometry" />
        </mxCell>
        <mxCell id="6w2UU5s4e9gFLkW_FtQj-16" value="Yes" style="edgeLabel;html=1;align=center;verticalAlign=middle;resizable=0;points=[];" connectable="0" vertex="1" parent="6w2UU5s4e9gFLkW_FtQj-15">
          <mxGeometry x="0.24" y="-3" relative="1" as="geometry">
            <mxPoint as="offset" />
          </mxGeometry>
        </mxCell>
        <mxCell id="6w2UU5s4e9gFLkW_FtQj-24" style="edgeStyle=orthogonalEdgeStyle;rounded=0;orthogonalLoop=1;jettySize=auto;html=1;exitX=0.5;exitY=0;exitDx=0;exitDy=0;entryX=0.558;entryY=-0.067;entryDx=0;entryDy=0;entryPerimeter=0;" edge="1" parent="1" source="6w2UU5s4e9gFLkW_FtQj-19" target="ZNuayRjtFrARlQCd9C93-11">
          <mxGeometry relative="1" as="geometry">
            <mxPoint x="440" y="-570" as="targetPoint" />
            <Array as="points">
              <mxPoint x="775" y="-560" />
              <mxPoint x="437" y="-560" />
            </Array>
          </mxGeometry>
        </mxCell>
        <mxCell id="6w2UU5s4e9gFLkW_FtQj-26" value="No" style="edgeLabel;html=1;align=center;verticalAlign=middle;resizable=0;points=[];" connectable="0" vertex="1" parent="6w2UU5s4e9gFLkW_FtQj-24">
          <mxGeometry x="-0.0198" relative="1" as="geometry">
            <mxPoint as="offset" />
          </mxGeometry>
        </mxCell>
        <mxCell id="6w2UU5s4e9gFLkW_FtQj-19" value="Mobile Found?" style="rhombus;whiteSpace=wrap;html=1;" vertex="1" parent="1">
          <mxGeometry x="735" y="-530" width="80" height="80" as="geometry" />
        </mxCell>
        <mxCell id="6w2UU5s4e9gFLkW_FtQj-27" value="" style="edgeStyle=orthogonalEdgeStyle;rounded=0;orthogonalLoop=1;jettySize=auto;html=1;" edge="1" parent="1" source="6w2UU5s4e9gFLkW_FtQj-20" target="BgerLeH3yWuYo9dpGIqB-16">
          <mxGeometry relative="1" as="geometry" />
        </mxCell>
        <mxCell id="6w2UU5s4e9gFLkW_FtQj-20" value="Display Search Results" style="rounded=0;whiteSpace=wrap;html=1;" vertex="1" parent="1">
          <mxGeometry x="845" y="-520" width="120" height="60" as="geometry" />
        </mxCell>
        <mxCell id="6w2UU5s4e9gFLkW_FtQj-28" value="" style="edgeStyle=orthogonalEdgeStyle;rounded=0;orthogonalLoop=1;jettySize=auto;html=1;" edge="1" parent="1" source="6w2UU5s4e9gFLkW_FtQj-30" target="6w2UU5s4e9gFLkW_FtQj-31">
          <mxGeometry relative="1" as="geometry" />
        </mxCell>
        <mxCell id="6w2UU5s4e9gFLkW_FtQj-29" value="No" style="edgeLabel;html=1;align=center;verticalAlign=middle;resizable=0;points=[];" connectable="0" vertex="1" parent="6w2UU5s4e9gFLkW_FtQj-28">
          <mxGeometry x="0.4444" y="2" relative="1" as="geometry">
            <mxPoint as="offset" />
          </mxGeometry>
        </mxCell>
        <mxCell id="6w2UU5s4e9gFLkW_FtQj-30" value="Confirm?" style="rhombus;whiteSpace=wrap;html=1;" vertex="1" parent="1">
          <mxGeometry x="805" y="-780" width="80" height="80" as="geometry" />
        </mxCell>
        <mxCell id="6w2UU5s4e9gFLkW_FtQj-31" value="" style="ellipse;whiteSpace=wrap;html=1;aspect=fixed;fillColor=#f8cecc;strokeColor=#b85450;" vertex="1" parent="1">
          <mxGeometry x="815" y="-660" width="60" height="60" as="geometry" />
        </mxCell>
        <mxCell id="6w2UU5s4e9gFLkW_FtQj-32" value="Main Page" style="text;html=1;align=center;verticalAlign=middle;resizable=0;points=[];autosize=1;strokeColor=none;fillColor=none;" vertex="1" parent="1">
          <mxGeometry x="805" y="-600" width="80" height="30" as="geometry" />
        </mxCell>
        <mxCell id="6w2UU5s4e9gFLkW_FtQj-36" value="Main Page" style="text;html=1;align=center;verticalAlign=middle;resizable=0;points=[];autosize=1;strokeColor=none;fillColor=none;" vertex="1" parent="1">
          <mxGeometry x="1103" y="-710" width="80" height="30" as="geometry" />
        </mxCell>
        <mxCell id="6w2UU5s4e9gFLkW_FtQj-40" value="" style="edgeStyle=orthogonalEdgeStyle;rounded=0;orthogonalLoop=1;jettySize=auto;html=1;" edge="1" parent="1" source="6w2UU5s4e9gFLkW_FtQj-39" target="BgerLeH3yWuYo9dpGIqB-26">
          <mxGeometry relative="1" as="geometry" />
        </mxCell>
        <mxCell id="6w2UU5s4e9gFLkW_FtQj-39" value="Admin Input" style="html=1;strokeWidth=2;shape=manualInput;whiteSpace=wrap;rounded=1;size=26;arcSize=11;rotation=-90;" vertex="1" parent="1">
          <mxGeometry x="1297" y="-410" width="100" height="60" as="geometry" />
        </mxCell>
        <mxCell id="6w2UU5s4e9gFLkW_FtQj-94" value="" style="edgeStyle=orthogonalEdgeStyle;rounded=0;orthogonalLoop=1;jettySize=auto;html=1;" edge="1" parent="1" source="6w2UU5s4e9gFLkW_FtQj-95" target="6w2UU5s4e9gFLkW_FtQj-100">
          <mxGeometry relative="1" as="geometry" />
        </mxCell>
        <mxCell id="6w2UU5s4e9gFLkW_FtQj-95" value="Filter Top 5 Most Purchased Mobiles&lt;br&gt;from Database" style="rounded=0;whiteSpace=wrap;html=1;" vertex="1" parent="1">
          <mxGeometry x="340" y="422" width="120" height="60" as="geometry" />
        </mxCell>
        <mxCell id="6w2UU5s4e9gFLkW_FtQj-96" value="" style="edgeStyle=orthogonalEdgeStyle;rounded=0;orthogonalLoop=1;jettySize=auto;html=1;" edge="1" parent="1" source="6w2UU5s4e9gFLkW_FtQj-100" target="6w2UU5s4e9gFLkW_FtQj-102">
          <mxGeometry relative="1" as="geometry" />
        </mxCell>
        <mxCell id="6w2UU5s4e9gFLkW_FtQj-97" value="Yes" style="edgeLabel;html=1;align=center;verticalAlign=middle;resizable=0;points=[];" connectable="0" vertex="1" parent="6w2UU5s4e9gFLkW_FtQj-96">
          <mxGeometry x="-0.2" y="3" relative="1" as="geometry">
            <mxPoint as="offset" />
          </mxGeometry>
        </mxCell>
        <mxCell id="Up35lHV6Y_otvgfUXGHI-4" value="" style="edgeStyle=orthogonalEdgeStyle;rounded=0;orthogonalLoop=1;jettySize=auto;html=1;" edge="1" parent="1" source="6w2UU5s4e9gFLkW_FtQj-100" target="Up35lHV6Y_otvgfUXGHI-1">
          <mxGeometry relative="1" as="geometry" />
        </mxCell>
        <mxCell id="Up35lHV6Y_otvgfUXGHI-5" value="No" style="edgeLabel;html=1;align=center;verticalAlign=middle;resizable=0;points=[];" connectable="0" vertex="1" parent="Up35lHV6Y_otvgfUXGHI-4">
          <mxGeometry x="-0.2808" relative="1" as="geometry">
            <mxPoint y="1" as="offset" />
          </mxGeometry>
        </mxCell>
        <mxCell id="6w2UU5s4e9gFLkW_FtQj-100" value="Mobiles Found?" style="rhombus;whiteSpace=wrap;html=1;" vertex="1" parent="1">
          <mxGeometry x="500" y="412" width="80" height="80" as="geometry" />
        </mxCell>
        <mxCell id="6w2UU5s4e9gFLkW_FtQj-101" value="" style="edgeStyle=orthogonalEdgeStyle;rounded=0;orthogonalLoop=1;jettySize=auto;html=1;" edge="1" parent="1" source="6w2UU5s4e9gFLkW_FtQj-102" target="6w2UU5s4e9gFLkW_FtQj-104">
          <mxGeometry relative="1" as="geometry" />
        </mxCell>
        <mxCell id="6w2UU5s4e9gFLkW_FtQj-102" value="Display Top 5 Mobiles" style="rounded=0;whiteSpace=wrap;html=1;" vertex="1" parent="1">
          <mxGeometry x="620" y="422" width="120" height="60" as="geometry" />
        </mxCell>
        <mxCell id="6w2UU5s4e9gFLkW_FtQj-103" value="" style="edgeStyle=orthogonalEdgeStyle;rounded=0;orthogonalLoop=1;jettySize=auto;html=1;" edge="1" parent="1" source="6w2UU5s4e9gFLkW_FtQj-104" target="6w2UU5s4e9gFLkW_FtQj-108">
          <mxGeometry relative="1" as="geometry" />
        </mxCell>
        <mxCell id="6w2UU5s4e9gFLkW_FtQj-104" value="Enter Escape Character &amp;#39;x&amp;#39;" style="rounded=0;whiteSpace=wrap;html=1;" vertex="1" parent="1">
          <mxGeometry x="790" y="422" width="120" height="60" as="geometry" />
        </mxCell>
        <mxCell id="6w2UU5s4e9gFLkW_FtQj-105" value="" style="edgeStyle=orthogonalEdgeStyle;rounded=0;orthogonalLoop=1;jettySize=auto;html=1;" edge="1" parent="1" source="6w2UU5s4e9gFLkW_FtQj-106" target="6w2UU5s4e9gFLkW_FtQj-104">
          <mxGeometry relative="1" as="geometry" />
        </mxCell>
        <mxCell id="6w2UU5s4e9gFLkW_FtQj-106" value="Admin Input" style="html=1;strokeWidth=2;shape=manualInput;whiteSpace=wrap;rounded=1;size=26;arcSize=11;rotation=-90;" vertex="1" parent="1">
          <mxGeometry x="800" y="532" width="100" height="60" as="geometry" />
        </mxCell>
        <mxCell id="6w2UU5s4e9gFLkW_FtQj-108" value="" style="ellipse;whiteSpace=wrap;html=1;aspect=fixed;fillColor=#f8cecc;strokeColor=#b85450;" vertex="1" parent="1">
          <mxGeometry x="950" y="422" width="60" height="60" as="geometry" />
        </mxCell>
        <mxCell id="6w2UU5s4e9gFLkW_FtQj-109" value="Main Page" style="text;html=1;align=center;verticalAlign=middle;resizable=0;points=[];autosize=1;strokeColor=none;fillColor=none;" vertex="1" parent="1">
          <mxGeometry x="940" y="482" width="80" height="30" as="geometry" />
        </mxCell>
        <mxCell id="XCf4woBne53msBydUeh0-5" value="Price,Discount,Flag,Quantity" style="text;html=1;align=center;verticalAlign=middle;resizable=0;points=[];autosize=1;strokeColor=#666666;fillColor=#f5f5f5;fontColor=#333333;" vertex="1" parent="1">
          <mxGeometry x="1380" y="-395" width="180" height="30" as="geometry" />
        </mxCell>
        <mxCell id="Up35lHV6Y_otvgfUXGHI-1" value="" style="ellipse;whiteSpace=wrap;html=1;aspect=fixed;fillColor=#f8cecc;strokeColor=#b85450;" vertex="1" parent="1">
          <mxGeometry x="510" y="532" width="60" height="60" as="geometry" />
        </mxCell>
        <mxCell id="Up35lHV6Y_otvgfUXGHI-6" value="Main Page" style="text;html=1;align=center;verticalAlign=middle;resizable=0;points=[];autosize=1;strokeColor=none;fillColor=none;" vertex="1" parent="1">
          <mxGeometry x="500" y="592" width="80" height="30" as="geometry" />
        </mxCell>
        <mxCell id="dweLZDFZ201E2HuGOwfK-6" value="" style="edgeStyle=orthogonalEdgeStyle;rounded=0;orthogonalLoop=1;jettySize=auto;html=1;" edge="1" parent="1" source="dweLZDFZ201E2HuGOwfK-4" target="pTQUG1Ghc76PBxwxFb4u-1">
          <mxGeometry relative="1" as="geometry" />
        </mxCell>
        <mxCell id="dweLZDFZ201E2HuGOwfK-4" value="" style="ellipse;whiteSpace=wrap;html=1;aspect=fixed;fillColor=#f8cecc;strokeColor=#b85450;" vertex="1" parent="1">
          <mxGeometry x="353" y="-1100" width="60" height="60" as="geometry" />
        </mxCell>
        <mxCell id="dweLZDFZ201E2HuGOwfK-5" value="Main Page" style="text;html=1;align=center;verticalAlign=middle;resizable=0;points=[];autosize=1;strokeColor=none;fillColor=none;" vertex="1" parent="1">
          <mxGeometry x="343" y="-1039" width="80" height="30" as="geometry" />
        </mxCell>
      </root>
    </mxGraphModel>
  </diagram>
  <diagram name="User Side" id="tU2hTETDqwaDsdjCvCdH">
    <mxGraphModel grid="1" page="1" gridSize="10" guides="1" tooltips="1" connect="1" arrows="1" fold="1" pageScale="1" pageWidth="827" pageHeight="1169" math="0" shadow="0">
      <root>
        <mxCell id="0" />
        <mxCell id="1" parent="0" />
        <mxCell id="TUDb2pSfkUdU2soksZtO-5" value="" style="edgeStyle=orthogonalEdgeStyle;rounded=0;orthogonalLoop=1;jettySize=auto;html=1;" edge="1" parent="1" source="TUDb2pSfkUdU2soksZtO-2" target="TUDb2pSfkUdU2soksZtO-3">
          <mxGeometry relative="1" as="geometry" />
        </mxCell>
        <mxCell id="TUDb2pSfkUdU2soksZtO-2" value="Display Topsellers" style="rounded=0;whiteSpace=wrap;html=1;" vertex="1" parent="1">
          <mxGeometry x="150" y="692" width="120" height="60" as="geometry" />
        </mxCell>
        <mxCell id="mF6mXQUsh7CbBCDHEuYY-127" value="" style="edgeStyle=orthogonalEdgeStyle;rounded=0;orthogonalLoop=1;jettySize=auto;html=1;" edge="1" parent="1" source="TUDb2pSfkUdU2soksZtO-3" target="mF6mXQUsh7CbBCDHEuYY-86">
          <mxGeometry relative="1" as="geometry" />
        </mxCell>
        <mxCell id="TUDb2pSfkUdU2soksZtO-3" value="Display Main Menu" style="rounded=0;whiteSpace=wrap;html=1;" vertex="1" parent="1">
          <mxGeometry x="150" y="782" width="120" height="60" as="geometry" />
        </mxCell>
        <mxCell id="TUDb2pSfkUdU2soksZtO-8" value="" style="edgeStyle=orthogonalEdgeStyle;rounded=0;orthogonalLoop=1;jettySize=auto;html=1;" edge="1" parent="1" source="TUDb2pSfkUdU2soksZtO-7" target="TUDb2pSfkUdU2soksZtO-3">
          <mxGeometry relative="1" as="geometry" />
        </mxCell>
        <mxCell id="TUDb2pSfkUdU2soksZtO-7" value="User Input" style="html=1;strokeWidth=2;shape=manualInput;whiteSpace=wrap;rounded=1;size=26;arcSize=11;" vertex="1" parent="1">
          <mxGeometry x="10" y="782" width="100" height="60" as="geometry" />
        </mxCell>
        <mxCell id="FyeTz9vW1QysJTXti-oF-57" value="" style="edgeStyle=orthogonalEdgeStyle;rounded=0;orthogonalLoop=1;jettySize=auto;html=1;" edge="1" parent="1">
          <mxGeometry relative="1" as="geometry">
            <mxPoint x="1639.9999999999995" y="430.0588235294117" as="sourcePoint" />
          </mxGeometry>
        </mxCell>
        <mxCell id="FyeTz9vW1QysJTXti-oF-59" value="" style="edgeStyle=orthogonalEdgeStyle;rounded=0;orthogonalLoop=1;jettySize=auto;html=1;" edge="1" parent="1">
          <mxGeometry relative="1" as="geometry">
            <mxPoint x="1580.0000000000005" y="460" as="targetPoint" />
          </mxGeometry>
        </mxCell>
        <mxCell id="FyeTz9vW1QysJTXti-oF-62" value="" style="edgeStyle=orthogonalEdgeStyle;rounded=0;orthogonalLoop=1;jettySize=auto;html=1;" edge="1" parent="1">
          <mxGeometry relative="1" as="geometry">
            <mxPoint x="960.0000000000005" y="660.0588235294119" as="sourcePoint" />
          </mxGeometry>
        </mxCell>
        <mxCell id="FyeTz9vW1QysJTXti-oF-64" value="" style="edgeStyle=orthogonalEdgeStyle;rounded=0;orthogonalLoop=1;jettySize=auto;html=1;" edge="1" parent="1">
          <mxGeometry relative="1" as="geometry">
            <mxPoint x="900" y="690" as="targetPoint" />
          </mxGeometry>
        </mxCell>
        <mxCell id="FyeTz9vW1QysJTXti-oF-67" value="" style="edgeStyle=orthogonalEdgeStyle;rounded=0;orthogonalLoop=1;jettySize=auto;html=1;" edge="1" parent="1">
          <mxGeometry relative="1" as="geometry">
            <mxPoint x="950.0000000000005" y="890.0588235294119" as="sourcePoint" />
          </mxGeometry>
        </mxCell>
        <mxCell id="FyeTz9vW1QysJTXti-oF-69" value="" style="edgeStyle=orthogonalEdgeStyle;rounded=0;orthogonalLoop=1;jettySize=auto;html=1;" edge="1" parent="1">
          <mxGeometry relative="1" as="geometry">
            <mxPoint x="890" y="920" as="targetPoint" />
          </mxGeometry>
        </mxCell>
        <mxCell id="FyeTz9vW1QysJTXti-oF-640" value="" style="edgeStyle=orthogonalEdgeStyle;rounded=0;orthogonalLoop=1;jettySize=auto;html=1;" edge="1" parent="1">
          <mxGeometry relative="1" as="geometry">
            <mxPoint x="1001" y="1360" as="sourcePoint" />
          </mxGeometry>
        </mxCell>
        <mxCell id="FyeTz9vW1QysJTXti-oF-642" value="" style="edgeStyle=orthogonalEdgeStyle;rounded=0;orthogonalLoop=1;jettySize=auto;html=1;" edge="1" parent="1">
          <mxGeometry relative="1" as="geometry">
            <mxPoint x="941.0000000000005" y="1390" as="targetPoint" />
          </mxGeometry>
        </mxCell>
        <mxCell id="FyeTz9vW1QysJTXti-oF-647" value="" style="edgeStyle=orthogonalEdgeStyle;rounded=0;orthogonalLoop=1;jettySize=auto;html=1;" edge="1" parent="1">
          <mxGeometry relative="1" as="geometry">
            <mxPoint x="1160.9999999999995" y="1566" as="sourcePoint" />
          </mxGeometry>
        </mxCell>
        <mxCell id="FyeTz9vW1QysJTXti-oF-649" value="" style="edgeStyle=orthogonalEdgeStyle;rounded=0;orthogonalLoop=1;jettySize=auto;html=1;" edge="1" parent="1">
          <mxGeometry relative="1" as="geometry">
            <mxPoint x="1101.0000000000005" y="1596" as="targetPoint" />
          </mxGeometry>
        </mxCell>
        <mxCell id="FyeTz9vW1QysJTXti-oF-655" value="" style="edgeStyle=orthogonalEdgeStyle;rounded=0;orthogonalLoop=1;jettySize=auto;html=1;" edge="1" parent="1">
          <mxGeometry relative="1" as="geometry">
            <mxPoint x="1271.0000000000005" y="1880" as="sourcePoint" />
          </mxGeometry>
        </mxCell>
        <mxCell id="FyeTz9vW1QysJTXti-oF-657" value="" style="edgeStyle=orthogonalEdgeStyle;rounded=0;orthogonalLoop=1;jettySize=auto;html=1;" edge="1" parent="1">
          <mxGeometry relative="1" as="geometry">
            <mxPoint x="1211.0000000000005" y="1910" as="targetPoint" />
          </mxGeometry>
        </mxCell>
        <mxCell id="FyeTz9vW1QysJTXti-oF-661" value="" style="edgeStyle=orthogonalEdgeStyle;rounded=0;orthogonalLoop=1;jettySize=auto;html=1;" edge="1" parent="1">
          <mxGeometry relative="1" as="geometry">
            <mxPoint x="1261.0000000000005" y="2091" as="sourcePoint" />
          </mxGeometry>
        </mxCell>
        <mxCell id="FyeTz9vW1QysJTXti-oF-663" value="" style="edgeStyle=orthogonalEdgeStyle;rounded=0;orthogonalLoop=1;jettySize=auto;html=1;" edge="1" parent="1">
          <mxGeometry relative="1" as="geometry">
            <mxPoint x="1201.0000000000005" y="2151" as="sourcePoint" />
          </mxGeometry>
        </mxCell>
        <mxCell id="FyeTz9vW1QysJTXti-oF-667" value="" style="edgeStyle=orthogonalEdgeStyle;rounded=0;orthogonalLoop=1;jettySize=auto;html=1;" edge="1" parent="1">
          <mxGeometry relative="1" as="geometry">
            <mxPoint x="1261.0000000000005" y="2304.9999999999995" as="sourcePoint" />
          </mxGeometry>
        </mxCell>
        <mxCell id="FyeTz9vW1QysJTXti-oF-669" value="" style="edgeStyle=orthogonalEdgeStyle;rounded=0;orthogonalLoop=1;jettySize=auto;html=1;" edge="1" parent="1">
          <mxGeometry relative="1" as="geometry">
            <mxPoint x="1201.0000000000005" y="2334.9999999999995" as="targetPoint" />
          </mxGeometry>
        </mxCell>
        <mxCell id="FyeTz9vW1QysJTXti-oF-673" value="" style="edgeStyle=orthogonalEdgeStyle;rounded=0;orthogonalLoop=1;jettySize=auto;html=1;" edge="1" parent="1">
          <mxGeometry relative="1" as="geometry">
            <mxPoint x="1261.0000000000005" y="2519.9999999999995" as="sourcePoint" />
          </mxGeometry>
        </mxCell>
        <mxCell id="FyeTz9vW1QysJTXti-oF-675" value="" style="edgeStyle=orthogonalEdgeStyle;rounded=0;orthogonalLoop=1;jettySize=auto;html=1;" edge="1" parent="1">
          <mxGeometry relative="1" as="geometry">
            <mxPoint x="1201.0000000000005" y="2549.9999999999995" as="targetPoint" />
          </mxGeometry>
        </mxCell>
        <mxCell id="EifT8oz3O98K508GBtId-13" value="" style="edgeStyle=orthogonalEdgeStyle;rounded=0;orthogonalLoop=1;jettySize=auto;html=1;" edge="1" parent="1" source="EifT8oz3O98K508GBtId-3" target="TUDb2pSfkUdU2soksZtO-2">
          <mxGeometry relative="1" as="geometry" />
        </mxCell>
        <mxCell id="EifT8oz3O98K508GBtId-3" value="Display Welcome Page" style="rounded=0;whiteSpace=wrap;html=1;" vertex="1" parent="1">
          <mxGeometry x="150" y="576" width="120" height="72" as="geometry" />
        </mxCell>
        <mxCell id="EifT8oz3O98K508GBtId-17" value="" style="edgeStyle=orthogonalEdgeStyle;rounded=0;orthogonalLoop=1;jettySize=auto;html=1;" edge="1" parent="1" source="EifT8oz3O98K508GBtId-18">
          <mxGeometry relative="1" as="geometry">
            <mxPoint x="270" y="612" as="targetPoint" />
          </mxGeometry>
        </mxCell>
        <mxCell id="EifT8oz3O98K508GBtId-18" value="" style="ellipse;whiteSpace=wrap;html=1;aspect=fixed;fillColor=#f8cecc;strokeColor=#b85450;" vertex="1" parent="1">
          <mxGeometry x="310" y="582" width="60" height="60" as="geometry" />
        </mxCell>
        <mxCell id="EifT8oz3O98K508GBtId-34" value="Main Page" style="text;html=1;align=center;verticalAlign=middle;resizable=0;points=[];autosize=1;strokeColor=none;fillColor=none;" vertex="1" parent="1">
          <mxGeometry x="300" y="642" width="80" height="30" as="geometry" />
        </mxCell>
        <mxCell id="hlrIKF5IAwMEtmJ-yiTH-2" value="" style="edgeStyle=orthogonalEdgeStyle;rounded=0;orthogonalLoop=1;jettySize=auto;html=1;" edge="1" parent="1" source="hlrIKF5IAwMEtmJ-yiTH-1" target="EifT8oz3O98K508GBtId-3">
          <mxGeometry relative="1" as="geometry" />
        </mxCell>
        <mxCell id="hlrIKF5IAwMEtmJ-yiTH-1" value="Start" style="html=1;dashed=0;whiteSpace=wrap;shape=mxgraph.dfd.start" vertex="1" parent="1">
          <mxGeometry x="170" y="510" width="80" height="30" as="geometry" />
        </mxCell>
        <mxCell id="mF6mXQUsh7CbBCDHEuYY-83" value="" style="edgeStyle=orthogonalEdgeStyle;rounded=0;orthogonalLoop=1;jettySize=auto;html=1;" edge="1" parent="1" source="mF6mXQUsh7CbBCDHEuYY-86" target="mF6mXQUsh7CbBCDHEuYY-88">
          <mxGeometry relative="1" as="geometry" />
        </mxCell>
        <mxCell id="mF6mXQUsh7CbBCDHEuYY-84" value="Yes" style="edgeLabel;html=1;align=center;verticalAlign=middle;resizable=0;points=[];" connectable="0" vertex="1" parent="mF6mXQUsh7CbBCDHEuYY-83">
          <mxGeometry x="-0.3" relative="1" as="geometry">
            <mxPoint as="offset" />
          </mxGeometry>
        </mxCell>
        <mxCell id="KusWGFyg_JtV5qBrXpOA-7" style="edgeStyle=orthogonalEdgeStyle;rounded=0;orthogonalLoop=1;jettySize=auto;html=1;exitX=0.5;exitY=1;exitDx=0;exitDy=0;" edge="1" parent="1" source="mF6mXQUsh7CbBCDHEuYY-86">
          <mxGeometry relative="1" as="geometry">
            <mxPoint x="209.30769230769215" y="1220" as="targetPoint" />
          </mxGeometry>
        </mxCell>
        <mxCell id="KusWGFyg_JtV5qBrXpOA-8" value="No" style="edgeLabel;html=1;align=center;verticalAlign=middle;resizable=0;points=[];" connectable="0" vertex="1" parent="KusWGFyg_JtV5qBrXpOA-7">
          <mxGeometry x="-0.0244" y="-1" relative="1" as="geometry">
            <mxPoint as="offset" />
          </mxGeometry>
        </mxCell>
        <mxCell id="mF6mXQUsh7CbBCDHEuYY-86" value="Buy&lt;br&gt;&amp;nbsp;Topsellers" style="rhombus;whiteSpace=wrap;html=1;" vertex="1" parent="1">
          <mxGeometry x="170" y="929" width="80" height="80" as="geometry" />
        </mxCell>
        <mxCell id="mF6mXQUsh7CbBCDHEuYY-87" value="" style="edgeStyle=orthogonalEdgeStyle;rounded=0;orthogonalLoop=1;jettySize=auto;html=1;" edge="1" parent="1" source="mF6mXQUsh7CbBCDHEuYY-88" target="mF6mXQUsh7CbBCDHEuYY-93">
          <mxGeometry relative="1" as="geometry" />
        </mxCell>
        <mxCell id="mF6mXQUsh7CbBCDHEuYY-88" value="Filter Top 5 Most Purchased Mobiles" style="rounded=0;whiteSpace=wrap;html=1;" vertex="1" parent="1">
          <mxGeometry x="290" y="939" width="120" height="60" as="geometry" />
        </mxCell>
        <mxCell id="mF6mXQUsh7CbBCDHEuYY-89" value="" style="edgeStyle=orthogonalEdgeStyle;rounded=0;orthogonalLoop=1;jettySize=auto;html=1;" edge="1" parent="1" source="mF6mXQUsh7CbBCDHEuYY-93" target="mF6mXQUsh7CbBCDHEuYY-95">
          <mxGeometry relative="1" as="geometry" />
        </mxCell>
        <mxCell id="mF6mXQUsh7CbBCDHEuYY-90" value="Yes" style="edgeLabel;html=1;align=center;verticalAlign=middle;resizable=0;points=[];" connectable="0" vertex="1" parent="mF6mXQUsh7CbBCDHEuYY-89">
          <mxGeometry x="-0.2" y="3" relative="1" as="geometry">
            <mxPoint as="offset" />
          </mxGeometry>
        </mxCell>
        <mxCell id="mF6mXQUsh7CbBCDHEuYY-91" value="" style="edgeStyle=orthogonalEdgeStyle;rounded=0;orthogonalLoop=1;jettySize=auto;html=1;" edge="1" parent="1" source="mF6mXQUsh7CbBCDHEuYY-93" target="mF6mXQUsh7CbBCDHEuYY-96">
          <mxGeometry relative="1" as="geometry" />
        </mxCell>
        <mxCell id="mF6mXQUsh7CbBCDHEuYY-92" value="NO" style="edgeLabel;html=1;align=center;verticalAlign=middle;resizable=0;points=[];" connectable="0" vertex="1" parent="mF6mXQUsh7CbBCDHEuYY-91">
          <mxGeometry x="-0.2" y="1" relative="1" as="geometry">
            <mxPoint as="offset" />
          </mxGeometry>
        </mxCell>
        <mxCell id="mF6mXQUsh7CbBCDHEuYY-93" value="Mobiles Found?" style="rhombus;whiteSpace=wrap;html=1;" vertex="1" parent="1">
          <mxGeometry x="450" y="929" width="80" height="80" as="geometry" />
        </mxCell>
        <mxCell id="mF6mXQUsh7CbBCDHEuYY-94" value="" style="edgeStyle=orthogonalEdgeStyle;rounded=0;orthogonalLoop=1;jettySize=auto;html=1;" edge="1" parent="1" source="mF6mXQUsh7CbBCDHEuYY-95" target="mF6mXQUsh7CbBCDHEuYY-101">
          <mxGeometry relative="1" as="geometry" />
        </mxCell>
        <mxCell id="mF6mXQUsh7CbBCDHEuYY-95" value="Display Top 5 Mobiles" style="rounded=0;whiteSpace=wrap;html=1;" vertex="1" parent="1">
          <mxGeometry x="570" y="939" width="120" height="60" as="geometry" />
        </mxCell>
        <mxCell id="mF6mXQUsh7CbBCDHEuYY-96" value="" style="ellipse;whiteSpace=wrap;html=1;aspect=fixed;fillColor=#f8cecc;strokeColor=#b85450;" vertex="1" parent="1">
          <mxGeometry x="460" y="1049" width="60" height="60" as="geometry" />
        </mxCell>
        <mxCell id="mF6mXQUsh7CbBCDHEuYY-97" value="" style="edgeStyle=orthogonalEdgeStyle;rounded=0;orthogonalLoop=1;jettySize=auto;html=1;" edge="1" parent="1" source="mF6mXQUsh7CbBCDHEuYY-101" target="mF6mXQUsh7CbBCDHEuYY-102">
          <mxGeometry relative="1" as="geometry" />
        </mxCell>
        <mxCell id="mF6mXQUsh7CbBCDHEuYY-98" value="No" style="edgeLabel;html=1;align=center;verticalAlign=middle;resizable=0;points=[];" connectable="0" vertex="1" parent="mF6mXQUsh7CbBCDHEuYY-97">
          <mxGeometry y="-1" relative="1" as="geometry">
            <mxPoint as="offset" />
          </mxGeometry>
        </mxCell>
        <mxCell id="mF6mXQUsh7CbBCDHEuYY-99" value="" style="edgeStyle=orthogonalEdgeStyle;rounded=0;orthogonalLoop=1;jettySize=auto;html=1;" edge="1" parent="1" source="mF6mXQUsh7CbBCDHEuYY-101" target="mF6mXQUsh7CbBCDHEuYY-119">
          <mxGeometry relative="1" as="geometry" />
        </mxCell>
        <mxCell id="mF6mXQUsh7CbBCDHEuYY-100" value="Yes" style="edgeLabel;html=1;align=center;verticalAlign=middle;resizable=0;points=[];" connectable="0" vertex="1" parent="mF6mXQUsh7CbBCDHEuYY-99">
          <mxGeometry x="-0.1648" y="-3" relative="1" as="geometry">
            <mxPoint as="offset" />
          </mxGeometry>
        </mxCell>
        <mxCell id="mF6mXQUsh7CbBCDHEuYY-101" value="Want to Buy?" style="rhombus;whiteSpace=wrap;html=1;" vertex="1" parent="1">
          <mxGeometry x="748" y="928" width="80" height="80" as="geometry" />
        </mxCell>
        <mxCell id="mF6mXQUsh7CbBCDHEuYY-102" value="" style="ellipse;whiteSpace=wrap;html=1;aspect=fixed;fillColor=#f8cecc;strokeColor=#b85450;" vertex="1" parent="1">
          <mxGeometry x="758" y="1048" width="60" height="60" as="geometry" />
        </mxCell>
        <mxCell id="mF6mXQUsh7CbBCDHEuYY-103" value="" style="edgeStyle=orthogonalEdgeStyle;rounded=0;orthogonalLoop=1;jettySize=auto;html=1;" edge="1" parent="1" source="mF6mXQUsh7CbBCDHEuYY-104" target="mF6mXQUsh7CbBCDHEuYY-111">
          <mxGeometry relative="1" as="geometry" />
        </mxCell>
        <mxCell id="mF6mXQUsh7CbBCDHEuYY-104" value="Ask User to add details" style="rounded=0;whiteSpace=wrap;html=1;" vertex="1" parent="1">
          <mxGeometry x="1198" y="938" width="120" height="60" as="geometry" />
        </mxCell>
        <mxCell id="mF6mXQUsh7CbBCDHEuYY-105" value="" style="edgeStyle=orthogonalEdgeStyle;rounded=0;orthogonalLoop=1;jettySize=auto;html=1;" edge="1" parent="1" target="mF6mXQUsh7CbBCDHEuYY-104">
          <mxGeometry relative="1" as="geometry">
            <mxPoint x="1258" y="1027.9999999999995" as="sourcePoint" />
          </mxGeometry>
        </mxCell>
        <mxCell id="mF6mXQUsh7CbBCDHEuYY-106" value="User Input" style="html=1;strokeWidth=2;shape=manualInput;whiteSpace=wrap;rounded=1;size=26;arcSize=11;rotation=-90;" vertex="1" parent="1">
          <mxGeometry x="1198" y="1048" width="100" height="60" as="geometry" />
        </mxCell>
        <mxCell id="mF6mXQUsh7CbBCDHEuYY-107" value="" style="edgeStyle=orthogonalEdgeStyle;rounded=0;orthogonalLoop=1;jettySize=auto;html=1;" edge="1" parent="1" source="mF6mXQUsh7CbBCDHEuYY-111" target="mF6mXQUsh7CbBCDHEuYY-115">
          <mxGeometry relative="1" as="geometry" />
        </mxCell>
        <mxCell id="mF6mXQUsh7CbBCDHEuYY-108" value="No" style="edgeLabel;html=1;align=center;verticalAlign=middle;resizable=0;points=[];" connectable="0" vertex="1" parent="mF6mXQUsh7CbBCDHEuYY-107">
          <mxGeometry x="-0.0794" relative="1" as="geometry">
            <mxPoint as="offset" />
          </mxGeometry>
        </mxCell>
        <mxCell id="mF6mXQUsh7CbBCDHEuYY-109" value="" style="edgeStyle=orthogonalEdgeStyle;rounded=0;orthogonalLoop=1;jettySize=auto;html=1;" edge="1" parent="1" source="mF6mXQUsh7CbBCDHEuYY-111" target="mF6mXQUsh7CbBCDHEuYY-113">
          <mxGeometry relative="1" as="geometry" />
        </mxCell>
        <mxCell id="mF6mXQUsh7CbBCDHEuYY-110" value="Yes" style="edgeLabel;html=1;align=center;verticalAlign=middle;resizable=0;points=[];" connectable="0" vertex="1" parent="mF6mXQUsh7CbBCDHEuYY-109">
          <mxGeometry x="0.3278" y="-3" relative="1" as="geometry">
            <mxPoint as="offset" />
          </mxGeometry>
        </mxCell>
        <mxCell id="mF6mXQUsh7CbBCDHEuYY-111" value="Confirm?" style="rhombus;whiteSpace=wrap;html=1;" vertex="1" parent="1">
          <mxGeometry x="1358" y="928" width="80" height="80" as="geometry" />
        </mxCell>
        <mxCell id="mF6mXQUsh7CbBCDHEuYY-112" value="" style="edgeStyle=orthogonalEdgeStyle;rounded=0;orthogonalLoop=1;jettySize=auto;html=1;" edge="1" parent="1" source="mF6mXQUsh7CbBCDHEuYY-113" target="mF6mXQUsh7CbBCDHEuYY-114">
          <mxGeometry relative="1" as="geometry" />
        </mxCell>
        <mxCell id="mF6mXQUsh7CbBCDHEuYY-113" value="Save Details to Database" style="rounded=0;whiteSpace=wrap;html=1;" vertex="1" parent="1">
          <mxGeometry x="1468" y="938" width="120" height="60" as="geometry" />
        </mxCell>
        <mxCell id="mF6mXQUsh7CbBCDHEuYY-114" value="" style="ellipse;whiteSpace=wrap;html=1;aspect=fixed;fillColor=#f8cecc;strokeColor=#b85450;" vertex="1" parent="1">
          <mxGeometry x="1618" y="938" width="60" height="60" as="geometry" />
        </mxCell>
        <mxCell id="mF6mXQUsh7CbBCDHEuYY-115" value="" style="ellipse;whiteSpace=wrap;html=1;aspect=fixed;fillColor=#f8cecc;strokeColor=#b85450;" vertex="1" parent="1">
          <mxGeometry x="1368" y="1048" width="60" height="60" as="geometry" />
        </mxCell>
        <mxCell id="mF6mXQUsh7CbBCDHEuYY-116" value="Main Page" style="text;html=1;align=center;verticalAlign=middle;resizable=0;points=[];autosize=1;strokeColor=none;fillColor=none;" vertex="1" parent="1">
          <mxGeometry x="450" y="1109" width="80" height="30" as="geometry" />
        </mxCell>
        <mxCell id="mF6mXQUsh7CbBCDHEuYY-117" value="Main Page" style="text;html=1;align=center;verticalAlign=middle;resizable=0;points=[];autosize=1;strokeColor=none;fillColor=none;" vertex="1" parent="1">
          <mxGeometry x="748" y="1108" width="80" height="30" as="geometry" />
        </mxCell>
        <mxCell id="mF6mXQUsh7CbBCDHEuYY-118" value="Main Page" style="text;html=1;align=center;verticalAlign=middle;resizable=0;points=[];autosize=1;strokeColor=none;fillColor=none;" vertex="1" parent="1">
          <mxGeometry x="1608" y="999" width="80" height="30" as="geometry" />
        </mxCell>
        <mxCell id="mF6mXQUsh7CbBCDHEuYY-119" value="Ask Mobile Name" style="rounded=0;whiteSpace=wrap;html=1;" vertex="1" parent="1">
          <mxGeometry x="893" y="938" width="120" height="60" as="geometry" />
        </mxCell>
        <mxCell id="mF6mXQUsh7CbBCDHEuYY-120" value="" style="edgeStyle=orthogonalEdgeStyle;rounded=0;orthogonalLoop=1;jettySize=auto;html=1;" edge="1" parent="1" source="mF6mXQUsh7CbBCDHEuYY-121" target="mF6mXQUsh7CbBCDHEuYY-119">
          <mxGeometry relative="1" as="geometry" />
        </mxCell>
        <mxCell id="mF6mXQUsh7CbBCDHEuYY-121" value="User Input" style="html=1;strokeWidth=2;shape=manualInput;whiteSpace=wrap;rounded=1;size=26;arcSize=11;rotation=-90;" vertex="1" parent="1">
          <mxGeometry x="903" y="1048" width="100" height="60" as="geometry" />
        </mxCell>
        <mxCell id="mF6mXQUsh7CbBCDHEuYY-122" style="edgeStyle=orthogonalEdgeStyle;rounded=0;orthogonalLoop=1;jettySize=auto;html=1;exitX=0.5;exitY=0;exitDx=0;exitDy=0;entryX=0.5;entryY=0;entryDx=0;entryDy=0;" edge="1" parent="1" source="mF6mXQUsh7CbBCDHEuYY-126" target="mF6mXQUsh7CbBCDHEuYY-119">
          <mxGeometry relative="1" as="geometry" />
        </mxCell>
        <mxCell id="mF6mXQUsh7CbBCDHEuYY-123" value="NO" style="edgeLabel;html=1;align=center;verticalAlign=middle;resizable=0;points=[];" connectable="0" vertex="1" parent="mF6mXQUsh7CbBCDHEuYY-122">
          <mxGeometry x="-0.0476" relative="1" as="geometry">
            <mxPoint as="offset" />
          </mxGeometry>
        </mxCell>
        <mxCell id="mF6mXQUsh7CbBCDHEuYY-124" value="" style="edgeStyle=orthogonalEdgeStyle;rounded=0;orthogonalLoop=1;jettySize=auto;html=1;" edge="1" parent="1" source="mF6mXQUsh7CbBCDHEuYY-126" target="mF6mXQUsh7CbBCDHEuYY-104">
          <mxGeometry relative="1" as="geometry" />
        </mxCell>
        <mxCell id="mF6mXQUsh7CbBCDHEuYY-125" value="Yes" style="edgeLabel;html=1;align=center;verticalAlign=middle;resizable=0;points=[];" connectable="0" vertex="1" parent="mF6mXQUsh7CbBCDHEuYY-124">
          <mxGeometry x="-0.1558" y="-1" relative="1" as="geometry">
            <mxPoint x="-1" as="offset" />
          </mxGeometry>
        </mxCell>
        <mxCell id="mF6mXQUsh7CbBCDHEuYY-126" value="Mobile Found?" style="rhombus;whiteSpace=wrap;html=1;" vertex="1" parent="1">
          <mxGeometry x="1053" y="929" width="80" height="80" as="geometry" />
        </mxCell>
        <mxCell id="mF6mXQUsh7CbBCDHEuYY-128" value="" style="edgeStyle=orthogonalEdgeStyle;rounded=0;orthogonalLoop=1;jettySize=auto;html=1;" edge="1" parent="1" source="mF6mXQUsh7CbBCDHEuYY-131" target="mF6mXQUsh7CbBCDHEuYY-133">
          <mxGeometry relative="1" as="geometry" />
        </mxCell>
        <mxCell id="mF6mXQUsh7CbBCDHEuYY-129" value="Yes" style="edgeLabel;html=1;align=center;verticalAlign=middle;resizable=0;points=[];" connectable="0" vertex="1" parent="mF6mXQUsh7CbBCDHEuYY-128">
          <mxGeometry x="-0.2" relative="1" as="geometry">
            <mxPoint as="offset" />
          </mxGeometry>
        </mxCell>
        <mxCell id="KusWGFyg_JtV5qBrXpOA-5" style="edgeStyle=orthogonalEdgeStyle;rounded=0;orthogonalLoop=1;jettySize=auto;html=1;exitX=0.5;exitY=1;exitDx=0;exitDy=0;" edge="1" parent="1" source="mF6mXQUsh7CbBCDHEuYY-131">
          <mxGeometry relative="1" as="geometry">
            <mxPoint x="209.30769230769215" y="1570" as="targetPoint" />
          </mxGeometry>
        </mxCell>
        <mxCell id="KusWGFyg_JtV5qBrXpOA-6" value="No" style="edgeLabel;html=1;align=center;verticalAlign=middle;resizable=0;points=[];" connectable="0" vertex="1" parent="KusWGFyg_JtV5qBrXpOA-5">
          <mxGeometry x="-0.0129" y="-1" relative="1" as="geometry">
            <mxPoint y="-1" as="offset" />
          </mxGeometry>
        </mxCell>
        <mxCell id="mF6mXQUsh7CbBCDHEuYY-131" value="Search By Price Range?" style="rhombus;whiteSpace=wrap;html=1;" vertex="1" parent="1">
          <mxGeometry x="170" y="1223.4299999999998" width="80" height="80" as="geometry" />
        </mxCell>
        <mxCell id="mF6mXQUsh7CbBCDHEuYY-132" value="" style="edgeStyle=orthogonalEdgeStyle;rounded=0;orthogonalLoop=1;jettySize=auto;html=1;" edge="1" parent="1" source="mF6mXQUsh7CbBCDHEuYY-133" target="mF6mXQUsh7CbBCDHEuYY-139">
          <mxGeometry relative="1" as="geometry" />
        </mxCell>
        <mxCell id="mF6mXQUsh7CbBCDHEuYY-133" value="Enter Min And Max Price" style="rounded=0;whiteSpace=wrap;html=1;" vertex="1" parent="1">
          <mxGeometry x="290" y="1233.4299999999998" width="120" height="60" as="geometry" />
        </mxCell>
        <mxCell id="mF6mXQUsh7CbBCDHEuYY-134" value="" style="edgeStyle=orthogonalEdgeStyle;rounded=0;orthogonalLoop=1;jettySize=auto;html=1;" edge="1" parent="1" source="mF6mXQUsh7CbBCDHEuYY-135" target="mF6mXQUsh7CbBCDHEuYY-133">
          <mxGeometry relative="1" as="geometry" />
        </mxCell>
        <mxCell id="mF6mXQUsh7CbBCDHEuYY-135" value="User Input" style="html=1;strokeWidth=2;shape=manualInput;whiteSpace=wrap;rounded=1;size=26;arcSize=11;rotation=-90;" vertex="1" parent="1">
          <mxGeometry x="300" y="1343.4299999999998" width="100" height="60" as="geometry" />
        </mxCell>
        <mxCell id="mF6mXQUsh7CbBCDHEuYY-136" value="" style="edgeStyle=orthogonalEdgeStyle;rounded=0;orthogonalLoop=1;jettySize=auto;html=1;" edge="1" parent="1" source="mF6mXQUsh7CbBCDHEuYY-139" target="mF6mXQUsh7CbBCDHEuYY-142">
          <mxGeometry relative="1" as="geometry" />
        </mxCell>
        <mxCell id="mF6mXQUsh7CbBCDHEuYY-137" value="" style="edgeStyle=orthogonalEdgeStyle;rounded=0;orthogonalLoop=1;jettySize=auto;html=1;" edge="1" parent="1" target="mF6mXQUsh7CbBCDHEuYY-145">
          <mxGeometry relative="1" as="geometry">
            <mxPoint x="650" y="1301.4299999999998" as="sourcePoint" />
          </mxGeometry>
        </mxCell>
        <mxCell id="mF6mXQUsh7CbBCDHEuYY-138" value="No" style="edgeLabel;html=1;align=center;verticalAlign=middle;resizable=0;points=[];" connectable="0" vertex="1" parent="mF6mXQUsh7CbBCDHEuYY-137">
          <mxGeometry x="-0.24" y="1" relative="1" as="geometry">
            <mxPoint as="offset" />
          </mxGeometry>
        </mxCell>
        <mxCell id="mF6mXQUsh7CbBCDHEuYY-139" value="Filter Mobiles within Price Range" style="rounded=0;whiteSpace=wrap;html=1;" vertex="1" parent="1">
          <mxGeometry x="450" y="1233.4299999999998" width="120" height="60" as="geometry" />
        </mxCell>
        <mxCell id="mF6mXQUsh7CbBCDHEuYY-140" value="" style="edgeStyle=orthogonalEdgeStyle;rounded=0;orthogonalLoop=1;jettySize=auto;html=1;" edge="1" parent="1" source="mF6mXQUsh7CbBCDHEuYY-142" target="mF6mXQUsh7CbBCDHEuYY-144">
          <mxGeometry relative="1" as="geometry" />
        </mxCell>
        <mxCell id="mF6mXQUsh7CbBCDHEuYY-141" value="Yes" style="edgeLabel;html=1;align=center;verticalAlign=middle;resizable=0;points=[];" connectable="0" vertex="1" parent="mF6mXQUsh7CbBCDHEuYY-140">
          <mxGeometry x="-0.15" relative="1" as="geometry">
            <mxPoint as="offset" />
          </mxGeometry>
        </mxCell>
        <mxCell id="mF6mXQUsh7CbBCDHEuYY-142" value="Mobiles Found?" style="rhombus;whiteSpace=wrap;html=1;" vertex="1" parent="1">
          <mxGeometry x="610" y="1223.4299999999998" width="80" height="80" as="geometry" />
        </mxCell>
        <mxCell id="mF6mXQUsh7CbBCDHEuYY-143" value="" style="edgeStyle=orthogonalEdgeStyle;rounded=0;orthogonalLoop=1;jettySize=auto;html=1;" edge="1" parent="1" source="mF6mXQUsh7CbBCDHEuYY-144" target="mF6mXQUsh7CbBCDHEuYY-150">
          <mxGeometry relative="1" as="geometry" />
        </mxCell>
        <mxCell id="mF6mXQUsh7CbBCDHEuYY-144" value="Display Mobiles" style="rounded=0;whiteSpace=wrap;html=1;" vertex="1" parent="1">
          <mxGeometry x="730" y="1233.4299999999998" width="120" height="60" as="geometry" />
        </mxCell>
        <mxCell id="mF6mXQUsh7CbBCDHEuYY-145" value="" style="ellipse;whiteSpace=wrap;html=1;aspect=fixed;fillColor=#f8cecc;strokeColor=#b85450;" vertex="1" parent="1">
          <mxGeometry x="620" y="1351.4299999999998" width="60" height="60" as="geometry" />
        </mxCell>
        <mxCell id="mF6mXQUsh7CbBCDHEuYY-146" value="" style="edgeStyle=orthogonalEdgeStyle;rounded=0;orthogonalLoop=1;jettySize=auto;html=1;" edge="1" parent="1" source="mF6mXQUsh7CbBCDHEuYY-150" target="mF6mXQUsh7CbBCDHEuYY-151">
          <mxGeometry relative="1" as="geometry" />
        </mxCell>
        <mxCell id="mF6mXQUsh7CbBCDHEuYY-147" value="No" style="edgeLabel;html=1;align=center;verticalAlign=middle;resizable=0;points=[];" connectable="0" vertex="1" parent="mF6mXQUsh7CbBCDHEuYY-146">
          <mxGeometry y="-1" relative="1" as="geometry">
            <mxPoint as="offset" />
          </mxGeometry>
        </mxCell>
        <mxCell id="KusWGFyg_JtV5qBrXpOA-1" value="" style="edgeStyle=orthogonalEdgeStyle;rounded=0;orthogonalLoop=1;jettySize=auto;html=1;" edge="1" parent="1" source="mF6mXQUsh7CbBCDHEuYY-150" target="mF6mXQUsh7CbBCDHEuYY-170">
          <mxGeometry relative="1" as="geometry" />
        </mxCell>
        <mxCell id="KusWGFyg_JtV5qBrXpOA-2" value="Yes" style="edgeLabel;html=1;align=center;verticalAlign=middle;resizable=0;points=[];" connectable="0" vertex="1" parent="KusWGFyg_JtV5qBrXpOA-1">
          <mxGeometry x="-0.0389" y="-1" relative="1" as="geometry">
            <mxPoint as="offset" />
          </mxGeometry>
        </mxCell>
        <mxCell id="mF6mXQUsh7CbBCDHEuYY-150" value="Want to Buy?" style="rhombus;whiteSpace=wrap;html=1;" vertex="1" parent="1">
          <mxGeometry x="902" y="1224.4299999999998" width="80" height="80" as="geometry" />
        </mxCell>
        <mxCell id="mF6mXQUsh7CbBCDHEuYY-151" value="" style="ellipse;whiteSpace=wrap;html=1;aspect=fixed;fillColor=#f8cecc;strokeColor=#b85450;" vertex="1" parent="1">
          <mxGeometry x="912" y="1344.4299999999998" width="60" height="60" as="geometry" />
        </mxCell>
        <mxCell id="mF6mXQUsh7CbBCDHEuYY-152" value="" style="edgeStyle=orthogonalEdgeStyle;rounded=0;orthogonalLoop=1;jettySize=auto;html=1;" edge="1" parent="1" source="mF6mXQUsh7CbBCDHEuYY-153" target="mF6mXQUsh7CbBCDHEuYY-160">
          <mxGeometry relative="1" as="geometry" />
        </mxCell>
        <mxCell id="mF6mXQUsh7CbBCDHEuYY-153" value="Ask User to add details" style="rounded=0;whiteSpace=wrap;html=1;" vertex="1" parent="1">
          <mxGeometry x="1393.83" y="1239.9299999999998" width="120" height="60" as="geometry" />
        </mxCell>
        <mxCell id="mF6mXQUsh7CbBCDHEuYY-154" value="" style="edgeStyle=orthogonalEdgeStyle;rounded=0;orthogonalLoop=1;jettySize=auto;html=1;" edge="1" parent="1" source="mF6mXQUsh7CbBCDHEuYY-155" target="mF6mXQUsh7CbBCDHEuYY-153">
          <mxGeometry relative="1" as="geometry" />
        </mxCell>
        <mxCell id="mF6mXQUsh7CbBCDHEuYY-155" value="User Input" style="html=1;strokeWidth=2;shape=manualInput;whiteSpace=wrap;rounded=1;size=26;arcSize=11;rotation=-90;" vertex="1" parent="1">
          <mxGeometry x="1404" y="1344.4299999999998" width="100" height="60" as="geometry" />
        </mxCell>
        <mxCell id="mF6mXQUsh7CbBCDHEuYY-156" value="" style="edgeStyle=orthogonalEdgeStyle;rounded=0;orthogonalLoop=1;jettySize=auto;html=1;" edge="1" parent="1" source="mF6mXQUsh7CbBCDHEuYY-160" target="mF6mXQUsh7CbBCDHEuYY-164">
          <mxGeometry relative="1" as="geometry" />
        </mxCell>
        <mxCell id="mF6mXQUsh7CbBCDHEuYY-157" value="No" style="edgeLabel;html=1;align=center;verticalAlign=middle;resizable=0;points=[];" connectable="0" vertex="1" parent="mF6mXQUsh7CbBCDHEuYY-156">
          <mxGeometry x="-0.0794" relative="1" as="geometry">
            <mxPoint as="offset" />
          </mxGeometry>
        </mxCell>
        <mxCell id="mF6mXQUsh7CbBCDHEuYY-158" value="" style="edgeStyle=orthogonalEdgeStyle;rounded=0;orthogonalLoop=1;jettySize=auto;html=1;" edge="1" parent="1" source="mF6mXQUsh7CbBCDHEuYY-160" target="mF6mXQUsh7CbBCDHEuYY-162">
          <mxGeometry relative="1" as="geometry" />
        </mxCell>
        <mxCell id="mF6mXQUsh7CbBCDHEuYY-159" value="Yes" style="edgeLabel;html=1;align=center;verticalAlign=middle;resizable=0;points=[];" connectable="0" vertex="1" parent="mF6mXQUsh7CbBCDHEuYY-158">
          <mxGeometry x="0.3278" y="-3" relative="1" as="geometry">
            <mxPoint as="offset" />
          </mxGeometry>
        </mxCell>
        <mxCell id="mF6mXQUsh7CbBCDHEuYY-160" value="Confirm?" style="rhombus;whiteSpace=wrap;html=1;" vertex="1" parent="1">
          <mxGeometry x="1553" y="1229.9299999999998" width="80" height="80" as="geometry" />
        </mxCell>
        <mxCell id="mF6mXQUsh7CbBCDHEuYY-161" value="" style="edgeStyle=orthogonalEdgeStyle;rounded=0;orthogonalLoop=1;jettySize=auto;html=1;" edge="1" parent="1" source="mF6mXQUsh7CbBCDHEuYY-162" target="mF6mXQUsh7CbBCDHEuYY-163">
          <mxGeometry relative="1" as="geometry" />
        </mxCell>
        <mxCell id="mF6mXQUsh7CbBCDHEuYY-162" value="Save Details to Database" style="rounded=0;whiteSpace=wrap;html=1;" vertex="1" parent="1">
          <mxGeometry x="1674" y="1239.9299999999998" width="120" height="60" as="geometry" />
        </mxCell>
        <mxCell id="mF6mXQUsh7CbBCDHEuYY-163" value="" style="ellipse;whiteSpace=wrap;html=1;aspect=fixed;fillColor=#f8cecc;strokeColor=#b85450;" vertex="1" parent="1">
          <mxGeometry x="1825" y="1239.9299999999998" width="60" height="60" as="geometry" />
        </mxCell>
        <mxCell id="mF6mXQUsh7CbBCDHEuYY-164" value="" style="ellipse;whiteSpace=wrap;html=1;aspect=fixed;fillColor=#f8cecc;strokeColor=#b85450;" vertex="1" parent="1">
          <mxGeometry x="1564" y="1344.4299999999998" width="60" height="60" as="geometry" />
        </mxCell>
        <mxCell id="mF6mXQUsh7CbBCDHEuYY-165" value="Main Page" style="text;html=1;align=center;verticalAlign=middle;resizable=0;points=[];autosize=1;strokeColor=none;fillColor=none;" vertex="1" parent="1">
          <mxGeometry x="1562" y="1403.4299999999998" width="80" height="30" as="geometry" />
        </mxCell>
        <mxCell id="mF6mXQUsh7CbBCDHEuYY-166" value="Main Page" style="text;html=1;align=center;verticalAlign=middle;resizable=0;points=[];autosize=1;strokeColor=none;fillColor=none;" vertex="1" parent="1">
          <mxGeometry x="902" y="1404.4299999999998" width="80" height="30" as="geometry" />
        </mxCell>
        <mxCell id="mF6mXQUsh7CbBCDHEuYY-167" value="Main Page" style="text;html=1;align=center;verticalAlign=middle;resizable=0;points=[];autosize=1;strokeColor=none;fillColor=none;" vertex="1" parent="1">
          <mxGeometry x="610" y="1411.4299999999998" width="80" height="30" as="geometry" />
        </mxCell>
        <mxCell id="mF6mXQUsh7CbBCDHEuYY-168" value="Main Page" style="text;html=1;align=center;verticalAlign=middle;resizable=0;points=[];autosize=1;strokeColor=none;fillColor=none;" vertex="1" parent="1">
          <mxGeometry x="1812" y="1294.4299999999998" width="80" height="30" as="geometry" />
        </mxCell>
        <mxCell id="mF6mXQUsh7CbBCDHEuYY-170" value="Ask Mobile Name" style="rounded=0;whiteSpace=wrap;html=1;" vertex="1" parent="1">
          <mxGeometry x="1054.83" y="1234.4299999999998" width="120" height="60" as="geometry" />
        </mxCell>
        <mxCell id="mF6mXQUsh7CbBCDHEuYY-171" value="" style="edgeStyle=orthogonalEdgeStyle;rounded=0;orthogonalLoop=1;jettySize=auto;html=1;" edge="1" parent="1" source="mF6mXQUsh7CbBCDHEuYY-172" target="mF6mXQUsh7CbBCDHEuYY-170">
          <mxGeometry relative="1" as="geometry" />
        </mxCell>
        <mxCell id="mF6mXQUsh7CbBCDHEuYY-172" value="User Input" style="html=1;strokeWidth=2;shape=manualInput;whiteSpace=wrap;rounded=1;size=26;arcSize=11;rotation=-90;" vertex="1" parent="1">
          <mxGeometry x="1064.83" y="1348.9299999999998" width="100" height="60" as="geometry" />
        </mxCell>
        <mxCell id="mF6mXQUsh7CbBCDHEuYY-173" style="edgeStyle=orthogonalEdgeStyle;rounded=0;orthogonalLoop=1;jettySize=auto;html=1;exitX=0.5;exitY=0;exitDx=0;exitDy=0;entryX=0.5;entryY=0;entryDx=0;entryDy=0;" edge="1" parent="1" source="mF6mXQUsh7CbBCDHEuYY-175" target="mF6mXQUsh7CbBCDHEuYY-170">
          <mxGeometry relative="1" as="geometry" />
        </mxCell>
        <mxCell id="mF6mXQUsh7CbBCDHEuYY-174" value="NO" style="edgeLabel;html=1;align=center;verticalAlign=middle;resizable=0;points=[];" connectable="0" vertex="1" parent="mF6mXQUsh7CbBCDHEuYY-173">
          <mxGeometry x="-0.0476" relative="1" as="geometry">
            <mxPoint as="offset" />
          </mxGeometry>
        </mxCell>
        <mxCell id="KusWGFyg_JtV5qBrXpOA-3" value="" style="edgeStyle=orthogonalEdgeStyle;rounded=0;orthogonalLoop=1;jettySize=auto;html=1;" edge="1" parent="1" source="mF6mXQUsh7CbBCDHEuYY-175" target="mF6mXQUsh7CbBCDHEuYY-153">
          <mxGeometry relative="1" as="geometry" />
        </mxCell>
        <mxCell id="KusWGFyg_JtV5qBrXpOA-4" value="Yes" style="edgeLabel;html=1;align=center;verticalAlign=middle;resizable=0;points=[];" connectable="0" vertex="1" parent="KusWGFyg_JtV5qBrXpOA-3">
          <mxGeometry x="-0.0548" y="-2" relative="1" as="geometry">
            <mxPoint x="1" as="offset" />
          </mxGeometry>
        </mxCell>
        <mxCell id="mF6mXQUsh7CbBCDHEuYY-175" value="Mobile Found?" style="rhombus;whiteSpace=wrap;html=1;" vertex="1" parent="1">
          <mxGeometry x="1214.83" y="1229.9299999999998" width="80" height="80" as="geometry" />
        </mxCell>
        <mxCell id="mF6mXQUsh7CbBCDHEuYY-176" value="" style="edgeStyle=orthogonalEdgeStyle;rounded=0;orthogonalLoop=1;jettySize=auto;html=1;" edge="1" parent="1" source="mF6mXQUsh7CbBCDHEuYY-180" target="mF6mXQUsh7CbBCDHEuYY-182">
          <mxGeometry relative="1" as="geometry" />
        </mxCell>
        <mxCell id="mF6mXQUsh7CbBCDHEuYY-177" value="Yes" style="edgeLabel;html=1;align=center;verticalAlign=middle;resizable=0;points=[];" connectable="0" vertex="1" parent="mF6mXQUsh7CbBCDHEuYY-176">
          <mxGeometry x="-0.1" y="-1" relative="1" as="geometry">
            <mxPoint as="offset" />
          </mxGeometry>
        </mxCell>
        <mxCell id="i-KaayKcMJmaYJloor9x-14" style="edgeStyle=orthogonalEdgeStyle;rounded=0;orthogonalLoop=1;jettySize=auto;html=1;exitX=0.5;exitY=1;exitDx=0;exitDy=0;entryX=0.5;entryY=0;entryDx=0;entryDy=0;" edge="1" parent="1" source="mF6mXQUsh7CbBCDHEuYY-180" target="i-KaayKcMJmaYJloor9x-3">
          <mxGeometry relative="1" as="geometry" />
        </mxCell>
        <mxCell id="i-KaayKcMJmaYJloor9x-15" value="NO" style="edgeLabel;html=1;align=center;verticalAlign=middle;resizable=0;points=[];" connectable="0" vertex="1" parent="i-KaayKcMJmaYJloor9x-14">
          <mxGeometry x="-0.0054" y="3" relative="1" as="geometry">
            <mxPoint x="-1" y="1" as="offset" />
          </mxGeometry>
        </mxCell>
        <mxCell id="mF6mXQUsh7CbBCDHEuYY-180" value="Search By Configurations?" style="rhombus;whiteSpace=wrap;html=1;" vertex="1" parent="1">
          <mxGeometry x="170" y="1571" width="80" height="80" as="geometry" />
        </mxCell>
        <mxCell id="mF6mXQUsh7CbBCDHEuYY-181" style="edgeStyle=orthogonalEdgeStyle;rounded=0;orthogonalLoop=1;jettySize=auto;html=1;exitX=0.5;exitY=1;exitDx=0;exitDy=0;entryX=0.5;entryY=0;entryDx=0;entryDy=0;" edge="1" parent="1" source="mF6mXQUsh7CbBCDHEuYY-182" target="mF6mXQUsh7CbBCDHEuYY-187">
          <mxGeometry relative="1" as="geometry" />
        </mxCell>
        <mxCell id="mF6mXQUsh7CbBCDHEuYY-182" value="Display Config Menu" style="rounded=0;whiteSpace=wrap;html=1;" vertex="1" parent="1">
          <mxGeometry x="290" y="1581" width="120" height="60" as="geometry" />
        </mxCell>
        <mxCell id="mF6mXQUsh7CbBCDHEuYY-183" value="" style="edgeStyle=orthogonalEdgeStyle;rounded=0;orthogonalLoop=1;jettySize=auto;html=1;" edge="1" parent="1" source="mF6mXQUsh7CbBCDHEuYY-187" target="mF6mXQUsh7CbBCDHEuYY-189">
          <mxGeometry relative="1" as="geometry" />
        </mxCell>
        <mxCell id="mF6mXQUsh7CbBCDHEuYY-184" value="Yes" style="edgeLabel;html=1;align=center;verticalAlign=middle;resizable=0;points=[];" connectable="0" vertex="1" parent="mF6mXQUsh7CbBCDHEuYY-183">
          <mxGeometry x="-0.1" y="-1" relative="1" as="geometry">
            <mxPoint as="offset" />
          </mxGeometry>
        </mxCell>
        <mxCell id="mF6mXQUsh7CbBCDHEuYY-185" style="edgeStyle=orthogonalEdgeStyle;rounded=0;orthogonalLoop=1;jettySize=auto;html=1;exitX=0.5;exitY=1;exitDx=0;exitDy=0;entryX=0.5;entryY=0;entryDx=0;entryDy=0;" edge="1" parent="1" source="mF6mXQUsh7CbBCDHEuYY-187" target="mF6mXQUsh7CbBCDHEuYY-205">
          <mxGeometry relative="1" as="geometry" />
        </mxCell>
        <mxCell id="mF6mXQUsh7CbBCDHEuYY-186" value="No" style="edgeLabel;html=1;align=center;verticalAlign=middle;resizable=0;points=[];" connectable="0" vertex="1" parent="mF6mXQUsh7CbBCDHEuYY-185">
          <mxGeometry x="-0.0229" y="1" relative="1" as="geometry">
            <mxPoint as="offset" />
          </mxGeometry>
        </mxCell>
        <mxCell id="mF6mXQUsh7CbBCDHEuYY-187" value="Filter by &lt;br&gt;RAM" style="rhombus;whiteSpace=wrap;html=1;" vertex="1" parent="1">
          <mxGeometry x="310" y="1704" width="80" height="80" as="geometry" />
        </mxCell>
        <mxCell id="mF6mXQUsh7CbBCDHEuYY-188" value="" style="edgeStyle=orthogonalEdgeStyle;rounded=0;orthogonalLoop=1;jettySize=auto;html=1;" edge="1" parent="1" source="mF6mXQUsh7CbBCDHEuYY-189" target="mF6mXQUsh7CbBCDHEuYY-196">
          <mxGeometry relative="1" as="geometry" />
        </mxCell>
        <mxCell id="mF6mXQUsh7CbBCDHEuYY-189" value="Ask RAM" style="rounded=0;whiteSpace=wrap;html=1;" vertex="1" parent="1">
          <mxGeometry x="430" y="1714" width="120" height="60" as="geometry" />
        </mxCell>
        <mxCell id="mF6mXQUsh7CbBCDHEuYY-190" value="" style="edgeStyle=orthogonalEdgeStyle;rounded=0;orthogonalLoop=1;jettySize=auto;html=1;" edge="1" parent="1" source="mF6mXQUsh7CbBCDHEuYY-191" target="mF6mXQUsh7CbBCDHEuYY-189">
          <mxGeometry relative="1" as="geometry" />
        </mxCell>
        <mxCell id="mF6mXQUsh7CbBCDHEuYY-191" value="User Input" style="html=1;strokeWidth=2;shape=manualInput;whiteSpace=wrap;rounded=1;size=26;arcSize=11;rotation=-90;" vertex="1" parent="1">
          <mxGeometry x="440" y="1825" width="100" height="60" as="geometry" />
        </mxCell>
        <mxCell id="mF6mXQUsh7CbBCDHEuYY-192" value="" style="edgeStyle=orthogonalEdgeStyle;rounded=0;orthogonalLoop=1;jettySize=auto;html=1;" edge="1" parent="1" source="mF6mXQUsh7CbBCDHEuYY-196" target="mF6mXQUsh7CbBCDHEuYY-198">
          <mxGeometry relative="1" as="geometry" />
        </mxCell>
        <mxCell id="mF6mXQUsh7CbBCDHEuYY-193" value="Yes" style="edgeLabel;html=1;align=center;verticalAlign=middle;resizable=0;points=[];" connectable="0" vertex="1" parent="mF6mXQUsh7CbBCDHEuYY-192">
          <mxGeometry x="0.32" y="-1" relative="1" as="geometry">
            <mxPoint as="offset" />
          </mxGeometry>
        </mxCell>
        <mxCell id="mF6mXQUsh7CbBCDHEuYY-194" value="" style="edgeStyle=orthogonalEdgeStyle;rounded=0;orthogonalLoop=1;jettySize=auto;html=1;" edge="1" parent="1" source="mF6mXQUsh7CbBCDHEuYY-196" target="mF6mXQUsh7CbBCDHEuYY-257">
          <mxGeometry relative="1" as="geometry" />
        </mxCell>
        <mxCell id="mF6mXQUsh7CbBCDHEuYY-195" value="No" style="edgeLabel;html=1;align=center;verticalAlign=middle;resizable=0;points=[];" connectable="0" vertex="1" parent="mF6mXQUsh7CbBCDHEuYY-194">
          <mxGeometry x="0.2653" relative="1" as="geometry">
            <mxPoint as="offset" />
          </mxGeometry>
        </mxCell>
        <mxCell id="mF6mXQUsh7CbBCDHEuYY-196" value="RAM&lt;br&gt;&amp;nbsp;Found?" style="rhombus;whiteSpace=wrap;html=1;" vertex="1" parent="1">
          <mxGeometry x="618" y="1704" width="80" height="80" as="geometry" />
        </mxCell>
        <mxCell id="mF6mXQUsh7CbBCDHEuYY-197" value="" style="edgeStyle=orthogonalEdgeStyle;rounded=0;orthogonalLoop=1;jettySize=auto;html=1;" edge="1" parent="1" source="mF6mXQUsh7CbBCDHEuYY-198" target="mF6mXQUsh7CbBCDHEuYY-200">
          <mxGeometry relative="1" as="geometry" />
        </mxCell>
        <mxCell id="mF6mXQUsh7CbBCDHEuYY-198" value="Filter Mobiles with RAM" style="rounded=0;whiteSpace=wrap;html=1;" vertex="1" parent="1">
          <mxGeometry x="728" y="1714" width="120" height="60" as="geometry" />
        </mxCell>
        <mxCell id="mF6mXQUsh7CbBCDHEuYY-199" value="" style="edgeStyle=orthogonalEdgeStyle;rounded=0;orthogonalLoop=1;jettySize=auto;html=1;" edge="1" parent="1" source="mF6mXQUsh7CbBCDHEuYY-200" target="mF6mXQUsh7CbBCDHEuYY-265">
          <mxGeometry relative="1" as="geometry" />
        </mxCell>
        <mxCell id="mF6mXQUsh7CbBCDHEuYY-200" value="Display Mobiles" style="rounded=0;whiteSpace=wrap;html=1;" vertex="1" parent="1">
          <mxGeometry x="878" y="1714" width="120" height="60" as="geometry" />
        </mxCell>
        <mxCell id="mF6mXQUsh7CbBCDHEuYY-201" value="" style="edgeStyle=orthogonalEdgeStyle;rounded=0;orthogonalLoop=1;jettySize=auto;html=1;" edge="1" parent="1" source="mF6mXQUsh7CbBCDHEuYY-205" target="mF6mXQUsh7CbBCDHEuYY-207">
          <mxGeometry relative="1" as="geometry" />
        </mxCell>
        <mxCell id="mF6mXQUsh7CbBCDHEuYY-202" value="Yes" style="edgeLabel;html=1;align=center;verticalAlign=middle;resizable=0;points=[];" connectable="0" vertex="1" parent="mF6mXQUsh7CbBCDHEuYY-201">
          <mxGeometry x="-0.2" y="-1" relative="1" as="geometry">
            <mxPoint as="offset" />
          </mxGeometry>
        </mxCell>
        <mxCell id="mF6mXQUsh7CbBCDHEuYY-203" style="edgeStyle=orthogonalEdgeStyle;rounded=0;orthogonalLoop=1;jettySize=auto;html=1;exitX=0.5;exitY=1;exitDx=0;exitDy=0;entryX=0.5;entryY=0;entryDx=0;entryDy=0;" edge="1" parent="1" source="mF6mXQUsh7CbBCDHEuYY-205" target="mF6mXQUsh7CbBCDHEuYY-223">
          <mxGeometry relative="1" as="geometry" />
        </mxCell>
        <mxCell id="mF6mXQUsh7CbBCDHEuYY-204" value="No" style="edgeLabel;html=1;align=center;verticalAlign=middle;resizable=0;points=[];" connectable="0" vertex="1" parent="mF6mXQUsh7CbBCDHEuYY-203">
          <mxGeometry y="2" relative="1" as="geometry">
            <mxPoint as="offset" />
          </mxGeometry>
        </mxCell>
        <mxCell id="mF6mXQUsh7CbBCDHEuYY-205" value="Filter by &lt;br&gt;Storage" style="rhombus;whiteSpace=wrap;html=1;" vertex="1" parent="1">
          <mxGeometry x="310" y="1957" width="80" height="80" as="geometry" />
        </mxCell>
        <mxCell id="mF6mXQUsh7CbBCDHEuYY-206" value="" style="edgeStyle=orthogonalEdgeStyle;rounded=0;orthogonalLoop=1;jettySize=auto;html=1;" edge="1" parent="1" source="mF6mXQUsh7CbBCDHEuYY-207" target="mF6mXQUsh7CbBCDHEuYY-214">
          <mxGeometry relative="1" as="geometry" />
        </mxCell>
        <mxCell id="mF6mXQUsh7CbBCDHEuYY-207" value="Ask Storage" style="rounded=0;whiteSpace=wrap;html=1;" vertex="1" parent="1">
          <mxGeometry x="430" y="1967" width="120" height="60" as="geometry" />
        </mxCell>
        <mxCell id="mF6mXQUsh7CbBCDHEuYY-208" value="" style="edgeStyle=orthogonalEdgeStyle;rounded=0;orthogonalLoop=1;jettySize=auto;html=1;" edge="1" parent="1" source="mF6mXQUsh7CbBCDHEuYY-209" target="mF6mXQUsh7CbBCDHEuYY-207">
          <mxGeometry relative="1" as="geometry" />
        </mxCell>
        <mxCell id="mF6mXQUsh7CbBCDHEuYY-209" value="User Input" style="html=1;strokeWidth=2;shape=manualInput;whiteSpace=wrap;rounded=1;size=26;arcSize=11;rotation=-90;" vertex="1" parent="1">
          <mxGeometry x="440" y="2076" width="100" height="60" as="geometry" />
        </mxCell>
        <mxCell id="mF6mXQUsh7CbBCDHEuYY-210" value="" style="edgeStyle=orthogonalEdgeStyle;rounded=0;orthogonalLoop=1;jettySize=auto;html=1;" edge="1" parent="1" source="mF6mXQUsh7CbBCDHEuYY-214" target="mF6mXQUsh7CbBCDHEuYY-258">
          <mxGeometry relative="1" as="geometry" />
        </mxCell>
        <mxCell id="mF6mXQUsh7CbBCDHEuYY-211" value="No" style="edgeLabel;html=1;align=center;verticalAlign=middle;resizable=0;points=[];" connectable="0" vertex="1" parent="mF6mXQUsh7CbBCDHEuYY-210">
          <mxGeometry x="-0.3659" relative="1" as="geometry">
            <mxPoint as="offset" />
          </mxGeometry>
        </mxCell>
        <mxCell id="mF6mXQUsh7CbBCDHEuYY-212" value="" style="edgeStyle=orthogonalEdgeStyle;rounded=0;orthogonalLoop=1;jettySize=auto;html=1;" edge="1" parent="1" source="mF6mXQUsh7CbBCDHEuYY-214" target="mF6mXQUsh7CbBCDHEuYY-216">
          <mxGeometry relative="1" as="geometry" />
        </mxCell>
        <mxCell id="mF6mXQUsh7CbBCDHEuYY-213" value="Yes" style="edgeLabel;html=1;align=center;verticalAlign=middle;resizable=0;points=[];" connectable="0" vertex="1" parent="mF6mXQUsh7CbBCDHEuYY-212">
          <mxGeometry x="0.32" relative="1" as="geometry">
            <mxPoint as="offset" />
          </mxGeometry>
        </mxCell>
        <mxCell id="mF6mXQUsh7CbBCDHEuYY-214" value="Storage&lt;br&gt;&amp;nbsp;Found?" style="rhombus;whiteSpace=wrap;html=1;" vertex="1" parent="1">
          <mxGeometry x="630" y="1957" width="80" height="80" as="geometry" />
        </mxCell>
        <mxCell id="mF6mXQUsh7CbBCDHEuYY-215" value="" style="edgeStyle=orthogonalEdgeStyle;rounded=0;orthogonalLoop=1;jettySize=auto;html=1;" edge="1" parent="1" source="mF6mXQUsh7CbBCDHEuYY-216" target="mF6mXQUsh7CbBCDHEuYY-218">
          <mxGeometry relative="1" as="geometry" />
        </mxCell>
        <mxCell id="mF6mXQUsh7CbBCDHEuYY-216" value="Filter Mobiles with Storage" style="rounded=0;whiteSpace=wrap;html=1;" vertex="1" parent="1">
          <mxGeometry x="740" y="1967" width="120" height="60" as="geometry" />
        </mxCell>
        <mxCell id="mF6mXQUsh7CbBCDHEuYY-217" value="" style="edgeStyle=orthogonalEdgeStyle;rounded=0;orthogonalLoop=1;jettySize=auto;html=1;" edge="1" parent="1" source="mF6mXQUsh7CbBCDHEuYY-218" target="mF6mXQUsh7CbBCDHEuYY-284">
          <mxGeometry relative="1" as="geometry" />
        </mxCell>
        <mxCell id="mF6mXQUsh7CbBCDHEuYY-218" value="Display Mobiles" style="rounded=0;whiteSpace=wrap;html=1;" vertex="1" parent="1">
          <mxGeometry x="890" y="1967" width="120" height="60" as="geometry" />
        </mxCell>
        <mxCell id="mF6mXQUsh7CbBCDHEuYY-219" value="" style="edgeStyle=orthogonalEdgeStyle;rounded=0;orthogonalLoop=1;jettySize=auto;html=1;" edge="1" parent="1" source="mF6mXQUsh7CbBCDHEuYY-223" target="mF6mXQUsh7CbBCDHEuYY-225">
          <mxGeometry relative="1" as="geometry" />
        </mxCell>
        <mxCell id="mF6mXQUsh7CbBCDHEuYY-220" value="Yes" style="edgeLabel;html=1;align=center;verticalAlign=middle;resizable=0;points=[];" connectable="0" vertex="1" parent="mF6mXQUsh7CbBCDHEuYY-219">
          <mxGeometry x="-0.15" y="-1" relative="1" as="geometry">
            <mxPoint as="offset" />
          </mxGeometry>
        </mxCell>
        <mxCell id="mF6mXQUsh7CbBCDHEuYY-221" style="edgeStyle=orthogonalEdgeStyle;rounded=0;orthogonalLoop=1;jettySize=auto;html=1;exitX=0.5;exitY=1;exitDx=0;exitDy=0;entryX=0.5;entryY=0;entryDx=0;entryDy=0;" edge="1" parent="1" source="mF6mXQUsh7CbBCDHEuYY-223" target="mF6mXQUsh7CbBCDHEuYY-241">
          <mxGeometry relative="1" as="geometry" />
        </mxCell>
        <mxCell id="mF6mXQUsh7CbBCDHEuYY-222" value="No" style="edgeLabel;html=1;align=center;verticalAlign=middle;resizable=0;points=[];" connectable="0" vertex="1" parent="mF6mXQUsh7CbBCDHEuYY-221">
          <mxGeometry relative="1" as="geometry">
            <mxPoint as="offset" />
          </mxGeometry>
        </mxCell>
        <mxCell id="mF6mXQUsh7CbBCDHEuYY-223" value="Filter by &lt;br&gt;Chipset" style="rhombus;whiteSpace=wrap;html=1;" vertex="1" parent="1">
          <mxGeometry x="310" y="2214" width="80" height="80" as="geometry" />
        </mxCell>
        <mxCell id="mF6mXQUsh7CbBCDHEuYY-224" value="" style="edgeStyle=orthogonalEdgeStyle;rounded=0;orthogonalLoop=1;jettySize=auto;html=1;" edge="1" parent="1" source="mF6mXQUsh7CbBCDHEuYY-225" target="mF6mXQUsh7CbBCDHEuYY-232">
          <mxGeometry relative="1" as="geometry" />
        </mxCell>
        <mxCell id="mF6mXQUsh7CbBCDHEuYY-225" value="Ask Chipset" style="rounded=0;whiteSpace=wrap;html=1;" vertex="1" parent="1">
          <mxGeometry x="430" y="2224" width="120" height="60" as="geometry" />
        </mxCell>
        <mxCell id="mF6mXQUsh7CbBCDHEuYY-226" value="" style="edgeStyle=orthogonalEdgeStyle;rounded=0;orthogonalLoop=1;jettySize=auto;html=1;" edge="1" parent="1" source="mF6mXQUsh7CbBCDHEuYY-227" target="mF6mXQUsh7CbBCDHEuYY-225">
          <mxGeometry relative="1" as="geometry" />
        </mxCell>
        <mxCell id="mF6mXQUsh7CbBCDHEuYY-227" value="User Input" style="html=1;strokeWidth=2;shape=manualInput;whiteSpace=wrap;rounded=1;size=26;arcSize=11;rotation=-90;" vertex="1" parent="1">
          <mxGeometry x="440" y="2335" width="100" height="60" as="geometry" />
        </mxCell>
        <mxCell id="mF6mXQUsh7CbBCDHEuYY-228" value="" style="edgeStyle=orthogonalEdgeStyle;rounded=0;orthogonalLoop=1;jettySize=auto;html=1;" edge="1" parent="1" source="mF6mXQUsh7CbBCDHEuYY-232" target="mF6mXQUsh7CbBCDHEuYY-234">
          <mxGeometry relative="1" as="geometry" />
        </mxCell>
        <mxCell id="mF6mXQUsh7CbBCDHEuYY-229" value="Yes" style="edgeLabel;html=1;align=center;verticalAlign=middle;resizable=0;points=[];" connectable="0" vertex="1" parent="mF6mXQUsh7CbBCDHEuYY-228">
          <mxGeometry x="0.36" relative="1" as="geometry">
            <mxPoint as="offset" />
          </mxGeometry>
        </mxCell>
        <mxCell id="mF6mXQUsh7CbBCDHEuYY-230" value="" style="edgeStyle=orthogonalEdgeStyle;rounded=0;orthogonalLoop=1;jettySize=auto;html=1;" edge="1" parent="1" source="mF6mXQUsh7CbBCDHEuYY-232" target="mF6mXQUsh7CbBCDHEuYY-259">
          <mxGeometry relative="1" as="geometry" />
        </mxCell>
        <mxCell id="mF6mXQUsh7CbBCDHEuYY-231" value="No" style="edgeLabel;html=1;align=center;verticalAlign=middle;resizable=0;points=[];" connectable="0" vertex="1" parent="mF6mXQUsh7CbBCDHEuYY-230">
          <mxGeometry x="-0.3171" relative="1" as="geometry">
            <mxPoint as="offset" />
          </mxGeometry>
        </mxCell>
        <mxCell id="mF6mXQUsh7CbBCDHEuYY-232" value="Chipset&lt;br&gt;&amp;nbsp;Found?" style="rhombus;whiteSpace=wrap;html=1;" vertex="1" parent="1">
          <mxGeometry x="670" y="2214" width="80" height="80" as="geometry" />
        </mxCell>
        <mxCell id="mF6mXQUsh7CbBCDHEuYY-233" value="" style="edgeStyle=orthogonalEdgeStyle;rounded=0;orthogonalLoop=1;jettySize=auto;html=1;" edge="1" parent="1" source="mF6mXQUsh7CbBCDHEuYY-234" target="mF6mXQUsh7CbBCDHEuYY-236">
          <mxGeometry relative="1" as="geometry" />
        </mxCell>
        <mxCell id="mF6mXQUsh7CbBCDHEuYY-234" value="Filter Mobiles with Chipset" style="rounded=0;whiteSpace=wrap;html=1;" vertex="1" parent="1">
          <mxGeometry x="780" y="2224" width="120" height="60" as="geometry" />
        </mxCell>
        <mxCell id="mF6mXQUsh7CbBCDHEuYY-235" value="" style="edgeStyle=orthogonalEdgeStyle;rounded=0;orthogonalLoop=1;jettySize=auto;html=1;" edge="1" parent="1" source="mF6mXQUsh7CbBCDHEuYY-236" target="mF6mXQUsh7CbBCDHEuYY-303">
          <mxGeometry relative="1" as="geometry" />
        </mxCell>
        <mxCell id="mF6mXQUsh7CbBCDHEuYY-236" value="Display Mobiles" style="rounded=0;whiteSpace=wrap;html=1;" vertex="1" parent="1">
          <mxGeometry x="930" y="2224" width="120" height="60" as="geometry" />
        </mxCell>
        <mxCell id="mF6mXQUsh7CbBCDHEuYY-237" value="" style="edgeStyle=orthogonalEdgeStyle;rounded=0;orthogonalLoop=1;jettySize=auto;html=1;" edge="1" parent="1" source="mF6mXQUsh7CbBCDHEuYY-241" target="mF6mXQUsh7CbBCDHEuYY-243">
          <mxGeometry relative="1" as="geometry" />
        </mxCell>
        <mxCell id="mF6mXQUsh7CbBCDHEuYY-238" value="Yes" style="edgeLabel;html=1;align=center;verticalAlign=middle;resizable=0;points=[];" connectable="0" vertex="1" parent="mF6mXQUsh7CbBCDHEuYY-237">
          <mxGeometry x="-0.15" y="-1" relative="1" as="geometry">
            <mxPoint as="offset" />
          </mxGeometry>
        </mxCell>
        <mxCell id="KusWGFyg_JtV5qBrXpOA-9" style="edgeStyle=orthogonalEdgeStyle;rounded=0;orthogonalLoop=1;jettySize=auto;html=1;exitX=0.5;exitY=1;exitDx=0;exitDy=0;" edge="1" parent="1" source="mF6mXQUsh7CbBCDHEuYY-241" target="mF6mXQUsh7CbBCDHEuYY-394">
          <mxGeometry relative="1" as="geometry" />
        </mxCell>
        <mxCell id="KusWGFyg_JtV5qBrXpOA-10" value="No" style="edgeLabel;html=1;align=center;verticalAlign=middle;resizable=0;points=[];" connectable="0" vertex="1" parent="KusWGFyg_JtV5qBrXpOA-9">
          <mxGeometry x="-0.0046" y="1" relative="1" as="geometry">
            <mxPoint x="1" as="offset" />
          </mxGeometry>
        </mxCell>
        <mxCell id="mF6mXQUsh7CbBCDHEuYY-241" value="Filter by &lt;br&gt;Camera" style="rhombus;whiteSpace=wrap;html=1;" vertex="1" parent="1">
          <mxGeometry x="310" y="2488" width="80" height="80" as="geometry" />
        </mxCell>
        <mxCell id="mF6mXQUsh7CbBCDHEuYY-242" value="" style="edgeStyle=orthogonalEdgeStyle;rounded=0;orthogonalLoop=1;jettySize=auto;html=1;" edge="1" parent="1" source="mF6mXQUsh7CbBCDHEuYY-243" target="mF6mXQUsh7CbBCDHEuYY-250">
          <mxGeometry relative="1" as="geometry" />
        </mxCell>
        <mxCell id="mF6mXQUsh7CbBCDHEuYY-243" value="Ask Camera" style="rounded=0;whiteSpace=wrap;html=1;" vertex="1" parent="1">
          <mxGeometry x="430" y="2498" width="120" height="60" as="geometry" />
        </mxCell>
        <mxCell id="mF6mXQUsh7CbBCDHEuYY-244" value="" style="edgeStyle=orthogonalEdgeStyle;rounded=0;orthogonalLoop=1;jettySize=auto;html=1;" edge="1" parent="1" source="mF6mXQUsh7CbBCDHEuYY-245" target="mF6mXQUsh7CbBCDHEuYY-243">
          <mxGeometry relative="1" as="geometry" />
        </mxCell>
        <mxCell id="mF6mXQUsh7CbBCDHEuYY-245" value="User Input" style="html=1;strokeWidth=2;shape=manualInput;whiteSpace=wrap;rounded=1;size=26;arcSize=11;rotation=-90;" vertex="1" parent="1">
          <mxGeometry x="440" y="2609" width="100" height="60" as="geometry" />
        </mxCell>
        <mxCell id="mF6mXQUsh7CbBCDHEuYY-246" value="" style="edgeStyle=orthogonalEdgeStyle;rounded=0;orthogonalLoop=1;jettySize=auto;html=1;" edge="1" parent="1" source="mF6mXQUsh7CbBCDHEuYY-250" target="mF6mXQUsh7CbBCDHEuYY-260">
          <mxGeometry relative="1" as="geometry" />
        </mxCell>
        <mxCell id="mF6mXQUsh7CbBCDHEuYY-247" value="No" style="edgeLabel;html=1;align=center;verticalAlign=middle;resizable=0;points=[];" connectable="0" vertex="1" parent="mF6mXQUsh7CbBCDHEuYY-246">
          <mxGeometry x="-0.2683" relative="1" as="geometry">
            <mxPoint as="offset" />
          </mxGeometry>
        </mxCell>
        <mxCell id="mF6mXQUsh7CbBCDHEuYY-248" value="" style="edgeStyle=orthogonalEdgeStyle;rounded=0;orthogonalLoop=1;jettySize=auto;html=1;" edge="1" parent="1" source="mF6mXQUsh7CbBCDHEuYY-250" target="mF6mXQUsh7CbBCDHEuYY-252">
          <mxGeometry relative="1" as="geometry" />
        </mxCell>
        <mxCell id="mF6mXQUsh7CbBCDHEuYY-249" value="Yes" style="edgeLabel;html=1;align=center;verticalAlign=middle;resizable=0;points=[];" connectable="0" vertex="1" parent="mF6mXQUsh7CbBCDHEuYY-248">
          <mxGeometry x="0.24" y="-2" relative="1" as="geometry">
            <mxPoint as="offset" />
          </mxGeometry>
        </mxCell>
        <mxCell id="mF6mXQUsh7CbBCDHEuYY-250" value="Camera&lt;br&gt;&amp;nbsp;Found?" style="rhombus;whiteSpace=wrap;html=1;" vertex="1" parent="1">
          <mxGeometry x="610" y="2488" width="80" height="80" as="geometry" />
        </mxCell>
        <mxCell id="mF6mXQUsh7CbBCDHEuYY-251" value="" style="edgeStyle=orthogonalEdgeStyle;rounded=0;orthogonalLoop=1;jettySize=auto;html=1;" edge="1" parent="1" source="mF6mXQUsh7CbBCDHEuYY-252" target="mF6mXQUsh7CbBCDHEuYY-254">
          <mxGeometry relative="1" as="geometry" />
        </mxCell>
        <mxCell id="mF6mXQUsh7CbBCDHEuYY-252" value="Filter Mobiles with Camera" style="rounded=0;whiteSpace=wrap;html=1;" vertex="1" parent="1">
          <mxGeometry x="720" y="2498" width="120" height="60" as="geometry" />
        </mxCell>
        <mxCell id="mF6mXQUsh7CbBCDHEuYY-253" value="" style="edgeStyle=orthogonalEdgeStyle;rounded=0;orthogonalLoop=1;jettySize=auto;html=1;" edge="1" parent="1" source="mF6mXQUsh7CbBCDHEuYY-254" target="mF6mXQUsh7CbBCDHEuYY-322">
          <mxGeometry relative="1" as="geometry" />
        </mxCell>
        <mxCell id="mF6mXQUsh7CbBCDHEuYY-254" value="Display Mobiles" style="rounded=0;whiteSpace=wrap;html=1;" vertex="1" parent="1">
          <mxGeometry x="870" y="2498" width="120" height="60" as="geometry" />
        </mxCell>
        <mxCell id="mF6mXQUsh7CbBCDHEuYY-255" value="" style="edgeStyle=orthogonalEdgeStyle;rounded=0;orthogonalLoop=1;jettySize=auto;html=1;" edge="1" parent="1" source="mF6mXQUsh7CbBCDHEuYY-256" target="mF6mXQUsh7CbBCDHEuYY-182">
          <mxGeometry relative="1" as="geometry" />
        </mxCell>
        <mxCell id="mF6mXQUsh7CbBCDHEuYY-256" value="" style="ellipse;whiteSpace=wrap;html=1;aspect=fixed;fillColor=#fff2cc;strokeColor=#d6b656;" vertex="1" parent="1">
          <mxGeometry x="450" y="1581" width="60" height="60" as="geometry" />
        </mxCell>
        <mxCell id="mF6mXQUsh7CbBCDHEuYY-257" value="" style="ellipse;whiteSpace=wrap;html=1;aspect=fixed;fillColor=#fff2cc;strokeColor=#d6b656;" vertex="1" parent="1">
          <mxGeometry x="628" y="1815" width="60" height="60" as="geometry" />
        </mxCell>
        <mxCell id="mF6mXQUsh7CbBCDHEuYY-258" value="" style="ellipse;whiteSpace=wrap;html=1;aspect=fixed;fillColor=#fff2cc;strokeColor=#d6b656;" vertex="1" parent="1">
          <mxGeometry x="640" y="2076" width="60" height="60" as="geometry" />
        </mxCell>
        <mxCell id="mF6mXQUsh7CbBCDHEuYY-259" value="" style="ellipse;whiteSpace=wrap;html=1;aspect=fixed;fillColor=#fff2cc;strokeColor=#d6b656;" vertex="1" parent="1">
          <mxGeometry x="680" y="2335" width="60" height="60" as="geometry" />
        </mxCell>
        <mxCell id="mF6mXQUsh7CbBCDHEuYY-260" value="" style="ellipse;whiteSpace=wrap;html=1;aspect=fixed;fillColor=#fff2cc;strokeColor=#d6b656;" vertex="1" parent="1">
          <mxGeometry x="620" y="2609" width="60" height="60" as="geometry" />
        </mxCell>
        <mxCell id="mF6mXQUsh7CbBCDHEuYY-261" value="" style="edgeStyle=orthogonalEdgeStyle;rounded=0;orthogonalLoop=1;jettySize=auto;html=1;" edge="1" parent="1" source="mF6mXQUsh7CbBCDHEuYY-265" target="mF6mXQUsh7CbBCDHEuYY-266">
          <mxGeometry relative="1" as="geometry" />
        </mxCell>
        <mxCell id="mF6mXQUsh7CbBCDHEuYY-262" value="No" style="edgeLabel;html=1;align=center;verticalAlign=middle;resizable=0;points=[];" connectable="0" vertex="1" parent="mF6mXQUsh7CbBCDHEuYY-261">
          <mxGeometry y="-1" relative="1" as="geometry">
            <mxPoint as="offset" />
          </mxGeometry>
        </mxCell>
        <mxCell id="mF6mXQUsh7CbBCDHEuYY-263" value="" style="edgeStyle=orthogonalEdgeStyle;rounded=0;orthogonalLoop=1;jettySize=auto;html=1;" edge="1" parent="1" source="mF6mXQUsh7CbBCDHEuYY-265" target="mF6mXQUsh7CbBCDHEuYY-360">
          <mxGeometry relative="1" as="geometry" />
        </mxCell>
        <mxCell id="mF6mXQUsh7CbBCDHEuYY-264" value="Yes" style="edgeLabel;html=1;align=center;verticalAlign=middle;resizable=0;points=[];" connectable="0" vertex="1" parent="mF6mXQUsh7CbBCDHEuYY-263">
          <mxGeometry x="-0.1614" y="-2" relative="1" as="geometry">
            <mxPoint as="offset" />
          </mxGeometry>
        </mxCell>
        <mxCell id="mF6mXQUsh7CbBCDHEuYY-265" value="Want to Buy?" style="rhombus;whiteSpace=wrap;html=1;" vertex="1" parent="1">
          <mxGeometry x="1027" y="1706" width="80" height="80" as="geometry" />
        </mxCell>
        <mxCell id="mF6mXQUsh7CbBCDHEuYY-266" value="" style="ellipse;whiteSpace=wrap;html=1;aspect=fixed;fillColor=#fff2cc;strokeColor=#d6b656;" vertex="1" parent="1">
          <mxGeometry x="1037" y="1826" width="60" height="60" as="geometry" />
        </mxCell>
        <mxCell id="mF6mXQUsh7CbBCDHEuYY-267" value="" style="edgeStyle=orthogonalEdgeStyle;rounded=0;orthogonalLoop=1;jettySize=auto;html=1;" edge="1" parent="1" source="mF6mXQUsh7CbBCDHEuYY-268" target="mF6mXQUsh7CbBCDHEuYY-275">
          <mxGeometry relative="1" as="geometry" />
        </mxCell>
        <mxCell id="mF6mXQUsh7CbBCDHEuYY-268" value="Ask User to add details" style="rounded=0;whiteSpace=wrap;html=1;" vertex="1" parent="1">
          <mxGeometry x="1507" y="1719.54" width="120" height="60" as="geometry" />
        </mxCell>
        <mxCell id="mF6mXQUsh7CbBCDHEuYY-269" value="" style="edgeStyle=orthogonalEdgeStyle;rounded=0;orthogonalLoop=1;jettySize=auto;html=1;" edge="1" parent="1" source="mF6mXQUsh7CbBCDHEuYY-270" target="mF6mXQUsh7CbBCDHEuYY-268">
          <mxGeometry relative="1" as="geometry" />
        </mxCell>
        <mxCell id="mF6mXQUsh7CbBCDHEuYY-270" value="User Input" style="html=1;strokeWidth=2;shape=manualInput;whiteSpace=wrap;rounded=1;size=26;arcSize=11;rotation=-90;" vertex="1" parent="1">
          <mxGeometry x="1517" y="1826" width="100" height="60" as="geometry" />
        </mxCell>
        <mxCell id="mF6mXQUsh7CbBCDHEuYY-271" value="" style="edgeStyle=orthogonalEdgeStyle;rounded=0;orthogonalLoop=1;jettySize=auto;html=1;" edge="1" parent="1" source="mF6mXQUsh7CbBCDHEuYY-275" target="mF6mXQUsh7CbBCDHEuYY-279">
          <mxGeometry relative="1" as="geometry" />
        </mxCell>
        <mxCell id="mF6mXQUsh7CbBCDHEuYY-272" value="No" style="edgeLabel;html=1;align=center;verticalAlign=middle;resizable=0;points=[];" connectable="0" vertex="1" parent="mF6mXQUsh7CbBCDHEuYY-271">
          <mxGeometry x="-0.0794" relative="1" as="geometry">
            <mxPoint as="offset" />
          </mxGeometry>
        </mxCell>
        <mxCell id="mF6mXQUsh7CbBCDHEuYY-273" value="" style="edgeStyle=orthogonalEdgeStyle;rounded=0;orthogonalLoop=1;jettySize=auto;html=1;" edge="1" parent="1" source="mF6mXQUsh7CbBCDHEuYY-275" target="mF6mXQUsh7CbBCDHEuYY-277">
          <mxGeometry relative="1" as="geometry" />
        </mxCell>
        <mxCell id="mF6mXQUsh7CbBCDHEuYY-274" value="Yes" style="edgeLabel;html=1;align=center;verticalAlign=middle;resizable=0;points=[];" connectable="0" vertex="1" parent="mF6mXQUsh7CbBCDHEuYY-273">
          <mxGeometry x="0.3278" y="-3" relative="1" as="geometry">
            <mxPoint as="offset" />
          </mxGeometry>
        </mxCell>
        <mxCell id="mF6mXQUsh7CbBCDHEuYY-275" value="Confirm?" style="rhombus;whiteSpace=wrap;html=1;" vertex="1" parent="1">
          <mxGeometry x="1667" y="1709" width="80" height="80" as="geometry" />
        </mxCell>
        <mxCell id="mF6mXQUsh7CbBCDHEuYY-276" value="" style="edgeStyle=orthogonalEdgeStyle;rounded=0;orthogonalLoop=1;jettySize=auto;html=1;" edge="1" parent="1" source="mF6mXQUsh7CbBCDHEuYY-277" target="mF6mXQUsh7CbBCDHEuYY-278">
          <mxGeometry relative="1" as="geometry" />
        </mxCell>
        <mxCell id="mF6mXQUsh7CbBCDHEuYY-277" value="Save Details to Database" style="rounded=0;whiteSpace=wrap;html=1;" vertex="1" parent="1">
          <mxGeometry x="1777" y="1719" width="120" height="60" as="geometry" />
        </mxCell>
        <mxCell id="mF6mXQUsh7CbBCDHEuYY-278" value="" style="ellipse;whiteSpace=wrap;html=1;aspect=fixed;fillColor=#f8cecc;strokeColor=#b85450;" vertex="1" parent="1">
          <mxGeometry x="1927" y="1719" width="60" height="60" as="geometry" />
        </mxCell>
        <mxCell id="mF6mXQUsh7CbBCDHEuYY-279" value="" style="ellipse;whiteSpace=wrap;html=1;aspect=fixed;fillColor=#fff2cc;strokeColor=#d6b656;" vertex="1" parent="1">
          <mxGeometry x="1677" y="1829" width="60" height="60" as="geometry" />
        </mxCell>
        <mxCell id="mF6mXQUsh7CbBCDHEuYY-280" value="" style="edgeStyle=orthogonalEdgeStyle;rounded=0;orthogonalLoop=1;jettySize=auto;html=1;" edge="1" parent="1" source="mF6mXQUsh7CbBCDHEuYY-284" target="mF6mXQUsh7CbBCDHEuYY-285">
          <mxGeometry relative="1" as="geometry" />
        </mxCell>
        <mxCell id="mF6mXQUsh7CbBCDHEuYY-281" value="No" style="edgeLabel;html=1;align=center;verticalAlign=middle;resizable=0;points=[];" connectable="0" vertex="1" parent="mF6mXQUsh7CbBCDHEuYY-280">
          <mxGeometry y="-1" relative="1" as="geometry">
            <mxPoint as="offset" />
          </mxGeometry>
        </mxCell>
        <mxCell id="mF6mXQUsh7CbBCDHEuYY-282" value="" style="edgeStyle=orthogonalEdgeStyle;rounded=0;orthogonalLoop=1;jettySize=auto;html=1;" edge="1" parent="1" source="mF6mXQUsh7CbBCDHEuYY-284" target="mF6mXQUsh7CbBCDHEuYY-368">
          <mxGeometry relative="1" as="geometry" />
        </mxCell>
        <mxCell id="mF6mXQUsh7CbBCDHEuYY-283" value="Yes" style="edgeLabel;html=1;align=center;verticalAlign=middle;resizable=0;points=[];" connectable="0" vertex="1" parent="mF6mXQUsh7CbBCDHEuYY-282">
          <mxGeometry x="0.0424" y="-1" relative="1" as="geometry">
            <mxPoint as="offset" />
          </mxGeometry>
        </mxCell>
        <mxCell id="mF6mXQUsh7CbBCDHEuYY-284" value="Want to Buy?" style="rhombus;whiteSpace=wrap;html=1;" vertex="1" parent="1">
          <mxGeometry x="1039" y="1957" width="80" height="80" as="geometry" />
        </mxCell>
        <mxCell id="mF6mXQUsh7CbBCDHEuYY-285" value="" style="ellipse;whiteSpace=wrap;html=1;aspect=fixed;fillColor=#fff2cc;strokeColor=#d6b656;" vertex="1" parent="1">
          <mxGeometry x="1049" y="2077" width="60" height="60" as="geometry" />
        </mxCell>
        <mxCell id="mF6mXQUsh7CbBCDHEuYY-286" value="" style="edgeStyle=orthogonalEdgeStyle;rounded=0;orthogonalLoop=1;jettySize=auto;html=1;" edge="1" parent="1" source="mF6mXQUsh7CbBCDHEuYY-287" target="mF6mXQUsh7CbBCDHEuYY-294">
          <mxGeometry relative="1" as="geometry" />
        </mxCell>
        <mxCell id="mF6mXQUsh7CbBCDHEuYY-287" value="Ask User to add details" style="rounded=0;whiteSpace=wrap;html=1;" vertex="1" parent="1">
          <mxGeometry x="1559" y="1972.5599999999995" width="120" height="60" as="geometry" />
        </mxCell>
        <mxCell id="mF6mXQUsh7CbBCDHEuYY-288" value="" style="edgeStyle=orthogonalEdgeStyle;rounded=0;orthogonalLoop=1;jettySize=auto;html=1;" edge="1" parent="1" source="mF6mXQUsh7CbBCDHEuYY-289" target="mF6mXQUsh7CbBCDHEuYY-287">
          <mxGeometry relative="1" as="geometry" />
        </mxCell>
        <mxCell id="mF6mXQUsh7CbBCDHEuYY-289" value="User Input" style="html=1;strokeWidth=2;shape=manualInput;whiteSpace=wrap;rounded=1;size=26;arcSize=11;rotation=-90;" vertex="1" parent="1">
          <mxGeometry x="1569" y="2077" width="100" height="60" as="geometry" />
        </mxCell>
        <mxCell id="mF6mXQUsh7CbBCDHEuYY-290" value="" style="edgeStyle=orthogonalEdgeStyle;rounded=0;orthogonalLoop=1;jettySize=auto;html=1;" edge="1" parent="1" source="mF6mXQUsh7CbBCDHEuYY-294" target="mF6mXQUsh7CbBCDHEuYY-298">
          <mxGeometry relative="1" as="geometry" />
        </mxCell>
        <mxCell id="mF6mXQUsh7CbBCDHEuYY-291" value="No" style="edgeLabel;html=1;align=center;verticalAlign=middle;resizable=0;points=[];" connectable="0" vertex="1" parent="mF6mXQUsh7CbBCDHEuYY-290">
          <mxGeometry x="-0.0794" relative="1" as="geometry">
            <mxPoint as="offset" />
          </mxGeometry>
        </mxCell>
        <mxCell id="mF6mXQUsh7CbBCDHEuYY-292" value="" style="edgeStyle=orthogonalEdgeStyle;rounded=0;orthogonalLoop=1;jettySize=auto;html=1;" edge="1" parent="1" source="mF6mXQUsh7CbBCDHEuYY-294" target="mF6mXQUsh7CbBCDHEuYY-296">
          <mxGeometry relative="1" as="geometry" />
        </mxCell>
        <mxCell id="mF6mXQUsh7CbBCDHEuYY-293" value="Yes" style="edgeLabel;html=1;align=center;verticalAlign=middle;resizable=0;points=[];" connectable="0" vertex="1" parent="mF6mXQUsh7CbBCDHEuYY-292">
          <mxGeometry x="0.3278" y="-3" relative="1" as="geometry">
            <mxPoint as="offset" />
          </mxGeometry>
        </mxCell>
        <mxCell id="mF6mXQUsh7CbBCDHEuYY-294" value="Confirm?" style="rhombus;whiteSpace=wrap;html=1;" vertex="1" parent="1">
          <mxGeometry x="1719" y="1963" width="80" height="80" as="geometry" />
        </mxCell>
        <mxCell id="mF6mXQUsh7CbBCDHEuYY-295" value="" style="edgeStyle=orthogonalEdgeStyle;rounded=0;orthogonalLoop=1;jettySize=auto;html=1;" edge="1" parent="1" source="mF6mXQUsh7CbBCDHEuYY-296" target="mF6mXQUsh7CbBCDHEuYY-297">
          <mxGeometry relative="1" as="geometry" />
        </mxCell>
        <mxCell id="mF6mXQUsh7CbBCDHEuYY-296" value="Save Details to Database" style="rounded=0;whiteSpace=wrap;html=1;" vertex="1" parent="1">
          <mxGeometry x="1829" y="1973" width="120" height="60" as="geometry" />
        </mxCell>
        <mxCell id="mF6mXQUsh7CbBCDHEuYY-297" value="" style="ellipse;whiteSpace=wrap;html=1;aspect=fixed;fillColor=#f8cecc;strokeColor=#b85450;" vertex="1" parent="1">
          <mxGeometry x="1979" y="1973" width="60" height="60" as="geometry" />
        </mxCell>
        <mxCell id="mF6mXQUsh7CbBCDHEuYY-298" value="" style="ellipse;whiteSpace=wrap;html=1;aspect=fixed;fillColor=#fff2cc;strokeColor=#d6b656;" vertex="1" parent="1">
          <mxGeometry x="1729" y="2083" width="60" height="60" as="geometry" />
        </mxCell>
        <mxCell id="mF6mXQUsh7CbBCDHEuYY-299" value="" style="edgeStyle=orthogonalEdgeStyle;rounded=0;orthogonalLoop=1;jettySize=auto;html=1;" edge="1" parent="1" source="mF6mXQUsh7CbBCDHEuYY-303" target="mF6mXQUsh7CbBCDHEuYY-304">
          <mxGeometry relative="1" as="geometry" />
        </mxCell>
        <mxCell id="mF6mXQUsh7CbBCDHEuYY-300" value="No" style="edgeLabel;html=1;align=center;verticalAlign=middle;resizable=0;points=[];" connectable="0" vertex="1" parent="mF6mXQUsh7CbBCDHEuYY-299">
          <mxGeometry y="-1" relative="1" as="geometry">
            <mxPoint as="offset" />
          </mxGeometry>
        </mxCell>
        <mxCell id="mF6mXQUsh7CbBCDHEuYY-301" value="" style="edgeStyle=orthogonalEdgeStyle;rounded=0;orthogonalLoop=1;jettySize=auto;html=1;" edge="1" parent="1" source="mF6mXQUsh7CbBCDHEuYY-303" target="mF6mXQUsh7CbBCDHEuYY-376">
          <mxGeometry relative="1" as="geometry" />
        </mxCell>
        <mxCell id="mF6mXQUsh7CbBCDHEuYY-302" value="Yes" style="edgeLabel;html=1;align=center;verticalAlign=middle;resizable=0;points=[];" connectable="0" vertex="1" parent="mF6mXQUsh7CbBCDHEuYY-301">
          <mxGeometry x="-0.0128" y="-2" relative="1" as="geometry">
            <mxPoint x="-2" y="2" as="offset" />
          </mxGeometry>
        </mxCell>
        <mxCell id="mF6mXQUsh7CbBCDHEuYY-303" value="Want to Buy?" style="rhombus;whiteSpace=wrap;html=1;" vertex="1" parent="1">
          <mxGeometry x="1079" y="2215" width="80" height="80" as="geometry" />
        </mxCell>
        <mxCell id="mF6mXQUsh7CbBCDHEuYY-304" value="" style="ellipse;whiteSpace=wrap;html=1;aspect=fixed;fillColor=#fff2cc;strokeColor=#d6b656;" vertex="1" parent="1">
          <mxGeometry x="1089" y="2335" width="60" height="60" as="geometry" />
        </mxCell>
        <mxCell id="mF6mXQUsh7CbBCDHEuYY-305" value="" style="edgeStyle=orthogonalEdgeStyle;rounded=0;orthogonalLoop=1;jettySize=auto;html=1;" edge="1" parent="1" source="mF6mXQUsh7CbBCDHEuYY-306" target="mF6mXQUsh7CbBCDHEuYY-313">
          <mxGeometry relative="1" as="geometry" />
        </mxCell>
        <mxCell id="mF6mXQUsh7CbBCDHEuYY-306" value="Ask User to add details" style="rounded=0;whiteSpace=wrap;html=1;" vertex="1" parent="1">
          <mxGeometry x="1609" y="2230.49" width="120" height="60" as="geometry" />
        </mxCell>
        <mxCell id="mF6mXQUsh7CbBCDHEuYY-307" value="" style="edgeStyle=orthogonalEdgeStyle;rounded=0;orthogonalLoop=1;jettySize=auto;html=1;" edge="1" parent="1" target="mF6mXQUsh7CbBCDHEuYY-306">
          <mxGeometry relative="1" as="geometry">
            <mxPoint x="1669" y="2315" as="sourcePoint" />
          </mxGeometry>
        </mxCell>
        <mxCell id="mF6mXQUsh7CbBCDHEuYY-308" value="User Input" style="html=1;strokeWidth=2;shape=manualInput;whiteSpace=wrap;rounded=1;size=26;arcSize=11;rotation=-90;" vertex="1" parent="1">
          <mxGeometry x="1619" y="2336" width="100" height="60" as="geometry" />
        </mxCell>
        <mxCell id="mF6mXQUsh7CbBCDHEuYY-309" value="" style="edgeStyle=orthogonalEdgeStyle;rounded=0;orthogonalLoop=1;jettySize=auto;html=1;" edge="1" parent="1" source="mF6mXQUsh7CbBCDHEuYY-313" target="mF6mXQUsh7CbBCDHEuYY-317">
          <mxGeometry relative="1" as="geometry" />
        </mxCell>
        <mxCell id="mF6mXQUsh7CbBCDHEuYY-310" value="No" style="edgeLabel;html=1;align=center;verticalAlign=middle;resizable=0;points=[];" connectable="0" vertex="1" parent="mF6mXQUsh7CbBCDHEuYY-309">
          <mxGeometry x="-0.0794" relative="1" as="geometry">
            <mxPoint as="offset" />
          </mxGeometry>
        </mxCell>
        <mxCell id="mF6mXQUsh7CbBCDHEuYY-311" value="" style="edgeStyle=orthogonalEdgeStyle;rounded=0;orthogonalLoop=1;jettySize=auto;html=1;" edge="1" parent="1" source="mF6mXQUsh7CbBCDHEuYY-313" target="mF6mXQUsh7CbBCDHEuYY-315">
          <mxGeometry relative="1" as="geometry" />
        </mxCell>
        <mxCell id="mF6mXQUsh7CbBCDHEuYY-312" value="Yes" style="edgeLabel;html=1;align=center;verticalAlign=middle;resizable=0;points=[];" connectable="0" vertex="1" parent="mF6mXQUsh7CbBCDHEuYY-311">
          <mxGeometry x="0.3278" y="-3" relative="1" as="geometry">
            <mxPoint as="offset" />
          </mxGeometry>
        </mxCell>
        <mxCell id="mF6mXQUsh7CbBCDHEuYY-313" value="Confirm?" style="rhombus;whiteSpace=wrap;html=1;" vertex="1" parent="1">
          <mxGeometry x="1769" y="2221" width="80" height="80" as="geometry" />
        </mxCell>
        <mxCell id="mF6mXQUsh7CbBCDHEuYY-314" value="" style="edgeStyle=orthogonalEdgeStyle;rounded=0;orthogonalLoop=1;jettySize=auto;html=1;" edge="1" parent="1" source="mF6mXQUsh7CbBCDHEuYY-315" target="mF6mXQUsh7CbBCDHEuYY-316">
          <mxGeometry relative="1" as="geometry" />
        </mxCell>
        <mxCell id="mF6mXQUsh7CbBCDHEuYY-315" value="Save Details to Database" style="rounded=0;whiteSpace=wrap;html=1;" vertex="1" parent="1">
          <mxGeometry x="1879" y="2231" width="120" height="60" as="geometry" />
        </mxCell>
        <mxCell id="mF6mXQUsh7CbBCDHEuYY-316" value="" style="ellipse;whiteSpace=wrap;html=1;aspect=fixed;fillColor=#f8cecc;strokeColor=#b85450;" vertex="1" parent="1">
          <mxGeometry x="2029" y="2231" width="60" height="60" as="geometry" />
        </mxCell>
        <mxCell id="mF6mXQUsh7CbBCDHEuYY-317" value="" style="ellipse;whiteSpace=wrap;html=1;aspect=fixed;fillColor=#fff2cc;strokeColor=#d6b656;" vertex="1" parent="1">
          <mxGeometry x="1779" y="2341" width="60" height="60" as="geometry" />
        </mxCell>
        <mxCell id="mF6mXQUsh7CbBCDHEuYY-318" value="" style="edgeStyle=orthogonalEdgeStyle;rounded=0;orthogonalLoop=1;jettySize=auto;html=1;" edge="1" parent="1" source="mF6mXQUsh7CbBCDHEuYY-322" target="mF6mXQUsh7CbBCDHEuYY-323">
          <mxGeometry relative="1" as="geometry" />
        </mxCell>
        <mxCell id="mF6mXQUsh7CbBCDHEuYY-319" value="No" style="edgeLabel;html=1;align=center;verticalAlign=middle;resizable=0;points=[];" connectable="0" vertex="1" parent="mF6mXQUsh7CbBCDHEuYY-318">
          <mxGeometry y="-1" relative="1" as="geometry">
            <mxPoint as="offset" />
          </mxGeometry>
        </mxCell>
        <mxCell id="mF6mXQUsh7CbBCDHEuYY-320" value="" style="edgeStyle=orthogonalEdgeStyle;rounded=0;orthogonalLoop=1;jettySize=auto;html=1;" edge="1" parent="1" source="mF6mXQUsh7CbBCDHEuYY-322" target="mF6mXQUsh7CbBCDHEuYY-384">
          <mxGeometry relative="1" as="geometry" />
        </mxCell>
        <mxCell id="mF6mXQUsh7CbBCDHEuYY-321" value="Yes" style="edgeLabel;html=1;align=center;verticalAlign=middle;resizable=0;points=[];" connectable="0" vertex="1" parent="mF6mXQUsh7CbBCDHEuYY-320">
          <mxGeometry x="-0.1306" y="-2" relative="1" as="geometry">
            <mxPoint as="offset" />
          </mxGeometry>
        </mxCell>
        <mxCell id="mF6mXQUsh7CbBCDHEuYY-322" value="Want to Buy?" style="rhombus;whiteSpace=wrap;html=1;" vertex="1" parent="1">
          <mxGeometry x="1019" y="2488" width="80" height="80" as="geometry" />
        </mxCell>
        <mxCell id="mF6mXQUsh7CbBCDHEuYY-323" value="" style="ellipse;whiteSpace=wrap;html=1;aspect=fixed;fillColor=#fff2cc;strokeColor=#d6b656;" vertex="1" parent="1">
          <mxGeometry x="1029" y="2608" width="60" height="60" as="geometry" />
        </mxCell>
        <mxCell id="mF6mXQUsh7CbBCDHEuYY-324" value="" style="edgeStyle=orthogonalEdgeStyle;rounded=0;orthogonalLoop=1;jettySize=auto;html=1;" edge="1" parent="1" source="mF6mXQUsh7CbBCDHEuYY-325" target="mF6mXQUsh7CbBCDHEuYY-332">
          <mxGeometry relative="1" as="geometry" />
        </mxCell>
        <mxCell id="mF6mXQUsh7CbBCDHEuYY-325" value="Ask User to add details" style="rounded=0;whiteSpace=wrap;html=1;" vertex="1" parent="1">
          <mxGeometry x="1549" y="2498" width="120" height="60" as="geometry" />
        </mxCell>
        <mxCell id="mF6mXQUsh7CbBCDHEuYY-326" value="" style="edgeStyle=orthogonalEdgeStyle;rounded=0;orthogonalLoop=1;jettySize=auto;html=1;" edge="1" parent="1" source="mF6mXQUsh7CbBCDHEuYY-327" target="mF6mXQUsh7CbBCDHEuYY-325">
          <mxGeometry relative="1" as="geometry" />
        </mxCell>
        <mxCell id="mF6mXQUsh7CbBCDHEuYY-327" value="User Input" style="html=1;strokeWidth=2;shape=manualInput;whiteSpace=wrap;rounded=1;size=26;arcSize=11;rotation=-90;" vertex="1" parent="1">
          <mxGeometry x="1559" y="2608" width="100" height="60" as="geometry" />
        </mxCell>
        <mxCell id="mF6mXQUsh7CbBCDHEuYY-328" value="" style="edgeStyle=orthogonalEdgeStyle;rounded=0;orthogonalLoop=1;jettySize=auto;html=1;" edge="1" parent="1" source="mF6mXQUsh7CbBCDHEuYY-332" target="mF6mXQUsh7CbBCDHEuYY-336">
          <mxGeometry relative="1" as="geometry" />
        </mxCell>
        <mxCell id="mF6mXQUsh7CbBCDHEuYY-329" value="No" style="edgeLabel;html=1;align=center;verticalAlign=middle;resizable=0;points=[];" connectable="0" vertex="1" parent="mF6mXQUsh7CbBCDHEuYY-328">
          <mxGeometry x="-0.0794" relative="1" as="geometry">
            <mxPoint as="offset" />
          </mxGeometry>
        </mxCell>
        <mxCell id="mF6mXQUsh7CbBCDHEuYY-330" value="" style="edgeStyle=orthogonalEdgeStyle;rounded=0;orthogonalLoop=1;jettySize=auto;html=1;" edge="1" parent="1" source="mF6mXQUsh7CbBCDHEuYY-332" target="mF6mXQUsh7CbBCDHEuYY-334">
          <mxGeometry relative="1" as="geometry" />
        </mxCell>
        <mxCell id="mF6mXQUsh7CbBCDHEuYY-331" value="Yes" style="edgeLabel;html=1;align=center;verticalAlign=middle;resizable=0;points=[];" connectable="0" vertex="1" parent="mF6mXQUsh7CbBCDHEuYY-330">
          <mxGeometry x="0.3278" y="-3" relative="1" as="geometry">
            <mxPoint as="offset" />
          </mxGeometry>
        </mxCell>
        <mxCell id="mF6mXQUsh7CbBCDHEuYY-332" value="Confirm?" style="rhombus;whiteSpace=wrap;html=1;" vertex="1" parent="1">
          <mxGeometry x="1709" y="2489" width="80" height="80" as="geometry" />
        </mxCell>
        <mxCell id="mF6mXQUsh7CbBCDHEuYY-333" value="" style="edgeStyle=orthogonalEdgeStyle;rounded=0;orthogonalLoop=1;jettySize=auto;html=1;" edge="1" parent="1" source="mF6mXQUsh7CbBCDHEuYY-334" target="mF6mXQUsh7CbBCDHEuYY-335">
          <mxGeometry relative="1" as="geometry" />
        </mxCell>
        <mxCell id="mF6mXQUsh7CbBCDHEuYY-334" value="Save Details to Database" style="rounded=0;whiteSpace=wrap;html=1;" vertex="1" parent="1">
          <mxGeometry x="1819" y="2499" width="120" height="60" as="geometry" />
        </mxCell>
        <mxCell id="mF6mXQUsh7CbBCDHEuYY-335" value="" style="ellipse;whiteSpace=wrap;html=1;aspect=fixed;fillColor=#f8cecc;strokeColor=#b85450;" vertex="1" parent="1">
          <mxGeometry x="1969" y="2499" width="60" height="60" as="geometry" />
        </mxCell>
        <mxCell id="mF6mXQUsh7CbBCDHEuYY-336" value="" style="ellipse;whiteSpace=wrap;html=1;aspect=fixed;fillColor=#fff2cc;strokeColor=#d6b656;" vertex="1" parent="1">
          <mxGeometry x="1719" y="2609" width="60" height="60" as="geometry" />
        </mxCell>
        <mxCell id="mF6mXQUsh7CbBCDHEuYY-343" value="Main Page" style="text;html=1;align=center;verticalAlign=middle;resizable=0;points=[];autosize=1;strokeColor=none;fillColor=none;" vertex="1" parent="1">
          <mxGeometry x="1917" y="1777" width="80" height="30" as="geometry" />
        </mxCell>
        <mxCell id="mF6mXQUsh7CbBCDHEuYY-344" value="Main Page" style="text;html=1;align=center;verticalAlign=middle;resizable=0;points=[];autosize=1;strokeColor=none;fillColor=none;" vertex="1" parent="1">
          <mxGeometry x="2019" y="2291" width="80" height="30" as="geometry" />
        </mxCell>
        <mxCell id="mF6mXQUsh7CbBCDHEuYY-345" value="Main Page" style="text;html=1;align=center;verticalAlign=middle;resizable=0;points=[];autosize=1;strokeColor=none;fillColor=none;" vertex="1" parent="1">
          <mxGeometry x="1969" y="2033" width="80" height="30" as="geometry" />
        </mxCell>
        <mxCell id="mF6mXQUsh7CbBCDHEuYY-346" value="Main Page" style="text;html=1;align=center;verticalAlign=middle;resizable=0;points=[];autosize=1;strokeColor=none;fillColor=none;" vertex="1" parent="1">
          <mxGeometry x="1959" y="2559" width="80" height="30" as="geometry" />
        </mxCell>
        <mxCell id="mF6mXQUsh7CbBCDHEuYY-347" value="Config Menu" style="text;html=1;align=center;verticalAlign=middle;resizable=0;points=[];autosize=1;strokeColor=none;fillColor=none;" vertex="1" parent="1">
          <mxGeometry x="434" y="1641" width="90" height="30" as="geometry" />
        </mxCell>
        <mxCell id="mF6mXQUsh7CbBCDHEuYY-348" value="Config Menu" style="text;html=1;align=center;verticalAlign=middle;resizable=0;points=[];autosize=1;strokeColor=none;fillColor=none;" vertex="1" parent="1">
          <mxGeometry x="613" y="1875" width="90" height="30" as="geometry" />
        </mxCell>
        <mxCell id="mF6mXQUsh7CbBCDHEuYY-349" value="Config Menu" style="text;html=1;align=center;verticalAlign=middle;resizable=0;points=[];autosize=1;strokeColor=none;fillColor=none;" vertex="1" parent="1">
          <mxGeometry x="1662" y="1885" width="90" height="30" as="geometry" />
        </mxCell>
        <mxCell id="mF6mXQUsh7CbBCDHEuYY-350" value="Config Menu" style="text;html=1;align=center;verticalAlign=middle;resizable=0;points=[];autosize=1;strokeColor=none;fillColor=none;" vertex="1" parent="1">
          <mxGeometry x="1022" y="1886" width="90" height="30" as="geometry" />
        </mxCell>
        <mxCell id="mF6mXQUsh7CbBCDHEuYY-351" value="Config Menu" style="text;html=1;align=center;verticalAlign=middle;resizable=0;points=[];autosize=1;strokeColor=none;fillColor=none;" vertex="1" parent="1">
          <mxGeometry x="1034" y="2136" width="90" height="30" as="geometry" />
        </mxCell>
        <mxCell id="mF6mXQUsh7CbBCDHEuYY-352" value="Config Menu" style="text;html=1;align=center;verticalAlign=middle;resizable=0;points=[];autosize=1;strokeColor=none;fillColor=none;" vertex="1" parent="1">
          <mxGeometry x="1714" y="2137" width="90" height="30" as="geometry" />
        </mxCell>
        <mxCell id="mF6mXQUsh7CbBCDHEuYY-353" value="Config Menu" style="text;html=1;align=center;verticalAlign=middle;resizable=0;points=[];autosize=1;strokeColor=none;fillColor=none;" vertex="1" parent="1">
          <mxGeometry x="665" y="2395" width="90" height="30" as="geometry" />
        </mxCell>
        <mxCell id="mF6mXQUsh7CbBCDHEuYY-354" value="Config Menu" style="text;html=1;align=center;verticalAlign=middle;resizable=0;points=[];autosize=1;strokeColor=none;fillColor=none;" vertex="1" parent="1">
          <mxGeometry x="625" y="2137" width="90" height="30" as="geometry" />
        </mxCell>
        <mxCell id="mF6mXQUsh7CbBCDHEuYY-355" value="Config Menu" style="text;html=1;align=center;verticalAlign=middle;resizable=0;points=[];autosize=1;strokeColor=none;fillColor=none;" vertex="1" parent="1">
          <mxGeometry x="1764" y="2401" width="90" height="30" as="geometry" />
        </mxCell>
        <mxCell id="mF6mXQUsh7CbBCDHEuYY-356" value="Config Menu" style="text;html=1;align=center;verticalAlign=middle;resizable=0;points=[];autosize=1;strokeColor=none;fillColor=none;" vertex="1" parent="1">
          <mxGeometry x="1074" y="2395" width="90" height="30" as="geometry" />
        </mxCell>
        <mxCell id="mF6mXQUsh7CbBCDHEuYY-357" value="Config Menu" style="text;html=1;align=center;verticalAlign=middle;resizable=0;points=[];autosize=1;strokeColor=none;fillColor=none;" vertex="1" parent="1">
          <mxGeometry x="1014" y="2669" width="90" height="30" as="geometry" />
        </mxCell>
        <mxCell id="mF6mXQUsh7CbBCDHEuYY-358" value="Config Menu" style="text;html=1;align=center;verticalAlign=middle;resizable=0;points=[];autosize=1;strokeColor=none;fillColor=none;" vertex="1" parent="1">
          <mxGeometry x="1703" y="2670" width="90" height="30" as="geometry" />
        </mxCell>
        <mxCell id="mF6mXQUsh7CbBCDHEuYY-359" value="Config Menu" style="text;html=1;align=center;verticalAlign=middle;resizable=0;points=[];autosize=1;strokeColor=none;fillColor=none;" vertex="1" parent="1">
          <mxGeometry x="605" y="2669" width="90" height="30" as="geometry" />
        </mxCell>
        <mxCell id="mF6mXQUsh7CbBCDHEuYY-360" value="Ask Mobile Name" style="rounded=0;whiteSpace=wrap;html=1;" vertex="1" parent="1">
          <mxGeometry x="1177" y="1718.54" width="120" height="60" as="geometry" />
        </mxCell>
        <mxCell id="mF6mXQUsh7CbBCDHEuYY-361" value="" style="edgeStyle=orthogonalEdgeStyle;rounded=0;orthogonalLoop=1;jettySize=auto;html=1;" edge="1" parent="1" source="mF6mXQUsh7CbBCDHEuYY-362" target="mF6mXQUsh7CbBCDHEuYY-360">
          <mxGeometry relative="1" as="geometry" />
        </mxCell>
        <mxCell id="mF6mXQUsh7CbBCDHEuYY-362" value="User Input" style="html=1;strokeWidth=2;shape=manualInput;whiteSpace=wrap;rounded=1;size=26;arcSize=11;rotation=-90;" vertex="1" parent="1">
          <mxGeometry x="1187" y="1828.54" width="100" height="60" as="geometry" />
        </mxCell>
        <mxCell id="mF6mXQUsh7CbBCDHEuYY-363" style="edgeStyle=orthogonalEdgeStyle;rounded=0;orthogonalLoop=1;jettySize=auto;html=1;exitX=0.5;exitY=0;exitDx=0;exitDy=0;entryX=0.5;entryY=0;entryDx=0;entryDy=0;" edge="1" parent="1" source="mF6mXQUsh7CbBCDHEuYY-367" target="mF6mXQUsh7CbBCDHEuYY-360">
          <mxGeometry relative="1" as="geometry" />
        </mxCell>
        <mxCell id="mF6mXQUsh7CbBCDHEuYY-364" value="NO" style="edgeLabel;html=1;align=center;verticalAlign=middle;resizable=0;points=[];" connectable="0" vertex="1" parent="mF6mXQUsh7CbBCDHEuYY-363">
          <mxGeometry x="-0.0476" relative="1" as="geometry">
            <mxPoint as="offset" />
          </mxGeometry>
        </mxCell>
        <mxCell id="mF6mXQUsh7CbBCDHEuYY-365" value="" style="edgeStyle=orthogonalEdgeStyle;rounded=0;orthogonalLoop=1;jettySize=auto;html=1;" edge="1" parent="1" source="mF6mXQUsh7CbBCDHEuYY-367" target="mF6mXQUsh7CbBCDHEuYY-268">
          <mxGeometry relative="1" as="geometry" />
        </mxCell>
        <mxCell id="mF6mXQUsh7CbBCDHEuYY-366" value="Yes" style="edgeLabel;html=1;align=center;verticalAlign=middle;resizable=0;points=[];" connectable="0" vertex="1" parent="mF6mXQUsh7CbBCDHEuYY-365">
          <mxGeometry x="-0.0928" y="-3" relative="1" as="geometry">
            <mxPoint as="offset" />
          </mxGeometry>
        </mxCell>
        <mxCell id="mF6mXQUsh7CbBCDHEuYY-367" value="Mobile Found?" style="rhombus;whiteSpace=wrap;html=1;" vertex="1" parent="1">
          <mxGeometry x="1337" y="1709.54" width="80" height="80" as="geometry" />
        </mxCell>
        <mxCell id="mF6mXQUsh7CbBCDHEuYY-368" value="Ask Mobile Name" style="rounded=0;whiteSpace=wrap;html=1;" vertex="1" parent="1">
          <mxGeometry x="1193.83" y="1967" width="120" height="60" as="geometry" />
        </mxCell>
        <mxCell id="mF6mXQUsh7CbBCDHEuYY-369" value="" style="edgeStyle=orthogonalEdgeStyle;rounded=0;orthogonalLoop=1;jettySize=auto;html=1;" edge="1" parent="1" source="mF6mXQUsh7CbBCDHEuYY-370" target="mF6mXQUsh7CbBCDHEuYY-368">
          <mxGeometry relative="1" as="geometry" />
        </mxCell>
        <mxCell id="mF6mXQUsh7CbBCDHEuYY-370" value="User Input" style="html=1;strokeWidth=2;shape=manualInput;whiteSpace=wrap;rounded=1;size=26;arcSize=11;rotation=-90;" vertex="1" parent="1">
          <mxGeometry x="1203.83" y="2081.5599999999995" width="100" height="60" as="geometry" />
        </mxCell>
        <mxCell id="mF6mXQUsh7CbBCDHEuYY-371" style="edgeStyle=orthogonalEdgeStyle;rounded=0;orthogonalLoop=1;jettySize=auto;html=1;exitX=0.5;exitY=0;exitDx=0;exitDy=0;entryX=0.5;entryY=0;entryDx=0;entryDy=0;" edge="1" parent="1" source="mF6mXQUsh7CbBCDHEuYY-375" target="mF6mXQUsh7CbBCDHEuYY-368">
          <mxGeometry relative="1" as="geometry" />
        </mxCell>
        <mxCell id="mF6mXQUsh7CbBCDHEuYY-372" value="NO" style="edgeLabel;html=1;align=center;verticalAlign=middle;resizable=0;points=[];" connectable="0" vertex="1" parent="mF6mXQUsh7CbBCDHEuYY-371">
          <mxGeometry x="-0.0476" relative="1" as="geometry">
            <mxPoint as="offset" />
          </mxGeometry>
        </mxCell>
        <mxCell id="mF6mXQUsh7CbBCDHEuYY-373" style="edgeStyle=orthogonalEdgeStyle;rounded=0;orthogonalLoop=1;jettySize=auto;html=1;exitX=1;exitY=0.5;exitDx=0;exitDy=0;entryX=0;entryY=0.5;entryDx=0;entryDy=0;" edge="1" parent="1" source="mF6mXQUsh7CbBCDHEuYY-375" target="mF6mXQUsh7CbBCDHEuYY-287">
          <mxGeometry relative="1" as="geometry" />
        </mxCell>
        <mxCell id="mF6mXQUsh7CbBCDHEuYY-374" value="Yes" style="edgeLabel;html=1;align=center;verticalAlign=middle;resizable=0;points=[];" connectable="0" vertex="1" parent="mF6mXQUsh7CbBCDHEuYY-373">
          <mxGeometry x="-0.0113" y="-2" relative="1" as="geometry">
            <mxPoint as="offset" />
          </mxGeometry>
        </mxCell>
        <mxCell id="mF6mXQUsh7CbBCDHEuYY-375" value="Mobile Found?" style="rhombus;whiteSpace=wrap;html=1;" vertex="1" parent="1">
          <mxGeometry x="1353.83" y="1962.5599999999995" width="80" height="80" as="geometry" />
        </mxCell>
        <mxCell id="mF6mXQUsh7CbBCDHEuYY-376" value="Ask Mobile Name" style="rounded=0;whiteSpace=wrap;html=1;" vertex="1" parent="1">
          <mxGeometry x="1233.83" y="2224" width="120" height="60" as="geometry" />
        </mxCell>
        <mxCell id="mF6mXQUsh7CbBCDHEuYY-377" value="" style="edgeStyle=orthogonalEdgeStyle;rounded=0;orthogonalLoop=1;jettySize=auto;html=1;" edge="1" parent="1" source="mF6mXQUsh7CbBCDHEuYY-378" target="mF6mXQUsh7CbBCDHEuYY-376">
          <mxGeometry relative="1" as="geometry" />
        </mxCell>
        <mxCell id="mF6mXQUsh7CbBCDHEuYY-378" value="User Input" style="html=1;strokeWidth=2;shape=manualInput;whiteSpace=wrap;rounded=1;size=26;arcSize=11;rotation=-90;" vertex="1" parent="1">
          <mxGeometry x="1243.83" y="2339.49" width="100" height="60" as="geometry" />
        </mxCell>
        <mxCell id="mF6mXQUsh7CbBCDHEuYY-379" style="edgeStyle=orthogonalEdgeStyle;rounded=0;orthogonalLoop=1;jettySize=auto;html=1;exitX=0.5;exitY=0;exitDx=0;exitDy=0;entryX=0.5;entryY=0;entryDx=0;entryDy=0;" edge="1" parent="1" source="mF6mXQUsh7CbBCDHEuYY-383" target="mF6mXQUsh7CbBCDHEuYY-376">
          <mxGeometry relative="1" as="geometry" />
        </mxCell>
        <mxCell id="mF6mXQUsh7CbBCDHEuYY-380" value="NO" style="edgeLabel;html=1;align=center;verticalAlign=middle;resizable=0;points=[];" connectable="0" vertex="1" parent="mF6mXQUsh7CbBCDHEuYY-379">
          <mxGeometry x="-0.0476" relative="1" as="geometry">
            <mxPoint as="offset" />
          </mxGeometry>
        </mxCell>
        <mxCell id="mF6mXQUsh7CbBCDHEuYY-381" style="edgeStyle=orthogonalEdgeStyle;rounded=0;orthogonalLoop=1;jettySize=auto;html=1;exitX=1;exitY=0.5;exitDx=0;exitDy=0;" edge="1" parent="1" source="mF6mXQUsh7CbBCDHEuYY-383" target="mF6mXQUsh7CbBCDHEuYY-306">
          <mxGeometry relative="1" as="geometry" />
        </mxCell>
        <mxCell id="mF6mXQUsh7CbBCDHEuYY-382" value="Yes" style="edgeLabel;html=1;align=center;verticalAlign=middle;resizable=0;points=[];" connectable="0" vertex="1" parent="mF6mXQUsh7CbBCDHEuYY-381">
          <mxGeometry x="-0.0323" relative="1" as="geometry">
            <mxPoint as="offset" />
          </mxGeometry>
        </mxCell>
        <mxCell id="mF6mXQUsh7CbBCDHEuYY-383" value="Mobile Found?" style="rhombus;whiteSpace=wrap;html=1;" vertex="1" parent="1">
          <mxGeometry x="1393.83" y="2220.49" width="80" height="80" as="geometry" />
        </mxCell>
        <mxCell id="mF6mXQUsh7CbBCDHEuYY-384" value="Ask Mobile Name" style="rounded=0;whiteSpace=wrap;html=1;" vertex="1" parent="1">
          <mxGeometry x="1169" y="2498" width="120" height="60" as="geometry" />
        </mxCell>
        <mxCell id="mF6mXQUsh7CbBCDHEuYY-385" value="" style="edgeStyle=orthogonalEdgeStyle;rounded=0;orthogonalLoop=1;jettySize=auto;html=1;" edge="1" parent="1" source="mF6mXQUsh7CbBCDHEuYY-386" target="mF6mXQUsh7CbBCDHEuYY-384">
          <mxGeometry relative="1" as="geometry" />
        </mxCell>
        <mxCell id="mF6mXQUsh7CbBCDHEuYY-386" value="User Input" style="html=1;strokeWidth=2;shape=manualInput;whiteSpace=wrap;rounded=1;size=26;arcSize=11;rotation=-90;" vertex="1" parent="1">
          <mxGeometry x="1179" y="2608" width="100" height="60" as="geometry" />
        </mxCell>
        <mxCell id="mF6mXQUsh7CbBCDHEuYY-387" style="edgeStyle=orthogonalEdgeStyle;rounded=0;orthogonalLoop=1;jettySize=auto;html=1;exitX=0.5;exitY=0;exitDx=0;exitDy=0;entryX=0.5;entryY=0;entryDx=0;entryDy=0;" edge="1" parent="1" source="mF6mXQUsh7CbBCDHEuYY-391" target="mF6mXQUsh7CbBCDHEuYY-384">
          <mxGeometry relative="1" as="geometry" />
        </mxCell>
        <mxCell id="mF6mXQUsh7CbBCDHEuYY-388" value="NO" style="edgeLabel;html=1;align=center;verticalAlign=middle;resizable=0;points=[];" connectable="0" vertex="1" parent="mF6mXQUsh7CbBCDHEuYY-387">
          <mxGeometry x="-0.0476" relative="1" as="geometry">
            <mxPoint as="offset" />
          </mxGeometry>
        </mxCell>
        <mxCell id="mF6mXQUsh7CbBCDHEuYY-389" style="edgeStyle=orthogonalEdgeStyle;rounded=0;orthogonalLoop=1;jettySize=auto;html=1;exitX=1;exitY=0.5;exitDx=0;exitDy=0;" edge="1" parent="1" source="mF6mXQUsh7CbBCDHEuYY-391" target="mF6mXQUsh7CbBCDHEuYY-325">
          <mxGeometry relative="1" as="geometry" />
        </mxCell>
        <mxCell id="mF6mXQUsh7CbBCDHEuYY-390" value="Yes" style="edgeLabel;html=1;align=center;verticalAlign=middle;resizable=0;points=[];" connectable="0" vertex="1" parent="mF6mXQUsh7CbBCDHEuYY-389">
          <mxGeometry x="0.0067" y="1" relative="1" as="geometry">
            <mxPoint x="-1" y="1" as="offset" />
          </mxGeometry>
        </mxCell>
        <mxCell id="mF6mXQUsh7CbBCDHEuYY-391" value="Mobile Found?" style="rhombus;whiteSpace=wrap;html=1;" vertex="1" parent="1">
          <mxGeometry x="1329" y="2489" width="80" height="80" as="geometry" />
        </mxCell>
        <mxCell id="mF6mXQUsh7CbBCDHEuYY-392" value="" style="edgeStyle=orthogonalEdgeStyle;rounded=0;orthogonalLoop=1;jettySize=auto;html=1;" edge="1" parent="1" source="mF6mXQUsh7CbBCDHEuYY-394" target="mF6mXQUsh7CbBCDHEuYY-395">
          <mxGeometry relative="1" as="geometry" />
        </mxCell>
        <mxCell id="mF6mXQUsh7CbBCDHEuYY-393" value="Yes" style="edgeLabel;html=1;align=center;verticalAlign=middle;resizable=0;points=[];" connectable="0" vertex="1" parent="mF6mXQUsh7CbBCDHEuYY-392">
          <mxGeometry x="-0.1031" y="-1" relative="1" as="geometry">
            <mxPoint as="offset" />
          </mxGeometry>
        </mxCell>
        <mxCell id="mF6mXQUsh7CbBCDHEuYY-394" value="Exit" style="rhombus;whiteSpace=wrap;html=1;" vertex="1" parent="1">
          <mxGeometry x="309" y="2768" width="80" height="80" as="geometry" />
        </mxCell>
        <mxCell id="mF6mXQUsh7CbBCDHEuYY-395" value="" style="ellipse;whiteSpace=wrap;html=1;aspect=fixed;fillColor=#f8cecc;strokeColor=#b85450;" vertex="1" parent="1">
          <mxGeometry x="459" y="2778" width="60" height="60" as="geometry" />
        </mxCell>
        <mxCell id="mF6mXQUsh7CbBCDHEuYY-396" value="Main Page" style="text;html=1;align=center;verticalAlign=middle;resizable=0;points=[];autosize=1;strokeColor=none;fillColor=none;" vertex="1" parent="1">
          <mxGeometry x="449" y="2838" width="80" height="30" as="geometry" />
        </mxCell>
        <mxCell id="mF6mXQUsh7CbBCDHEuYY-399" value="8,12" style="text;html=1;align=center;verticalAlign=middle;resizable=0;points=[];autosize=1;strokeColor=#666666;fillColor=#f5f5f5;fontColor=#333333;" vertex="1" parent="1">
          <mxGeometry x="520" y="1840" width="50" height="30" as="geometry" />
        </mxCell>
        <mxCell id="mF6mXQUsh7CbBCDHEuYY-400" value="64,128,256" style="text;html=1;align=center;verticalAlign=middle;resizable=0;points=[];autosize=1;strokeColor=#666666;fillColor=#f5f5f5;fontColor=#333333;" vertex="1" parent="1">
          <mxGeometry x="520" y="2092" width="80" height="30" as="geometry" />
        </mxCell>
        <mxCell id="mF6mXQUsh7CbBCDHEuYY-401" value="Snapdraon,Mediatec" style="text;html=1;align=center;verticalAlign=middle;resizable=0;points=[];autosize=1;strokeColor=#666666;fillColor=#f5f5f5;fontColor=#333333;" vertex="1" parent="1">
          <mxGeometry x="520" y="2350" width="130" height="30" as="geometry" />
        </mxCell>
        <mxCell id="mF6mXQUsh7CbBCDHEuYY-402" value="32,50,64" style="text;html=1;align=center;verticalAlign=middle;resizable=0;points=[];autosize=1;strokeColor=#666666;fillColor=#f5f5f5;fontColor=#333333;" vertex="1" parent="1">
          <mxGeometry x="520" y="2624" width="70" height="30" as="geometry" />
        </mxCell>
        <mxCell id="gfRvSBglnAQyAbudOJFF-2" value="Main Page" style="text;html=1;align=center;verticalAlign=middle;resizable=0;points=[];autosize=1;strokeColor=none;fillColor=none;" vertex="1" parent="1">
          <mxGeometry x="1358" y="1109" width="80" height="30" as="geometry" />
        </mxCell>
        <mxCell id="i-KaayKcMJmaYJloor9x-1" value="" style="edgeStyle=orthogonalEdgeStyle;rounded=0;orthogonalLoop=1;jettySize=auto;html=1;" edge="1" parent="1" source="i-KaayKcMJmaYJloor9x-3">
          <mxGeometry relative="1" as="geometry">
            <mxPoint x="330" y="2990" as="targetPoint" />
          </mxGeometry>
        </mxCell>
        <mxCell id="i-KaayKcMJmaYJloor9x-2" value="Yes" style="edgeLabel;html=1;align=center;verticalAlign=middle;resizable=0;points=[];" connectable="0" vertex="1" parent="i-KaayKcMJmaYJloor9x-1">
          <mxGeometry x="0.0022" relative="1" as="geometry">
            <mxPoint as="offset" />
          </mxGeometry>
        </mxCell>
        <mxCell id="i-KaayKcMJmaYJloor9x-3" value="Exit" style="rhombus;whiteSpace=wrap;html=1;" vertex="1" parent="1">
          <mxGeometry x="170" y="2950" width="80" height="80" as="geometry" />
        </mxCell>
        <mxCell id="i-KaayKcMJmaYJloor9x-4" value="" style="edgeStyle=orthogonalEdgeStyle;rounded=0;orthogonalLoop=1;jettySize=auto;html=1;" edge="1" parent="1" source="i-KaayKcMJmaYJloor9x-8" target="i-KaayKcMJmaYJloor9x-10">
          <mxGeometry relative="1" as="geometry" />
        </mxCell>
        <mxCell id="i-KaayKcMJmaYJloor9x-5" value="Yes" style="edgeLabel;html=1;align=center;verticalAlign=middle;resizable=0;points=[];" connectable="0" vertex="1" parent="i-KaayKcMJmaYJloor9x-4">
          <mxGeometry x="0.0521" relative="1" as="geometry">
            <mxPoint as="offset" />
          </mxGeometry>
        </mxCell>
        <mxCell id="i-KaayKcMJmaYJloor9x-6" value="" style="edgeStyle=orthogonalEdgeStyle;rounded=0;orthogonalLoop=1;jettySize=auto;html=1;" edge="1" parent="1" source="i-KaayKcMJmaYJloor9x-8" target="i-KaayKcMJmaYJloor9x-12">
          <mxGeometry relative="1" as="geometry" />
        </mxCell>
        <mxCell id="i-KaayKcMJmaYJloor9x-7" value="No" style="edgeLabel;html=1;align=center;verticalAlign=middle;resizable=0;points=[];" connectable="0" vertex="1" parent="i-KaayKcMJmaYJloor9x-6">
          <mxGeometry x="-0.0682" relative="1" as="geometry">
            <mxPoint as="offset" />
          </mxGeometry>
        </mxCell>
        <mxCell id="i-KaayKcMJmaYJloor9x-8" value="Confirm?" style="rhombus;whiteSpace=wrap;html=1;" vertex="1" parent="1">
          <mxGeometry x="335" y="2950" width="80" height="80" as="geometry" />
        </mxCell>
        <mxCell id="i-KaayKcMJmaYJloor9x-9" value="" style="edgeStyle=orthogonalEdgeStyle;rounded=0;orthogonalLoop=1;jettySize=auto;html=1;" edge="1" parent="1" source="i-KaayKcMJmaYJloor9x-10" target="i-KaayKcMJmaYJloor9x-11">
          <mxGeometry relative="1" as="geometry" />
        </mxCell>
        <mxCell id="i-KaayKcMJmaYJloor9x-10" value="Exit From Program" style="rounded=0;whiteSpace=wrap;html=1;" vertex="1" parent="1">
          <mxGeometry x="450" y="2960" width="120" height="60" as="geometry" />
        </mxCell>
        <mxCell id="i-KaayKcMJmaYJloor9x-11" value="End" style="html=1;dashed=0;whiteSpace=wrap;shape=mxgraph.dfd.start" vertex="1" parent="1">
          <mxGeometry x="470" y="3074" width="80" height="30" as="geometry" />
        </mxCell>
        <mxCell id="i-KaayKcMJmaYJloor9x-12" value="" style="ellipse;whiteSpace=wrap;html=1;aspect=fixed;fillColor=#f8cecc;strokeColor=#b85450;" vertex="1" parent="1">
          <mxGeometry x="345" y="3074" width="60" height="60" as="geometry" />
        </mxCell>
        <mxCell id="i-KaayKcMJmaYJloor9x-13" value="Main Page" style="text;html=1;align=center;verticalAlign=middle;resizable=0;points=[];autosize=1;strokeColor=none;fillColor=none;" vertex="1" parent="1">
          <mxGeometry x="335" y="3134" width="80" height="30" as="geometry" />
        </mxCell>
      </root>
    </mxGraphModel>
  </diagram>
  <diagram id="B3Vn9msrrN6XiZOPnoo3" name="Page-3">
    <mxGraphModel grid="1" page="1" gridSize="10" guides="1" tooltips="1" connect="1" arrows="1" fold="1" pageScale="1" pageWidth="850" pageHeight="1100" math="0" shadow="0">
      <root>
        <mxCell id="0" />
        <mxCell id="1" parent="0" />
      </root>
    </mxGraphModel>
  </diagram>
</mxfile>
